<?xml version="1.0" encoding="UTF-8" standalone="no"?><!DOCTYPE svg PUBLIC "-//W3C//DTD SVG 1.1//EN" "http://www.w3.org/Graphics/SVG/1.1/DTD/svg11.dtd"><svg width="100%" height="100%" viewBox="0 0 1000 1000" version="1.1" xmlns="http://www.w3.org/2000/svg" xmlns:xlink="http://www.w3.org/1999/xlink" xml:space="preserve" xmlns:serif="http://www.serif.com/" style="fill-rule:evenodd;clip-rule:evenodd;stroke-linejoin:round;stroke-miterlimit:1.41421;"><path d="M210,739.752c71.818,0 130.124,58.306 130.124,130.124c0,71.817 -58.306,130.124 -130.124,130.124c-71.818,0 -130.124,-58.307 -130.124,-130.124c0,-71.818 58.306,-130.124 130.124,-130.124Zm0,91.087c21.545,0 39.037,17.492 39.037,39.037c0,21.545 -17.492,39.037 -39.037,39.037c-21.545,0 -39.037,-17.492 -39.037,-39.037c0,-21.545 17.492,-39.037 39.037,-39.037Z"/><path d="M790.124,739.752c71.818,0 130.124,58.306 130.124,130.124c0,71.817 -58.306,130.124 -130.124,130.124c-71.817,0 -130.124,-58.307 -130.124,-130.124c0,-71.818 58.307,-130.124 130.124,-130.124Zm0,91.087c21.545,0 39.037,17.492 39.037,39.037c0,21.545 -17.492,39.037 -39.037,39.037c-21.545,0 -39.037,-17.492 -39.037,-39.037c0,-21.545 17.492,-39.037 39.037,-39.037Z"/><path d="M840.124,422.821c0,-110.457 -89.543,-200 -200,-200l0,100c55.229,0 100,44.772 100,100l100,0Z"/><rect x="160" y="321.768" width="100" height="442.125"/><path d="M496.344,322.638l0,92.625l-142.5,-142.5l142.5,-142.5l0,92.625l147.365,0l0,99.75l-147.365,0Z"/><path d="M357.624,154.71c0,0 -17.715,16.534 -47.83,36.021c-8.267,-47.831 -31.296,-106.88 -76.174,-178.921c0,0 -14.763,77.355 -63.774,149.986c-21.258,-33.068 -30.706,-59.049 -30.706,-59.049c-153.529,154.119 -25.982,263.361 54.326,263.361c102.747,0 193.093,-49.601 164.158,-211.398" style="fill:#ff9d33;fill-rule:nonzero;"/><path d="M296.803,291.706c8.858,-19.487 15.353,-44.878 16.534,-76.765c0,0 -12.4,10.629 -33.658,24.21c-5.905,-31.886 -21.849,-70.859 -53.145,-119.28c0,0 -10.039,51.373 -44.287,100.384c-14.763,-21.848 -21.258,-39.563 -21.258,-39.563c-25.392,40.154 -35.43,72.041 -36.021,97.432c-14.172,-5.314 -23.029,-9.448 -23.029,-9.448c24.21,72.041 74.403,87.984 96.842,87.984c40.153,0 80.898,-11.81 121.051,-69.088c0,-0.59 -8.857,1.772 -23.029,4.134" style="fill:#ffce31;fill-rule:nonzero;"/><path d="M150.36,259.228c0,0 16.534,22.439 28.934,17.125c0,0 23.62,-37.202 57.869,-57.869c0,0 -7.086,56.688 1.181,66.726c10.629,13.582 39.563,-14.762 39.563,-14.762c0,33.658 -36.611,75.583 -69.678,75.583c-31.887,0 -77.946,-36.61 -57.869,-86.803" style="fill:#ffdf85;fill-rule:nonzero;"/><g><path d="M315.109,106.88c12.4,-17.715 20.667,-36.611 20.667,-36.611c20.667,34.249 8.267,54.916 -0.591,61.412c-12.4,9.448 -34.248,-4.134 -20.076,-24.801" style="fill:#ff9d33;fill-rule:nonzero;"/><path d="M89.539,100.975c-12.401,-20.667 -13.582,-46.649 -13.582,-46.649c-29.525,44.287 -18.305,69.088 -8.267,76.174c12.991,10.038 35.43,-5.315 21.849,-29.525" style="fill:#ff9d33;fill-rule:nonzero;"/><path d="M158.036,54.916c1.772,-14.172 -4.133,-28.344 -4.133,-28.344c27.753,18.306 27.753,33.659 24.21,40.154c-5.314,7.677 -21.848,4.134 -20.077,-11.81" style="fill:#ff9d33;fill-rule:nonzero;"/></g><rect x="740.124" y="414.147" width="100" height="357.003"/></svg>