<?xml version="1.0" encoding="UTF-8" standalone="no"?><!DOCTYPE svg PUBLIC "-//W3C//DTD SVG 1.1//EN" "http://www.w3.org/Graphics/SVG/1.1/DTD/svg11.dtd"><svg width="100%" height="100%" viewBox="0 0 1900 700" version="1.1" xmlns="http://www.w3.org/2000/svg" xmlns:xlink="http://www.w3.org/1999/xlink" xml:space="preserve" xmlns:serif="http://www.serif.com/" style="fill-rule:evenodd;clip-rule:evenodd;stroke-linejoin:round;stroke-miterlimit:1.41421;"><clipPath id="_clip1"><path d="M1900,328.169l0,-328.169l-1900,0l0,328.169l1900,0Z"/></clipPath><g clip-path="url(#_clip1)"><path d="M2094.2,164.085c0,-90.561 -515.709,-164.085 -1150.92,-164.085c-635.208,0 -1150.92,73.524 -1150.92,164.085c268.548,-27.169 691.808,-49.226 1150.92,-49.226c459.11,0 882.37,22.057 1150.92,49.226Z" style="fill:#d3dcda;"/></g><clipPath id="_clip2"><path d="M1935.01,471.181l-1935.01,-121.181l-35.014,305.007l1935.01,121.181l35.014,-305.007Z"/></clipPath><g clip-path="url(#_clip2)"><path d="M-653.73,519.511c0,0 529.847,112.169 999.925,157.698c470.077,45.529 866.982,-35.007 866.982,-35.007c0,0 227.092,-69.515 674.752,-34.261c447.661,35.253 -546.7,-200.267 -546.7,-200.267l-1953.21,-16.928l-41.75,128.765Z" style="fill:#d3dcda;"/></g><rect x="0" y="72.967" width="1935.01" height="490.126" style="fill:#d3dcda;"/></svg>