<?xml version="1.0" encoding="UTF-8" standalone="no"?><!DOCTYPE svg PUBLIC "-//W3C//DTD SVG 1.1//EN" "http://www.w3.org/Graphics/SVG/1.1/DTD/svg11.dtd"><svg width="100%" height="100%" viewBox="0 0 1000 314" version="1.1" xmlns="http://www.w3.org/2000/svg" xmlns:xlink="http://www.w3.org/1999/xlink" xml:space="preserve" xmlns:serif="http://www.serif.com/" style="fill-rule:evenodd;clip-rule:evenodd;stroke-linejoin:round;stroke-miterlimit:1.41421;"><g><path d="M254.436,51.546c-6.035,7.028 -8.846,22.843 -2.727,38.875c6.12,16.033 15.499,12.551 21.346,28.899c7.718,21.573 4.125,50.552 4.125,50.552c0,0 9.278,26.867 15.743,-1.672c14.31,-53.604 -38.487,-103.453 -38.487,-116.654Z" style="fill:url(#_Radial1);fill-rule:nonzero;"/><path id="_Path_" d="M180.794,274.096c61.803,0 111.869,-50.337 111.869,-112.406c0,-62.069 -50.066,-112.405 -111.809,-112.405c-61.744,0 -111.809,50.337 -111.809,112.405c-0.12,62.129 50.005,112.406 111.749,112.406Z" style="fill:url(#_Radial2);fill-rule:nonzero;"/><path d="M264.615,231.001c-2.419,1.706 -4.956,3.237 -7.592,4.582c3.492,-5.117 6.714,-10.413 9.652,-15.867c2.384,-2.639 4.568,-5.204 6.348,-7.977c0.866,-1.363 1.843,-3.044 2.877,-4.995c6.281,-11.315 13.206,-29.627 13.402,-48.437l0,-0.045c0.005,-0.463 0.007,-0.927 0.003,-1.39c0.033,-4.722 -0.45,-9.433 -1.439,-14.05c0.05,0.361 0.095,0.721 0.14,1.082c-0.056,-0.277 -0.102,-0.558 -0.162,-0.835c0.092,0.512 0.166,1.008 0.246,1.507c1.284,10.892 0.369,21.515 -4.204,29.348c-0.072,0.114 -0.147,0.221 -0.219,0.333c2.371,-11.904 3.164,-25.047 0.526,-38.205c0,0 -1.055,-6.397 -8.915,-25.817c-4.525,-11.178 -12.559,-20.342 -19.658,-27.018c-6.222,-7.698 -11.873,-12.864 -14.988,-16.144c-6.507,-6.852 -9.235,-11.988 -10.355,-15.339c-0.971,-0.487 -13.391,-12.553 -14.377,-13.012c-5.421,8.405 -22.47,34.696 -14.36,59.26c3.675,11.132 12.97,22.686 22.698,29.167c0.427,0.488 5.789,6.311 8.338,19.445c2.633,13.569 1.249,24.157 -4.17,39.814c-6.372,13.736 -22.698,27.316 -37.984,28.705c-32.681,2.969 -44.645,-16.409 -44.645,-16.409c11.678,4.669 24.589,3.692 32.441,-1.148c7.913,-4.895 12.7,-8.525 16.585,-7.093c3.831,1.424 6.88,-2.711 4.144,-6.998c-4.312,-6.641 -12.212,-10.081 -20.01,-8.713c-7.922,1.287 -15.178,7.563 -25.558,1.485c-0.672,-0.39 -1.322,-0.815 -1.948,-1.275c-0.684,-0.45 2.225,0.684 1.546,0.173c-2.02,-1.097 -5.595,-3.488 -6.522,-4.339c-0.155,-0.142 1.567,0.549 1.413,0.407c-9.705,-7.992 -8.493,-13.39 -8.188,-16.776c0.244,-2.709 2.007,-6.18 4.977,-7.588c1.435,0.783 2.329,1.38 2.329,1.38c0,0 -0.612,-1.25 -0.943,-1.909c0.116,-0.05 0.227,-0.037 0.342,-0.086c1.176,0.567 3.775,2.041 5.143,2.94c1.782,1.257 2.35,2.378 2.35,2.378c0,0 0.47,-0.258 0.123,-1.354c-0.126,-0.45 -0.667,-1.879 -2.433,-3.321l0.111,0.013c1.056,0.602 2.057,1.297 2.99,2.077c0.498,-1.81 1.393,-3.7 1.196,-7.08c-0.12,-2.377 -0.064,-2.992 -0.483,-3.91c-0.375,-0.788 0.21,-1.096 0.861,-0.277c-0.111,-0.642 -0.298,-1.267 -0.556,-1.865l0.005,-0.062c0.813,-2.831 17.2,-10.196 18.392,-11.057c1.96,-1.387 3.604,-3.174 4.822,-5.242c0.912,-1.452 1.597,-3.49 1.764,-6.581c0.09,-2.229 -0.947,-3.713 -17.517,-5.448c-4.531,-0.446 -7.19,-3.73 -8.701,-6.76c-0.275,-0.652 -0.556,-1.244 -0.838,-1.835c-0.268,-0.691 -0.484,-1.401 -0.644,-2.125c2.709,-7.78 7.26,-14.359 13.953,-19.329c0.365,-0.332 -1.457,0.085 -1.093,-0.247c0.425,-0.388 3.202,-1.506 3.727,-1.758c0.64,-0.303 -2.743,-1.739 -5.729,-1.389c-3.042,0.342 -3.687,0.705 -5.311,1.393c0.674,-0.67 2.816,-1.549 2.314,-1.543c-3.279,0.502 -7.354,2.408 -10.837,4.567c-0.007,-0.376 0.065,-0.749 0.211,-1.096c-1.624,0.689 -5.61,3.475 -6.771,5.832c0.05,-0.451 0.073,-0.906 0.067,-1.36c-1.236,1.031 -2.352,2.199 -3.325,3.482l-0.061,0.055c-9.415,-3.793 -17.7,-4.038 -24.711,-2.338c-1.533,-1.54 -2.283,-0.414 -5.773,-8.081c-0.237,-0.462 0.182,0.455 0,0c-0.574,-1.487 0.35,1.983 0,0c-5.868,4.63 -13.588,9.877 -17.294,13.581c-0.046,0.147 4.323,-1.235 0,0c-1.514,0.432 -1.412,1.331 -1.642,9.45c-0.055,0.616 -0.006,1.305 -0.056,1.86c-2.961,3.772 -4.977,6.966 -5.74,8.621c-3.828,6.598 -8.045,16.883 -12.133,33.153c1.803,-4.41 3.977,-8.659 6.498,-12.702c-3.399,8.636 -6.685,22.197 -7.342,43.081c0.822,-4.309 1.876,-8.571 3.158,-12.767c-0.802,17.325 2.186,34.619 8.755,50.67c2.351,5.752 6.24,14.48 12.86,24.043c20.8,21.884 50.137,35.508 82.624,35.508c33.914,0.001 64.368,-14.838 85.296,-38.4Z" style="fill:url(#_Linear3);fill-rule:nonzero;"/><path d="M239.52,246.896c41.046,-4.753 59.216,-47.051 35.882,-47.883c-21.076,-0.674 -55.324,50.126 -35.882,47.883Z" style="fill:url(#_Radial4);fill-rule:nonzero;"/><path d="M278.357,190.373c28.24,-16.435 20.877,-51.935 20.877,-51.935c0,0 -10.899,12.66 -18.302,32.842c-7.314,19.985 -19.553,29.019 -2.575,19.093Z" style="fill:url(#_Radial5);fill-rule:nonzero;"/><path d="M188.707,267.902c39.372,12.563 73.211,-18.452 52.352,-28.81c-18.964,-9.341 -71.039,22.87 -52.352,28.81Z" style="fill:url(#_Radial6);fill-rule:nonzero;"/><path d="M281.291,205.446c0.958,-1.352 2.253,-5.679 3.398,-7.614c6.951,-11.22 7,-20.167 7,-20.372c4.198,-20.972 3.817,-29.536 1.235,-45.373c-2.08,-12.752 -11.17,-31.021 -19.045,-39.819c-8.115,-9.063 -2.398,-6.11 -10.255,-12.731c-6.887,-7.634 -13.564,-15.194 -17.201,-18.234c-26.279,-21.97 -25.685,-26.637 -25.179,-27.432c-0.086,0.093 -0.211,0.232 -0.371,0.414c-0.311,-1.241 -0.531,-2.284 -0.531,-2.284c0,0 -14.365,14.364 -17.389,38.306c-1.974,15.63 3.877,31.924 12.349,42.338c4.411,5.397 9.397,10.299 14.868,14.617l0,-0.006c6.402,9.192 9.925,20.536 9.925,32.739c0,30.555 -24.784,55.325 -55.356,55.325c-4.166,0.002 -8.32,-0.465 -12.382,-1.391c-14.425,-2.749 -22.754,-10.025 -26.908,-14.965c-2.381,-2.831 -3.394,-4.895 -3.394,-4.895c12.924,4.63 27.214,3.661 35.904,-1.139c8.758,-4.855 14.056,-8.454 18.356,-7.035c4.239,1.413 7.614,-2.688 4.587,-6.939c-2.966,-4.245 -10.685,-10.325 -22.146,-8.641c-8.768,1.277 -16.799,7.5 -28.287,1.473c-0.739,-0.384 -1.459,-0.806 -2.155,-1.265c-0.758,-0.446 2.461,0.679 1.71,0.172c-2.235,-1.088 -6.193,-3.46 -7.218,-4.303c-0.171,-0.14 1.734,0.545 1.562,0.403c-10.741,-7.925 -9.4,-13.279 -9.062,-16.637c0.27,-2.687 2.221,-6.129 5.509,-7.525c1.587,0.776 2.577,1.369 2.577,1.369c0,0 -0.678,-1.24 -1.044,-1.894c0.129,-0.048 0.251,-0.036 0.378,-0.085c1.301,0.562 4.178,2.023 5.692,2.916c1.973,1.247 2.602,2.358 2.602,2.358c0,0 0.519,-0.256 0.135,-1.343c-0.141,-0.446 -0.738,-1.863 -2.692,-3.293l0.122,0.013c1.16,0.591 2.267,1.28 3.31,2.059c0.551,-1.794 1.542,-3.668 1.324,-7.02c-0.133,-2.357 -0.072,-2.968 -0.536,-3.878c-0.415,-0.781 0.233,-1.087 0.953,-0.274c-0.124,-0.641 -0.331,-1.263 -0.615,-1.851l0.006,-0.061c0.9,-2.808 19.036,-10.112 20.356,-10.966c2.127,-1.335 3.946,-3.107 5.336,-5.199c1.008,-1.44 1.768,-3.461 1.953,-6.526c0.062,-1.381 -0.363,-2.474 -5.166,-3.519c-2.883,-0.628 -7.343,-1.238 -14.222,-1.884c-5.015,-0.442 -7.958,-3.698 -9.63,-6.703c-0.306,-0.648 -0.617,-1.235 -0.928,-1.82c-0.296,-0.681 -0.534,-1.386 -0.713,-2.107c3,-7.855 8.406,-14.566 15.443,-19.169c0.403,-0.33 -1.613,0.084 -1.21,-0.245c0.471,-0.384 3.544,-1.494 4.125,-1.744c0.709,-0.299 -3.035,-1.724 -6.34,-1.377c-3.367,0.34 -4.082,0.699 -5.878,1.382c0.746,-0.665 3.116,-1.537 2.561,-1.531c-3.629,0.499 -8.14,2.389 -11.996,4.53c-0.007,-0.376 0.072,-0.747 0.233,-1.087c-1.797,0.683 -6.209,3.446 -7.494,5.784c0.055,-0.448 0.08,-0.899 0.074,-1.349c-1.353,1.008 -2.587,2.166 -3.679,3.452l-0.067,0.055c-10.421,-3.761 -19.59,-4.005 -27.35,-2.318c-1.697,-1.528 -4.427,-3.838 -8.289,-11.442c-0.262,-0.458 -0.403,0.946 -0.605,0.494c-1.501,-3.481 -2.407,-9.184 -2.258,-13.116c0,0 -3.105,1.415 -5.674,7.323c-0.477,1.063 -0.783,1.649 -1.089,2.235c-0.14,0.17 0.319,-1.941 0.246,-1.826c-0.447,0.756 -1.602,1.812 -2.11,3.18c-0.349,1.013 -0.838,1.581 -1.15,2.845l-0.073,0.116c-0.026,-0.373 0.092,-1.533 0.006,-1.295c-1.204,2.433 -2.24,4.946 -3.101,7.52c-1.384,4.548 -2.994,10.739 -3.249,18.792c-0.062,0.61 -0.007,1.294 -0.063,1.844c-3.276,3.741 -5.508,6.908 -6.352,8.55c-4.236,6.545 -8.903,16.745 -13.427,32.88c2.013,-4.407 4.42,-8.624 7.192,-12.598c-3.763,8.564 -7.4,22.013 -8.127,42.724c0.914,-4.286 2.081,-8.514 3.496,-12.661c-0.649,13.81 0.959,30.932 9.69,50.25c5.184,11.363 17.117,34.438 46.275,52.444l-0.003,0.002c0,0 9.92,7.384 26.97,12.918c1.26,0.457 2.537,0.907 3.84,1.344c-0.409,-0.165 -0.805,-0.339 -1.189,-0.517c11.349,3.4 23.133,5.132 34.98,5.141c44.148,0.038 57.169,-17.691 57.169,-17.691c0,0 -0.046,0.034 -0.13,0.095c0.623,-0.587 1.223,-1.196 1.8,-1.829c-6.965,6.577 -22.861,7.014 -28.805,6.539c10.137,-2.977 16.807,-5.495 29.782,-10.463c1.518,-0.563 3.071,-1.205 4.658,-1.925c0.171,-0.076 0.344,-0.158 0.517,-0.236c0.315,-0.147 0.626,-0.286 0.944,-0.44c6.322,-2.979 12.266,-6.7 17.707,-11.085c13.029,-10.408 15.864,-20.554 17.346,-27.243c-0.206,0.641 -0.85,2.136 -1.303,3.104c-3.355,7.178 -10.796,11.582 -18.878,15.36c3.846,-5.046 7.412,-10.299 10.683,-15.735c2.638,-2.616 3.461,-6.71 5.43,-9.46Z" style="fill:url(#_Radial7);fill-rule:nonzero;"/><path d="M265.433,230.332c5.312,-5.857 10.083,-12.557 13.696,-20.153c9.3,-19.552 23.678,-52.062 12.354,-86.015c-8.95,-26.835 -21.238,-41.508 -36.84,-55.843c-25.339,-23.277 -32.416,-33.669 -32.416,-39.849c0,0 -29.256,32.613 -16.568,66.628c12.689,34.015 38.675,32.768 55.867,68.265c20.23,41.77 -16.368,87.352 -46.634,100.11c1.853,-0.412 67.28,-15.218 70.719,-52.642c-0.078,0.688 -1.552,11.039 -20.178,19.499Z" style="fill:url(#_Radial8);fill-rule:nonzero;"/><path d="M180.673,108.959c0.099,-2.21 -1.048,-3.694 -19.325,-5.409c-7.52,-0.694 -10.4,-7.644 -11.278,-10.57c-2.673,6.947 -3.777,14.237 -3.184,23.054c0.406,5.776 4.287,11.976 6.142,15.616c0,0 0.412,-0.536 0.602,-0.734c3.493,-3.637 18.129,-9.178 19.504,-9.965c1.516,-0.957 7.284,-5.172 7.539,-11.992Z" style="fill:url(#_Linear9);fill-rule:nonzero;"/><path d="M100.21,67.905c-0.263,-0.458 -0.403,0.946 -0.605,0.495c-1.501,-3.481 -2.414,-9.123 -2.198,-13.111c0,0 -3.104,1.415 -5.673,7.324c-0.477,1.062 -0.783,1.648 -1.089,2.234c-0.141,0.171 0.319,-1.941 0.246,-1.826c-0.447,0.756 -1.602,1.813 -2.104,3.119c-0.416,1.068 -0.844,1.642 -1.162,2.967c-0.098,0.36 0.098,-1.594 0.013,-1.356c-5.976,11.549 -7.116,29.011 -6.487,28.272c12.722,-13.583 27.3,-16.805 27.3,-16.805c-1.551,-1.143 -4.921,-4.442 -8.241,-11.313l0,0Z" style="fill:url(#_Linear10);fill-rule:nonzero;"/><path d="M148.478,209.948c-17.571,-7.502 -37.548,-18.083 -36.794,-42.121c1.027,-31.658 29.522,-25.401 29.522,-25.401c-1.075,0.262 -3.95,2.309 -4.969,4.491c-1.077,2.729 -3.041,8.89 2.911,15.348c9.347,10.129 -19.203,24.031 24.865,50.294c1.111,0.605 -10.331,-0.361 -15.534,-2.611l-0.001,0Z" style="fill:url(#_Linear11);fill-rule:nonzero;"/><path d="M142.236,194.172c12.46,4.337 26.976,3.576 35.666,-1.224c5.818,-3.239 13.281,-8.426 17.873,-7.145c-3.976,-1.572 -6.987,-2.306 -10.61,-2.486c-0.617,0 -1.356,-0.013 -2.028,-0.08c-1.327,-0.005 -2.653,0.068 -3.971,0.217c-2.243,0.206 -4.729,1.621 -6.99,1.394c-0.122,-0.012 2.193,-0.951 2.005,-0.908c-1.198,0.249 -2.499,0.303 -3.874,0.474c-0.873,0.097 -1.625,0.206 -2.492,0.242c-25.953,2.201 -47.888,-14.065 -47.888,-14.065c-1.866,6.287 8.359,18.724 22.309,23.581l0,0Z" style="fill:url(#_Linear12);fill-rule:nonzero;"/><path d="M265.387,230.499c26.25,-25.773 39.531,-57.103 33.916,-92.242c0,0 2.243,18.019 -6.262,36.448c4.086,-17.992 4.562,-40.351 -6.294,-63.504c-14.489,-30.905 -38.318,-47.167 -47.416,-53.951c-13.784,-10.28 -19.497,-20.746 -19.601,-22.906c-4.117,8.437 -16.574,37.349 -1.338,62.248c14.274,23.328 36.76,30.252 52.502,51.65c29.001,39.42 -5.507,82.257 -5.507,82.257Z" style="fill:url(#_Linear13);fill-rule:nonzero;"/><path d="M261.625,163.439c-9.173,-18.952 -20.623,-27.218 -31.455,-36.177c1.261,1.764 1.571,2.388 2.269,3.528c9.533,10.161 23.59,34.944 13.384,66.055c-19.211,58.562 -96.054,30.986 -104.11,23.239c3.259,33.893 59.989,50.112 96.925,28.133c21.018,-19.897 38.021,-53.72 22.987,-84.778Z" style="fill:url(#_Linear14);fill-rule:nonzero;"/></g><g transform="matrix(1.04863,0,0,1.04863,-124.257,30.7334)"><text x="435.113px" y="150.245px" style="font-family:'Roboto-Black', 'Roboto';font-weight:900;font-size:83.3px;">Fir<tspan x="534.357px " y="150.245px ">e</tspan>fo<tspan x="655.809px " y="150.245px ">x</tspan></text><text x="719.423px" y="150.245px" style="font-family:'Roboto-Regular', 'Roboto';font-size:83.3px;">Add-ons</text></g><defs><radialGradient id="_Radial1" cx="0" cy="0" r="1" gradientUnits="userSpaceOnUse" gradientTransform="matrix(86.584,3.86333,-5.68136,127.263,289.19,90.5176)"><stop offset="0" style="stop-color:#ffea00;stop-opacity:1"/><stop offset="0.05" style="stop-color:#ffea00;stop-opacity:1"/><stop offset="0.12" style="stop-color:#ffde00;stop-opacity:1"/><stop offset="0.25" style="stop-color:#ffbf00;stop-opacity:1"/><stop offset="0.43" style="stop-color:#ff8e00;stop-opacity:1"/><stop offset="0.77" style="stop-color:#ff272d;stop-opacity:1"/><stop offset="0.87" style="stop-color:#e0255a;stop-opacity:1"/><stop offset="0.95" style="stop-color:#cc2477;stop-opacity:1"/><stop offset="1" style="stop-color:#c42482;stop-opacity:1"/></radialGradient><radialGradient id="_Radial2" cx="0" cy="0" r="1" gradientUnits="userSpaceOnUse" gradientTransform="matrix(244.267,0,0,244.267,227.428,77.1448)"><stop offset="0" style="stop-color:#00ccda;stop-opacity:1"/><stop offset="0.22" style="stop-color:#0083ff;stop-opacity:1"/><stop offset="0.26" style="stop-color:#007af9;stop-opacity:1"/><stop offset="0.33" style="stop-color:#0060e8;stop-opacity:1"/><stop offset="0.33" style="stop-color:#005fe7;stop-opacity:1"/><stop offset="0.44" style="stop-color:#2639ad;stop-opacity:1"/><stop offset="0.52" style="stop-color:#401e84;stop-opacity:1"/><stop offset="0.57" style="stop-color:#4a1475;stop-opacity:1"/><stop offset="1" style="stop-color:#4a1475;stop-opacity:1"/></radialGradient><linearGradient id="_Linear3" x1="0" y1="0" x2="1" y2="0" gradientUnits="userSpaceOnUse" gradientTransform="matrix(-48.2452,-157.819,157.819,-48.2452,196.569,212.239)"><stop offset="0" style="stop-color:#000f43;stop-opacity:0.4"/><stop offset="0.49" style="stop-color:#001962;stop-opacity:0.172549"/><stop offset="1" style="stop-color:#002079;stop-opacity:0"/></linearGradient><radialGradient id="_Radial4" cx="0" cy="0" r="1" gradientUnits="userSpaceOnUse" gradientTransform="matrix(81.9891,8.27289,-8.27289,81.9891,310.492,188.616)"><stop offset="0" style="stop-color:#ffea00;stop-opacity:1"/><stop offset="0" style="stop-color:#ffea00;stop-opacity:1"/><stop offset="0.5" style="stop-color:#ff272d;stop-opacity:1"/><stop offset="1" style="stop-color:#c42482;stop-opacity:1"/></radialGradient><radialGradient id="_Radial5" cx="0" cy="0" r="1" gradientUnits="userSpaceOnUse" gradientTransform="matrix(136.915,13.8151,-13.8151,136.915,311.006,109.25)"><stop offset="0" style="stop-color:#ffe900;stop-opacity:1"/><stop offset="0" style="stop-color:#ffe900;stop-opacity:1"/><stop offset="0.16" style="stop-color:#ffaf0e;stop-opacity:1"/><stop offset="0.32" style="stop-color:#ff7a1b;stop-opacity:1"/><stop offset="0.47" style="stop-color:#ff4e26;stop-opacity:1"/><stop offset="0.62" style="stop-color:#ff2c2e;stop-opacity:1"/><stop offset="0.76" style="stop-color:#ff1434;stop-opacity:1"/><stop offset="0.89" style="stop-color:#ff0538;stop-opacity:1"/><stop offset="1" style="stop-color:#ff0039;stop-opacity:1"/></radialGradient><radialGradient id="_Radial6" cx="0" cy="0" r="1" gradientUnits="userSpaceOnUse" gradientTransform="matrix(125.634,12.6768,-12.6768,125.634,317.565,238.122)"><stop offset="0" style="stop-color:#ff272d;stop-opacity:1"/><stop offset="0" style="stop-color:#ff272d;stop-opacity:1"/><stop offset="0.5" style="stop-color:#c42482;stop-opacity:1"/><stop offset="0.99" style="stop-color:#620700;stop-opacity:1"/><stop offset="1" style="stop-color:#620700;stop-opacity:1"/></radialGradient><radialGradient id="_Radial7" cx="0" cy="0" r="1" gradientUnits="userSpaceOnUse" gradientTransform="matrix(197.121,0,0,197.121,240.551,127.777)"><stop offset="0" style="stop-color:#ffea00;stop-opacity:1"/><stop offset="0.16" style="stop-color:#ffea00;stop-opacity:1"/><stop offset="0.23" style="stop-color:#ffde00;stop-opacity:1"/><stop offset="0.37" style="stop-color:#ffbf00;stop-opacity:1"/><stop offset="0.54" style="stop-color:#ff8e00;stop-opacity:1"/><stop offset="0.76" style="stop-color:#ff272d;stop-opacity:1"/><stop offset="0.8" style="stop-color:#f92433;stop-opacity:1"/><stop offset="0.84" style="stop-color:#e91c45;stop-opacity:1"/><stop offset="0.89" style="stop-color:#cf0e62;stop-opacity:1"/><stop offset="0.94" style="stop-color:#b5007f;stop-opacity:1"/><stop offset="1" style="stop-color:#b5007f;stop-opacity:1"/></radialGradient><radialGradient id="_Radial8" cx="0" cy="0" r="1" gradientUnits="userSpaceOnUse" gradientTransform="matrix(232.765,0,0,232.765,225.72,28.7972)"><stop offset="0" style="stop-color:#ffea00;stop-opacity:1"/><stop offset="0.28" style="stop-color:#ffea00;stop-opacity:1"/><stop offset="0.4" style="stop-color:#fd0;stop-opacity:1"/><stop offset="0.63" style="stop-color:#ffba00;stop-opacity:1"/><stop offset="0.86" style="stop-color:#ff9100;stop-opacity:1"/><stop offset="0.93" style="stop-color:#ff6711;stop-opacity:1"/><stop offset="0.99" style="stop-color:#ff4a1d;stop-opacity:1"/><stop offset="1" style="stop-color:#ff4a1d;stop-opacity:1"/></radialGradient><linearGradient id="_Linear9" x1="0" y1="0" x2="1" y2="0" gradientUnits="userSpaceOnUse" gradientTransform="matrix(89.6043,-13.453,13.453,89.6043,105.448,117.905)"><stop offset="0" style="stop-color:#c42482;stop-opacity:0.498039"/><stop offset="0.47" style="stop-color:#ff272d;stop-opacity:0.498039"/><stop offset="0.49" style="stop-color:#ff2c2c;stop-opacity:0.509804"/><stop offset="0.68" style="stop-color:#ff7a1a;stop-opacity:0.717647"/><stop offset="0.83" style="stop-color:#ffb20d;stop-opacity:0.870588"/><stop offset="0.94" style="stop-color:#ffd605;stop-opacity:0.960784"/><stop offset="1" style="stop-color:#ffe302;stop-opacity:1"/></linearGradient><linearGradient id="_Linear10" x1="0" y1="0" x2="1" y2="0" gradientUnits="userSpaceOnUse" gradientTransform="matrix(-10.1598,-36.4426,36.4426,-10.1598,96.5081,93.9644)"><stop offset="0" style="stop-color:#891551;stop-opacity:0.6"/><stop offset="1" style="stop-color:#c42482;stop-opacity:0"/></linearGradient><linearGradient id="_Linear11" x1="0" y1="0" x2="1" y2="0" gradientUnits="userSpaceOnUse" gradientTransform="matrix(20.9043,29.1741,-29.1741,20.9043,115.878,146.659)"><stop offset="0" style="stop-color:#891551;stop-opacity:0.498039"/><stop offset="0.01" style="stop-color:#891551;stop-opacity:0.498039"/><stop offset="0.48" style="stop-color:#ff272d;stop-opacity:0.498039"/><stop offset="1" style="stop-color:#ff272d;stop-opacity:0"/></linearGradient><linearGradient id="_Linear12" x1="0" y1="0" x2="1" y2="0" gradientUnits="userSpaceOnUse" gradientTransform="matrix(1.90139,-18.75,18.75,1.90139,155.846,197.734)"><stop offset="0" style="stop-color:#c42482;stop-opacity:1"/><stop offset="0.08" style="stop-color:#c42482;stop-opacity:0.807843"/><stop offset="0.21" style="stop-color:#c42482;stop-opacity:0.564706"/><stop offset="0.33" style="stop-color:#c42482;stop-opacity:0.360784"/><stop offset="0.45" style="stop-color:#c42482;stop-opacity:0.203922"/><stop offset="0.56" style="stop-color:#c42482;stop-opacity:0.0901961"/><stop offset="0.67" style="stop-color:#c42482;stop-opacity:0.0196078"/><stop offset="0.77" style="stop-color:#c42482;stop-opacity:0"/><stop offset="1" style="stop-color:#c42482;stop-opacity:0"/></linearGradient><linearGradient id="_Linear13" x1="0" y1="0" x2="1" y2="0" gradientUnits="userSpaceOnUse" gradientTransform="matrix(77.0299,172.251,-172.251,77.0299,216.695,37.5751)"><stop offset="0" style="stop-color:#fff14f;stop-opacity:1"/><stop offset="0.27" style="stop-color:#ffee4c;stop-opacity:1"/><stop offset="0.45" style="stop-color:#ffe643;stop-opacity:1"/><stop offset="0.61" style="stop-color:#ffd834;stop-opacity:1"/><stop offset="0.76" style="stop-color:#ffc41e;stop-opacity:1"/><stop offset="0.89" style="stop-color:#ffab02;stop-opacity:1"/><stop offset="0.9" style="stop-color:#ffa900;stop-opacity:1"/><stop offset="0.95" style="stop-color:#ffa000;stop-opacity:1"/><stop offset="1" style="stop-color:#ff9100;stop-opacity:1"/></linearGradient><linearGradient id="_Linear14" x1="0" y1="0" x2="1" y2="0" gradientUnits="userSpaceOnUse" gradientTransform="matrix(-36.4885,97.9708,-97.9708,-36.4885,231.906,136.64)"><stop offset="0" style="stop-color:#ff8e00;stop-opacity:1"/><stop offset="0.04" style="stop-color:#ff8e00;stop-opacity:0.854902"/><stop offset="0.08" style="stop-color:#ff8e00;stop-opacity:0.72549"/><stop offset="0.13" style="stop-color:#ff8e00;stop-opacity:0.627451"/><stop offset="0.18" style="stop-color:#ff8e00;stop-opacity:0.556863"/><stop offset="0.23" style="stop-color:#ff8e00;stop-opacity:0.513725"/><stop offset="0.28" style="stop-color:#ff8e00;stop-opacity:0.498039"/><stop offset="0.39" style="stop-color:#ff8e00;stop-opacity:0.47451"/><stop offset="0.52" style="stop-color:#ff8e00;stop-opacity:0.415686"/><stop offset="0.68" style="stop-color:#ff8e00;stop-opacity:0.313725"/><stop offset="0.84" style="stop-color:#ff8e00;stop-opacity:0.168627"/><stop offset="1" style="stop-color:#ff8e00;stop-opacity:0"/></linearGradient></defs></svg>