<svg width="100%" height="100%" viewBox="0 0 502 311" version="1.1" xmlns="http://www.w3.org/2000/svg" xmlns:xlink="http://www.w3.org/1999/xlink" xml:space="preserve" xmlns:serif="http://www.serif.com/" style="fill-rule:evenodd;clip-rule:evenodd;stroke-linejoin:round;stroke-miterlimit:1.41421;"><path d="M501.847,9.303c0,-5.134 -4.168,-9.303 -9.303,-9.303l-483.241,0c-5.134,0 -9.303,4.169 -9.303,9.303l0,291.499c0,5.135 4.169,9.303 9.303,9.303l483.241,0c5.135,0 9.303,-4.168 9.303,-9.303l0,-291.499Z" style="fill:#fff;"/><clipPath id="_clip1"><rect x="0" y="0" width="501.847" height="28.949"/></clipPath><g clip-path="url(#_clip1)"><path d="M501.847,7.823c0,-4.318 -3.505,-7.823 -7.822,-7.823l-486.202,0c-4.318,0 -7.823,3.505 -7.823,7.823l0,245.116c0,4.317 3.505,7.823 7.823,7.823l486.202,0c4.317,0 7.822,-3.506 7.822,-7.823l0,-245.116Z" style="fill:#efefef;"/></g><circle cx="17.497" cy="15.081" r="8.5" style="fill:#d95541;"/><circle cx="42.966" cy="15.081" r="8.5" style="fill:#fcce42;"/><circle cx="68.435" cy="15.081" r="8.5" style="fill:#2fa362;"/><text x="37.257px" y="58.52px" style="font-family:'Roboto-Regular', 'Roboto';font-size:14px;fill:#505f7a;">A<tspan x="46.952px 55.214px 60.109px 68.363px 76.91px " y="58.52px 58.52px 58.52px 58.52px 58.52px ">uthor</tspan></text><text x="19.015px" y="96.979px" style="font-family:'Roboto-Regular', 'Roboto';font-size:14px;fill:#505f7a;">Reviewers</text><text x="11.898px" y="140.308px" style="font-family:'Roboto-Regular', 'Roboto';font-size:14px;fill:#505f7a;">Description</text><text x="90.417px" y="142.208px" style="font-family:'Roboto-Regular', 'Roboto';font-size:20px;fill:#13274c;">What kind of change does this PR intr<tspan x="422.351px " y="142.208px ">o</tspan>duce?</text><g transform="matrix(1,0,0,1,-64.1159,27.4916)"><text x="154.131px" y="141.102px" style="font-family:'Roboto-Regular', 'Roboto';font-size:14px;fill:#13274c;">[</text><text x="157.843px" y="141.102px" style="font-family:'MS-UIGothic', 'MS UI Gothic', sans-serif;font-size:14px;fill:#13274c;">✖</text><text x="171.843px" y="141.102px" style="font-family:'Roboto-Regular', 'Roboto';font-size:14px;fill:#13274c;">] Bug Fix</text></g><g transform="matrix(1,0,0,1,-64.1159,66.1788)"><text x="154.131px" y="141.102px" style="font-family:'Roboto-Regular', 'Roboto';font-size:14px;fill:#13274c;">[</text><text x="157.843px" y="141.102px" style="font-family:'MS-UIGothic', 'MS UI Gothic', sans-serif;font-size:14px;fill:#13274c;">✖</text><text x="171.843px" y="141.102px" style="font-family:'Roboto-Regular', 'Roboto';font-size:14px;fill:#13274c;">] Code Style Update</text></g><g transform="matrix(1,0,0,1,-64.1159,46.9897)"><text x="154.131px" y="141.102px" style="font-family:'Roboto-Regular', 'Roboto';font-size:14px;fill:#13274c;">[</text><text x="157.843px" y="141.102px" style="font-family:'MS-UIGothic', 'MS UI Gothic', sans-serif;font-size:14px;fill:#13274c;">✔</text><text x="171.843px" y="141.102px" style="font-family:'Roboto-Regular', 'Roboto';font-size:14px;fill:#13274c;">] F<tspan x="186.615px " y="141.102px ">e</tspan>atur<tspan x="218.546px " y="141.102px ">e</tspan></text></g><clipPath id="_clip2"><rect id="Creative-Tail-People-man-2" x="89.645" y="37.338" width="32" height="32"/></clipPath><g clip-path="url(#_clip2)"><g><circle cx="105.645" cy="53.338" r="16" style="fill:#00b86e;"/><g><rect x="102.129" y="62.729" width="6.859" height="5.656" style="fill:#ccc;"/><path d="M106.168,66.159l0.618,-1.352l-1.403,-1.469l-1.402,1.469l0.617,1.352l0.133,0l-0.235,0.562l0.512,5.076l0.375,1.437l0.375,-1.437l0.512,-5.076l-0.234,-0.562l0.132,0Z" style="fill:#cc584c;fill-rule:nonzero;"/><path d="M101.004,61.807l4.379,6.219l0,3.344l-12.176,0l1.5,-7.688l6.297,-1.875Z" style="fill:#363400;fill-rule:nonzero;"/><path d="M109.762,61.807l-4.379,6.219l0,3.344l12.176,0l-1.75,-7.438l-6.047,-2.125Z" style="fill:#363400;fill-rule:nonzero;"/><path d="M108.397,60.944l-3.014,-0.356l-3.014,0.356l-1.365,0.863l2.477,3.5l1.902,-1.969l1.903,1.969l2.476,-3.5l-1.365,-0.863Z" style="fill:#f5f5f5;fill-rule:nonzero;"/><path d="M108.488,61.229l0.001,0l-0.856,-2.661l-2.25,-0.167l-2.25,0.167l-0.856,2.661l0.001,0c-0.012,0.037 -0.02,0.074 -0.02,0.111c0,0.551 1.399,0.998 3.125,0.998c1.726,0 3.125,-0.447 3.125,-0.998c0,-0.037 -0.008,-0.074 -0.02,-0.111Z" style="fill:#e6cbc3;fill-rule:nonzero;"/><path d="M108.488,61.229l0.001,0l-0.856,-2.661l-2.25,-0.167l-0.437,0.032l1.812,0.135l0.856,2.661l-0.001,0c0.013,0.037 0.02,0.074 0.02,0.111c0,0.504 -1.169,0.919 -2.687,0.987c0.143,0.006 0.288,0.011 0.437,0.011c1.726,0 3.125,-0.447 3.125,-0.998c0,-0.037 -0.008,-0.074 -0.02,-0.111Z" style="fill:#d9bfb8;fill-rule:nonzero;"/><path d="M111.883,47.838l0,-2.6c0,-2.029 -1.443,-3.65 -6.5,-3.65c-5.057,0 -6.5,1.621 -6.5,3.65l0,2.6c0,0 -1,0.074 -1,0.75l0,2.768c0,0.676 0.25,1.232 1,1.232c0,3.381 3.006,7.25 6.5,7.25c3.494,0 6.5,-3.869 6.5,-7.25c0.75,0 1,-0.556 1,-1.232l0,-2.768c0,-0.676 -1,-0.75 -1,-0.75Z" style="fill:#ffe1d9;fill-rule:nonzero;"/><path d="M105.383,41.588c-0.128,0 -0.252,0.002 -0.375,0.004c4.753,0.079 6.125,1.669 6.125,3.646l0,7.35c0,3.259 -2.794,6.971 -6.125,7.234c0.125,0.01 0.249,0.016 0.375,0.016c3.494,0 6.5,-3.869 6.5,-7.25l0,-4.75l0,-2.6c0,-2.029 -1.442,-3.65 -6.5,-3.65Z" style="fill:#f2d6ce;fill-rule:nonzero;"/><path d="M105.383,41.588c-5.057,0 -6.5,1.621 -6.5,3.65l0,5.35c0.232,-1.157 0.893,-4.457 2.379,-5.535c1.183,0.338 2.599,0.535 4.121,0.535c1.523,0 2.938,-0.197 4.121,-0.535c1.486,1.078 2.148,4.378 2.379,5.535l0,-2.75l0,-2.6c0,-2.029 -1.442,-3.65 -6.5,-3.65Z" style="fill:#805026;fill-rule:nonzero;"/><path d="M105.383,41.588c-0.127,0 -0.251,0.002 -0.374,0.004c4.752,0.079 6.124,1.669 6.124,3.646l0,2.467c0.398,1.132 0.631,2.29 0.75,2.883l0,-2.75l0,-2.6c0,-2.029 -1.442,-3.65 -6.5,-3.65Z" style="fill:#734822;fill-rule:nonzero;"/><path d="M106.984,55.828c0.056,0.27 -0.656,0.664 -1.601,0.664c-0.945,0 -1.657,-0.394 -1.601,-0.664c0.056,-0.27 0.768,-0.336 1.601,-0.336c0.833,0 1.546,0.066 1.601,0.336Z" style="fill:#cc9b8e;fill-rule:nonzero;"/></g><g><g><ellipse cx="102.895" cy="49.838" rx="1" ry="0.75" style="fill:#f5f5f5;"/><circle cx="102.895" cy="49.838" r="0.5" style="fill:#734822;"/></g><g><ellipse cx="107.895" cy="49.838" rx="1" ry="0.75" style="fill:#f5f5f5;"/><circle cx="107.895" cy="49.838" r="0.5" style="fill:#734822;"/></g></g></g></g><clipPath id="_clip3"><rect id="Creative-Tail-People-man-21" serif:id="Creative-Tail-People-man-2" x="89.645" y="76.003" width="32" height="32"/></clipPath><g clip-path="url(#_clip3)"><g><circle cx="105.645" cy="92.003" r="16" style="fill:#001277;"/><g><rect x="102.129" y="101.393" width="6.859" height="5.656" style="fill:#ccc;"/><path d="M106.168,104.823l0.618,-1.352l-1.403,-1.468l-1.402,1.468l0.617,1.352l0.133,0l-0.235,0.562l0.512,5.076l0.375,1.438l0.375,-1.438l0.512,-5.076l-0.234,-0.562l0.132,0Z" style="fill:#cc584c;fill-rule:nonzero;"/><path d="M101.004,100.471l4.379,6.219l0,3.344l-12.176,0l1.5,-7.688l6.297,-1.875Z" style="fill:#b80000;fill-rule:nonzero;"/><path d="M109.762,100.471l-4.379,6.219l0,3.344l12.176,0l-1.75,-7.438l-6.047,-2.125Z" style="fill:#b80000;fill-rule:nonzero;"/><path d="M108.397,99.609l-3.014,-0.356l-3.014,0.356l-1.365,0.862l2.477,3.5l1.902,-1.968l1.903,1.968l2.476,-3.5l-1.365,-0.862Z" style="fill:#f5f5f5;fill-rule:nonzero;"/><path d="M108.488,99.893l0.001,0l-0.856,-2.661l-2.25,-0.167l-2.25,0.167l-0.856,2.661l0.001,0c-0.012,0.037 -0.02,0.074 -0.02,0.111c0,0.552 1.399,0.998 3.125,0.998c1.726,0 3.125,-0.446 3.125,-0.998c0,-0.037 -0.008,-0.074 -0.02,-0.111Z" style="fill:#e6cbc3;fill-rule:nonzero;"/><path d="M108.488,99.893l0.001,0l-0.856,-2.661l-2.25,-0.167l-0.437,0.033l1.812,0.134l0.856,2.661l-0.001,0c0.013,0.037 0.02,0.074 0.02,0.111c0,0.504 -1.169,0.92 -2.687,0.988c0.143,0.006 0.288,0.01 0.437,0.01c1.726,0 3.125,-0.446 3.125,-0.998c0,-0.037 -0.008,-0.074 -0.02,-0.111Z" style="fill:#d9bfb8;fill-rule:nonzero;"/><path d="M111.883,86.503l0,-2.601c0,-2.028 -1.443,-3.649 -6.5,-3.649c-5.057,0 -6.5,1.621 -6.5,3.649l0,2.601c0,0 -1,0.073 -1,0.75l0,2.767c0,0.676 0.25,1.233 1,1.233c0,3.38 3.006,7.25 6.5,7.25c3.494,0 6.5,-3.87 6.5,-7.25c0.75,0 1,-0.557 1,-1.233l0,-2.767c0,-0.677 -1,-0.75 -1,-0.75Z" style="fill:#ffe1d9;fill-rule:nonzero;"/><path d="M105.383,80.253c-0.128,0 -0.252,0.001 -0.375,0.003c4.753,0.079 6.125,1.669 6.125,3.646l0,7.351c0,3.258 -2.794,6.97 -6.125,7.234c0.125,0.009 0.249,0.016 0.375,0.016c3.494,0 6.5,-3.87 6.5,-7.25l0,-4.75l0,-2.601c0,-2.028 -1.442,-3.649 -6.5,-3.649Z" style="fill:#f2d6ce;fill-rule:nonzero;"/><path d="M105.383,80.253c-5.057,0 -6.5,1.621 -6.5,3.649l0,5.351c0.232,-1.158 0.893,-4.458 2.379,-5.535c1.183,0.338 2.599,0.535 4.121,0.535c1.523,0 2.938,-0.198 4.121,-0.535c1.486,1.077 2.148,4.377 2.379,5.535l0,-2.75l0,-2.601c0,-2.028 -1.442,-3.649 -6.5,-3.649Z" style="fill:#805026;fill-rule:nonzero;"/><path d="M105.383,80.253c-0.127,0 -0.251,0.001 -0.374,0.003c4.752,0.08 6.124,1.669 6.124,3.646l0,2.467c0.398,1.132 0.631,2.29 0.75,2.884l0,-2.75l0,-2.601c0,-2.028 -1.442,-3.649 -6.5,-3.649Z" style="fill:#734822;fill-rule:nonzero;"/><path d="M106.984,94.492c0.056,0.271 -0.656,0.664 -1.601,0.664c-0.945,0 -1.657,-0.393 -1.601,-0.664c0.056,-0.27 0.768,-0.336 1.601,-0.336c0.833,0 1.546,0.066 1.601,0.336Z" style="fill:#cc9b8e;fill-rule:nonzero;"/></g><g><g><ellipse cx="102.895" cy="88.503" rx="1" ry="0.75" style="fill:#f5f5f5;"/><circle cx="102.895" cy="88.503" r="0.5" style="fill:#734822;"/></g><g><ellipse cx="107.895" cy="88.503" rx="1" ry="0.75" style="fill:#f5f5f5;"/><circle cx="107.895" cy="88.503" r="0.5" style="fill:#734822;"/></g></g></g></g><clipPath id="_clip4"><rect id="Creative-Tail-People-man-22" serif:id="Creative-Tail-People-man-2" x="129.341" y="76" width="32" height="32"/></clipPath><g clip-path="url(#_clip4)"><g><circle cx="145.341" cy="92" r="16" style="fill:#ae9000;"/><g><rect x="141.825" y="101.391" width="6.859" height="5.656" style="fill:#ccc;"/><path d="M145.865,104.82l0.617,-1.351l-1.403,-1.469l-1.402,1.469l0.617,1.351l0.133,0l-0.234,0.563l0.511,5.075l0.375,1.438l0.375,-1.438l0.512,-5.075l-0.234,-0.563l0.133,0Z" style="fill:#cc584c;fill-rule:nonzero;"/><path d="M140.7,100.469l4.379,6.218l0,3.344l-12.175,0l1.5,-7.687l6.296,-1.875Z" style="fill:#406a80;fill-rule:nonzero;"/><path d="M149.458,100.469l-4.379,6.218l0,3.344l12.176,0l-1.75,-7.437l-6.047,-2.125Z" style="fill:#406a80;fill-rule:nonzero;"/><path d="M148.094,99.606l-3.015,-0.356l-3.014,0.356l-1.365,0.863l2.477,3.5l1.902,-1.969l1.903,1.969l2.476,-3.5l-1.364,-0.863Z" style="fill:#f5f5f5;fill-rule:nonzero;"/><path d="M148.184,99.891l0.001,0l-0.856,-2.662l-2.25,-0.166l-2.25,0.166l-0.855,2.662l0.001,0c-0.013,0.036 -0.021,0.073 -0.021,0.11c0,0.552 1.399,0.999 3.125,0.999c1.726,0 3.125,-0.447 3.125,-0.999c0,-0.037 -0.007,-0.074 -0.02,-0.11Z" style="fill:#e6cbc3;fill-rule:nonzero;"/><path d="M148.184,99.891l0.001,0l-0.856,-2.662l-2.25,-0.166l-0.437,0.032l1.812,0.134l0.856,2.662l-0.001,0c0.013,0.036 0.021,0.073 0.021,0.111c0,0.504 -1.17,0.919 -2.688,0.987c0.143,0.006 0.289,0.011 0.438,0.011c1.725,0 3.125,-0.447 3.125,-0.998c-0.001,-0.038 -0.008,-0.075 -0.021,-0.111Z" style="fill:#d9bfb8;fill-rule:nonzero;"/><path d="M151.579,86.5l0,-2.601c0,-2.028 -1.442,-3.649 -6.5,-3.649c-5.057,0 -6.5,1.621 -6.5,3.649l0,2.601c0,0 -1,0.074 -1,0.75l0,2.767c0,0.676 0.25,1.233 1,1.233c0,3.38 3.006,7.25 6.5,7.25c3.495,0 6.5,-3.87 6.5,-7.25c0.75,0 1,-0.557 1,-1.233l0,-2.767c0,-0.676 -1,-0.75 -1,-0.75Z" style="fill:#ffe1d9;fill-rule:nonzero;"/><path d="M145.079,80.25c-0.127,0 -0.251,0.002 -0.375,0.004c4.753,0.079 6.125,1.668 6.125,3.645l0,7.351c0,3.259 -2.794,6.971 -6.125,7.234c0.125,0.01 0.25,0.016 0.375,0.016c3.495,0 6.5,-3.87 6.5,-7.25l0,-4.75l0,-2.601c0,-2.028 -1.442,-3.649 -6.5,-3.649Z" style="fill:#f2d6ce;fill-rule:nonzero;"/><path d="M145.079,80.25c-5.057,0 -6.5,1.621 -6.5,3.649l0,5.351c0.232,-1.157 0.893,-4.458 2.379,-5.535c1.183,0.338 2.599,0.535 4.121,0.535c1.523,0 2.939,-0.197 4.121,-0.535c1.487,1.078 2.148,4.377 2.379,5.535l0,-2.75l0,-2.601c0,-2.028 -1.442,-3.649 -6.5,-3.649Z" style="fill:#805026;fill-rule:nonzero;"/><path d="M145.079,80.25c-0.127,0 -0.251,0.002 -0.374,0.004c4.752,0.079 6.124,1.668 6.124,3.645l0,2.468c0.399,1.132 0.632,2.289 0.75,2.883l0,-2.75l0,-2.601c0,-2.028 -1.442,-3.649 -6.5,-3.649Z" style="fill:#734822;fill-rule:nonzero;"/><path d="M146.68,94.49c0.057,0.27 -0.656,0.664 -1.601,0.664c-0.944,0 -1.657,-0.394 -1.601,-0.664c0.056,-0.271 0.769,-0.336 1.601,-0.336c0.833,0 1.546,0.065 1.601,0.336Z" style="fill:#cc9b8e;fill-rule:nonzero;"/></g><g><g><ellipse cx="142.591" cy="88.5" rx="1" ry="0.75" style="fill:#f5f5f5;"/><circle cx="142.591" cy="88.5" r="0.5" style="fill:#734822;"/></g><g><ellipse cx="147.591" cy="88.5" rx="1" ry="0.75" style="fill:#f5f5f5;"/><circle cx="147.591" cy="88.5" r="0.5" style="fill:#734822;"/></g></g></g></g><clipPath id="_clip5"><rect id="Creative-Tail-People-man-23" serif:id="Creative-Tail-People-man-2" x="44.837" y="230.909" width="32" height="32"/></clipPath><g clip-path="url(#_clip5)"><g><circle cx="60.837" cy="246.909" r="16" style="fill:#ae9000;"/><g><rect x="57.321" y="256.3" width="6.859" height="5.656" style="fill:#ccc;"/><path d="M61.36,259.73l0.617,-1.352l-1.402,-1.469l-1.402,1.469l0.617,1.352l0.133,0l-0.235,0.562l0.512,5.076l0.375,1.437l0.375,-1.437l0.512,-5.076l-0.235,-0.562l0.133,0Z" style="fill:#cc584c;fill-rule:nonzero;"/><path d="M56.196,255.378l4.379,6.219l0,3.344l-12.176,0l1.5,-7.688l6.297,-1.875Z" style="fill:#406a80;fill-rule:nonzero;"/><path d="M64.954,255.378l-4.379,6.219l0,3.344l12.176,0l-1.75,-7.438l-6.047,-2.125Z" style="fill:#406a80;fill-rule:nonzero;"/><path d="M63.589,254.515l-3.014,-0.356l-3.014,0.356l-1.365,0.863l2.477,3.5l1.902,-1.969l1.902,1.969l2.477,-3.5l-1.365,-0.863Z" style="fill:#f5f5f5;fill-rule:nonzero;"/><path d="M63.68,254.8l0.001,0l-0.856,-2.661l-2.25,-0.167l-2.25,0.167l-0.856,2.661l0.001,0c-0.013,0.037 -0.02,0.074 -0.02,0.111c0,0.551 1.399,0.998 3.125,0.998c1.725,0 3.125,-0.447 3.125,-0.998c0,-0.037 -0.008,-0.074 -0.02,-0.111Z" style="fill:#e6cbc3;fill-rule:nonzero;"/><path d="M63.68,254.8l0.001,0l-0.856,-2.661l-2.25,-0.167l-0.438,0.032l1.813,0.135l0.856,2.661l-0.001,0c0.012,0.037 0.02,0.074 0.02,0.111c0,0.504 -1.169,0.919 -2.687,0.987c0.143,0.006 0.288,0.011 0.437,0.011c1.726,0 3.125,-0.447 3.125,-0.998c0,-0.037 -0.008,-0.074 -0.02,-0.111Z" style="fill:#d9bfb8;fill-rule:nonzero;"/><path d="M67.075,241.409l0,-2.6c0,-2.029 -1.443,-3.65 -6.5,-3.65c-5.057,0 -6.5,1.621 -6.5,3.65l0,2.6c0,0 -1,0.074 -1,0.75l0,2.768c0,0.676 0.25,1.232 1,1.232c0,3.381 3.006,7.25 6.5,7.25c3.494,0 6.5,-3.869 6.5,-7.25c0.75,0 1,-0.556 1,-1.232l0,-2.768c0,-0.676 -1,-0.75 -1,-0.75Z" style="fill:#ffe1d9;fill-rule:nonzero;"/><path d="M60.575,235.159c-0.128,0 -0.252,0.002 -0.375,0.004c4.753,0.079 6.125,1.669 6.125,3.646l0,7.35c0,3.259 -2.794,6.971 -6.125,7.234c0.124,0.01 0.249,0.016 0.375,0.016c3.494,0 6.5,-3.869 6.5,-7.25l0,-4.75l0,-2.6c0,-2.029 -1.442,-3.65 -6.5,-3.65Z" style="fill:#f2d6ce;fill-rule:nonzero;"/><path d="M60.575,235.159c-5.057,0 -6.5,1.621 -6.5,3.65l0,5.35c0.231,-1.157 0.892,-4.457 2.379,-5.535c1.182,0.338 2.598,0.535 4.121,0.535c1.522,0 2.938,-0.197 4.121,-0.535c1.486,1.078 2.147,4.378 2.379,5.535l0,-2.75l0,-2.6c0,-2.029 -1.442,-3.65 -6.5,-3.65Z" style="fill:#805026;fill-rule:nonzero;"/><path d="M60.575,235.159c-0.128,0 -0.251,0.002 -0.374,0.004c4.752,0.079 6.124,1.669 6.124,3.646l0,2.467c0.398,1.132 0.631,2.29 0.75,2.883l0,-2.75l0,-2.6c0,-2.029 -1.442,-3.65 -6.5,-3.65Z" style="fill:#734822;fill-rule:nonzero;"/><path d="M62.176,249.399c0.056,0.27 -0.656,0.664 -1.601,0.664c-0.945,0 -1.657,-0.394 -1.601,-0.664c0.056,-0.27 0.768,-0.336 1.601,-0.336c0.833,0 1.545,0.066 1.601,0.336Z" style="fill:#cc9b8e;fill-rule:nonzero;"/></g><g><g><ellipse cx="58.087" cy="243.409" rx="1" ry="0.75" style="fill:#f5f5f5;"/><circle cx="58.087" cy="243.409" r="0.5" style="fill:#734822;"/></g><g><ellipse cx="63.087" cy="243.409" rx="1" ry="0.75" style="fill:#f5f5f5;"/><circle cx="63.087" cy="243.409" r="0.5" style="fill:#734822;"/></g></g></g></g><text x="87.743px" y="251.818px" style="font-family:'Roboto-Regular', 'Roboto';font-size:14px;fill:#1a54ce;">Joe Doe</text><g transform="matrix(1,0,0,1,-19.3481,-0.454122)"><text x="107.118px" y="273.863px" style="font-family:'Roboto-Regular', 'Roboto';font-size:14px;fill:#13274c;">W<tspan x="119.327px " y="273.863px ">o</tspan>w such an awesome Pull Request, ev<tspan x="355.42px 362.837px 367.698px " y="273.863px 273.863px 273.863px ">ery</tspan>thing is so structur<tspan x="490.273px " y="273.863px ">e</tspan>d.</text><text x="107.118px" y="294.697px" style="font-family:'Roboto-Regular', 'Roboto';font-size:14px;fill:#13274c;">Thank y<tspan x="155.606px " y="294.697px ">o</tspan>u for the testing instructions :)</text></g></svg>
