<?xml version="1.0" encoding="UTF-8" standalone="no"?>
<!DOCTYPE svg PUBLIC "-//W3C//DTD SVG 1.1//EN" "http://www.w3.org/Graphics/SVG/1.1/DTD/svg11.dtd">
<svg width="100%" height="100%" viewBox="0 0 502 184" version="1.1" xmlns="http://www.w3.org/2000/svg" xmlns:xlink="http://www.w3.org/1999/xlink" xml:space="preserve" xmlns:serif="http://www.serif.com/" style="fill-rule:evenodd;clip-rule:evenodd;stroke-linejoin:round;stroke-miterlimit:1.41421;">
    <g transform="matrix(1,0,0,1,-18.9156,0)">
        <g transform="matrix(1.07044,0,0,0.705306,-133.544,-227.591)">
            <path d="M611.25,330.507C611.25,326.19 608.941,322.685 606.096,322.685L147.582,322.685C144.737,322.685 142.427,326.19 142.427,330.507L142.427,575.623C142.427,579.941 144.737,583.446 147.582,583.446L606.096,583.446C608.941,583.446 611.25,579.941 611.25,575.623L611.25,330.507Z" style="fill:white;"/>
        </g>
        <g transform="matrix(1.07044,0,0,1,-133.544,-322.685)">
            <clipPath id="_clip1">
                <rect x="142.427" y="322.685" width="468.823" height="28.949"/>
            </clipPath>
            <g clip-path="url(#_clip1)">
                <path d="M611.25,330.507C611.25,326.19 607.976,322.685 603.942,322.685L149.735,322.685C145.702,322.685 142.427,326.19 142.427,330.507L142.427,575.623C142.427,579.941 145.702,583.446 149.735,583.446L603.942,583.446C607.976,583.446 611.25,579.941 611.25,575.623L611.25,330.507Z" style="fill:rgb(239,239,239);"/>
            </g>
        </g>
        <g transform="matrix(1.12211,0,0,1.03013,-5.22791,-2.31325)">
            <ellipse cx="37.109" cy="16.885" rx="7.575" ry="8.251" style="fill:rgb(217,85,65);"/>
        </g>
        <g transform="matrix(1.12211,0,0,1.03013,20.2414,-2.31325)">
            <ellipse cx="37.109" cy="16.885" rx="7.575" ry="8.251" style="fill:rgb(252,206,66);"/>
        </g>
        <g transform="matrix(1.12211,0,0,1.03013,45.7106,-2.31325)">
            <ellipse cx="37.109" cy="16.885" rx="7.575" ry="8.251" style="fill:rgb(47,163,98);"/>
        </g>
        <g transform="matrix(1,0,0,1,-86.1172,-27.611)">
            <path d="M122.53,80.925L122.53,70.972L125.339,70.972C126.205,70.972 126.971,71.163 127.636,71.546C128.301,71.929 128.815,72.473 129.177,73.18C129.54,73.886 129.723,74.697 129.728,75.613L129.728,76.249C129.728,77.188 129.547,78.01 129.184,78.717C128.822,79.423 128.305,79.965 127.633,80.344C126.96,80.722 126.178,80.916 125.284,80.925L122.53,80.925ZM123.842,72.045L123.842,79.852L125.223,79.852C126.235,79.852 127.022,79.537 127.585,78.907C128.148,78.278 128.429,77.382 128.429,76.218L128.429,75.637C128.429,74.506 128.163,73.627 127.633,72.999C127.102,72.372 126.349,72.054 125.373,72.045L123.842,72.045Z" style="fill:rgb(80,95,122);fill-rule:nonzero;"/>
            <path d="M134.581,81.062C133.579,81.062 132.763,80.732 132.134,80.074C131.505,79.415 131.191,78.535 131.191,77.432L131.191,77.199C131.191,76.465 131.331,75.81 131.611,75.234C131.891,74.657 132.283,74.206 132.787,73.88C133.29,73.555 133.836,73.392 134.424,73.392C135.386,73.392 136.133,73.708 136.666,74.342C137.199,74.975 137.466,75.882 137.466,77.062L137.466,77.589L132.455,77.589C132.474,78.318 132.687,78.907 133.094,79.356C133.502,79.805 134.021,80.029 134.65,80.029C135.096,80.029 135.475,79.938 135.784,79.756C136.094,79.574 136.365,79.332 136.598,79.031L137.37,79.633C136.751,80.585 135.821,81.062 134.581,81.062ZM134.424,74.431C133.914,74.431 133.485,74.616 133.139,74.988C132.793,75.359 132.578,75.88 132.496,76.55L136.201,76.55L136.201,76.454C136.165,75.812 135.992,75.314 135.682,74.96C135.372,74.607 134.953,74.431 134.424,74.431Z" style="fill:rgb(80,95,122);fill-rule:nonzero;"/>
            <path d="M143.236,78.963C143.236,78.621 143.107,78.356 142.849,78.167C142.592,77.977 142.143,77.814 141.503,77.678C140.862,77.541 140.354,77.377 139.978,77.186C139.602,76.994 139.324,76.766 139.144,76.502C138.964,76.238 138.874,75.923 138.874,75.559C138.874,74.952 139.131,74.44 139.643,74.021C140.156,73.601 140.811,73.392 141.609,73.392C142.447,73.392 143.127,73.608 143.649,74.041C144.171,74.474 144.432,75.028 144.432,75.702L143.16,75.702C143.16,75.356 143.013,75.057 142.719,74.807C142.426,74.556 142.055,74.431 141.609,74.431C141.148,74.431 140.788,74.531 140.529,74.731C140.269,74.932 140.139,75.194 140.139,75.518C140.139,75.823 140.26,76.053 140.501,76.208C140.743,76.363 141.179,76.511 141.81,76.652C142.441,76.794 142.953,76.962 143.345,77.158C143.737,77.354 144.027,77.59 144.217,77.866C144.406,78.141 144.5,78.478 144.5,78.874C144.5,79.535 144.236,80.065 143.707,80.463C143.179,80.862 142.493,81.062 141.65,81.062C141.057,81.062 140.533,80.957 140.077,80.747C139.622,80.537 139.265,80.245 139.008,79.869C138.75,79.493 138.621,79.086 138.621,78.648L139.886,78.648C139.909,79.072 140.079,79.408 140.395,79.657C140.712,79.905 141.13,80.029 141.65,80.029C142.128,80.029 142.512,79.932 142.802,79.739C143.091,79.545 143.236,79.286 143.236,78.963Z" style="fill:rgb(80,95,122);fill-rule:nonzero;"/>
            <path d="M149.114,80.029C149.566,80.029 149.96,79.893 150.297,79.619C150.634,79.346 150.821,79.004 150.858,78.594L152.054,78.594C152.031,79.018 151.885,79.421 151.616,79.804C151.348,80.187 150.989,80.492 150.54,80.72C150.091,80.948 149.616,81.062 149.114,81.062C148.107,81.062 147.306,80.725 146.712,80.053C146.117,79.381 145.82,78.462 145.82,77.295L145.82,77.083C145.82,76.363 145.952,75.723 146.216,75.162C146.48,74.602 146.86,74.166 147.354,73.856C147.849,73.547 148.433,73.392 149.108,73.392C149.937,73.392 150.626,73.64 151.176,74.137C151.725,74.633 152.017,75.278 152.054,76.071L150.858,76.071C150.821,75.593 150.64,75.2 150.314,74.892C149.988,74.584 149.586,74.431 149.108,74.431C148.465,74.431 147.967,74.662 147.614,75.125C147.261,75.587 147.084,76.256 147.084,77.131L147.084,77.37C147.084,78.222 147.26,78.879 147.611,79.339C147.962,79.799 148.463,80.029 149.114,80.029Z" style="fill:rgb(80,95,122);fill-rule:nonzero;"/>
            <path d="M157.051,74.663C156.86,74.631 156.652,74.615 156.429,74.615C155.6,74.615 155.037,74.968 154.74,75.675L154.74,80.925L153.476,80.925L153.476,73.528L154.706,73.528L154.727,74.383C155.142,73.722 155.729,73.392 156.49,73.392C156.737,73.392 156.923,73.424 157.051,73.487L157.051,74.663Z" style="fill:rgb(80,95,122);fill-rule:nonzero;"/>
            <path d="M159.587,80.925L158.323,80.925L158.323,73.528L159.587,73.528L159.587,80.925ZM158.22,71.566C158.22,71.361 158.283,71.188 158.408,71.047C158.533,70.906 158.719,70.835 158.965,70.835C159.211,70.835 159.398,70.906 159.526,71.047C159.653,71.188 159.717,71.361 159.717,71.566C159.717,71.771 159.653,71.942 159.526,72.079C159.398,72.216 159.211,72.284 158.965,72.284C158.719,72.284 158.533,72.216 158.408,72.079C158.283,71.942 158.22,71.771 158.22,71.566Z" style="fill:rgb(80,95,122);fill-rule:nonzero;"/>
            <path d="M167.859,77.309C167.859,78.434 167.601,79.341 167.086,80.029C166.571,80.717 165.874,81.062 164.994,81.062C164.097,81.062 163.39,80.777 162.875,80.207L162.875,83.769L161.611,83.769L161.611,73.528L162.766,73.528L162.827,74.349C163.342,73.711 164.058,73.392 164.974,73.392C165.863,73.392 166.566,73.727 167.083,74.396C167.6,75.066 167.859,75.998 167.859,77.192L167.859,77.309ZM166.594,77.165C166.594,76.331 166.416,75.673 166.061,75.189C165.705,74.706 165.218,74.465 164.598,74.465C163.832,74.465 163.258,74.804 162.875,75.483L162.875,79.018C163.253,79.692 163.832,80.029 164.612,80.029C165.218,80.029 165.7,79.789 166.057,79.308C166.415,78.827 166.594,78.113 166.594,77.165Z" style="fill:rgb(80,95,122);fill-rule:nonzero;"/>
            <path d="M171.181,71.737L171.181,73.528L172.562,73.528L172.562,74.506L171.181,74.506L171.181,79.099C171.181,79.395 171.242,79.618 171.365,79.766C171.489,79.914 171.698,79.988 171.994,79.988C172.14,79.988 172.341,79.961 172.596,79.906L172.596,80.926C172.263,81.016 171.94,81.062 171.625,81.062C171.06,81.062 170.634,80.891 170.347,80.549C170.06,80.207 169.916,79.722 169.916,79.093L169.916,74.506L168.57,74.506L168.57,73.528L169.916,73.528L169.916,71.737L171.181,71.737Z" style="fill:rgb(80,95,122);fill-rule:nonzero;"/>
            <path d="M175.412,80.925L174.148,80.925L174.148,73.528L175.412,73.528L175.412,80.925ZM174.045,71.566C174.045,71.361 174.108,71.188 174.233,71.047C174.358,70.906 174.544,70.835 174.79,70.835C175.036,70.835 175.223,70.906 175.351,71.047C175.478,71.188 175.542,71.361 175.542,71.566C175.542,71.771 175.478,71.942 175.351,72.079C175.223,72.216 175.036,72.284 174.79,72.284C174.544,72.284 174.358,72.216 174.233,72.079C174.108,71.942 174.045,71.771 174.045,71.566Z" style="fill:rgb(80,95,122);fill-rule:nonzero;"/>
            <path d="M177.101,77.158C177.101,76.434 177.243,75.782 177.528,75.203C177.813,74.624 178.209,74.178 178.718,73.863C179.226,73.549 179.806,73.392 180.457,73.392C181.464,73.392 182.279,73.74 182.901,74.437C183.523,75.135 183.834,76.062 183.834,77.22L183.834,77.309C183.834,78.029 183.696,78.675 183.421,79.247C183.145,79.819 182.751,80.264 182.238,80.583C181.725,80.902 181.136,81.062 180.471,81.062C179.468,81.062 178.656,80.713 178.034,80.016C177.412,79.318 177.101,78.396 177.101,77.247L177.101,77.158ZM178.372,77.309C178.372,78.129 178.563,78.787 178.943,79.284C179.324,79.781 179.833,80.029 180.471,80.029C181.114,80.029 181.624,79.778 182.002,79.274C182.38,78.77 182.57,78.065 182.57,77.158C182.57,76.347 182.377,75.69 181.992,75.186C181.607,74.682 181.095,74.431 180.457,74.431C179.833,74.431 179.329,74.679 178.947,75.176C178.564,75.673 178.372,76.383 178.372,77.309Z" style="fill:rgb(80,95,122);fill-rule:nonzero;"/>
            <path d="M186.616,73.528L186.657,74.458C187.223,73.747 187.961,73.392 188.872,73.392C190.435,73.392 191.224,74.273 191.238,76.037L191.238,80.925L189.973,80.925L189.973,76.03C189.968,75.497 189.846,75.103 189.607,74.848C189.368,74.592 188.995,74.465 188.489,74.465C188.079,74.465 187.719,74.574 187.409,74.793C187.1,75.012 186.858,75.299 186.685,75.654L186.685,80.925L185.42,80.925L185.42,73.528L186.616,73.528Z" style="fill:rgb(80,95,122);fill-rule:nonzero;"/>
        </g>
        <g transform="matrix(1,0,0,1,-33.7354,-67.8623)">
            <path d="M152.228,118.593L152.502,120.468L152.902,118.779L155.714,108.857L157.296,108.857L160.041,118.779L160.431,120.497L160.734,118.583L162.941,108.857L164.826,108.857L161.378,123.075L159.67,123.075L156.74,112.714L156.515,111.63L156.291,112.714L153.253,123.075L151.545,123.075L148.107,108.857L149.982,108.857L152.228,118.593Z" style="fill:rgb(19,39,76);fill-rule:nonzero;"/>
            <path d="M168.429,113.788C169.23,112.805 170.272,112.314 171.554,112.314C173.787,112.314 174.914,113.574 174.933,116.093L174.933,123.075L173.127,123.075L173.127,116.083C173.12,115.322 172.946,114.758 172.604,114.394C172.262,114.029 171.73,113.847 171.007,113.847C170.421,113.847 169.907,114.003 169.464,114.316C169.022,114.628 168.677,115.038 168.429,115.546L168.429,123.075L166.623,123.075L166.623,108.075L168.429,108.075L168.429,113.788Z" style="fill:rgb(19,39,76);fill-rule:nonzero;"/>
            <path d="M184.162,123.075C184.058,122.867 183.973,122.496 183.908,121.962C183.068,122.835 182.065,123.271 180.9,123.271C179.858,123.271 179.004,122.976 178.336,122.387C177.669,121.798 177.336,121.051 177.336,120.146C177.336,119.046 177.754,118.191 178.59,117.582C179.427,116.974 180.604,116.669 182.121,116.669L183.878,116.669L183.878,115.839C183.878,115.208 183.69,114.705 183.312,114.33C182.934,113.956 182.378,113.769 181.642,113.769C180.998,113.769 180.457,113.932 180.021,114.257C179.585,114.583 179.367,114.977 179.367,115.439L177.55,115.439C177.55,114.911 177.738,114.402 178.112,113.91C178.486,113.419 178.994,113.03 179.635,112.743C180.277,112.457 180.981,112.314 181.75,112.314C182.967,112.314 183.921,112.618 184.611,113.227C185.301,113.836 185.659,114.674 185.685,115.741L185.685,120.605C185.685,121.575 185.809,122.346 186.056,122.919L186.056,123.075L184.162,123.075ZM181.164,121.699C181.73,121.699 182.267,121.552 182.775,121.259C183.283,120.966 183.651,120.585 183.878,120.116L183.878,117.949L182.462,117.949C180.249,117.949 179.142,118.596 179.142,119.892C179.142,120.458 179.331,120.901 179.709,121.22C180.086,121.539 180.571,121.699 181.164,121.699Z" style="fill:rgb(19,39,76);fill-rule:nonzero;"/>
            <path d="M190.968,109.95L190.968,112.509L192.941,112.509L192.941,113.906L190.968,113.906L190.968,120.467C190.968,120.89 191.056,121.208 191.232,121.42C191.408,121.632 191.707,121.738 192.13,121.738C192.339,121.738 192.625,121.699 192.99,121.62L192.99,123.077C192.515,123.206 192.052,123.271 191.603,123.271C190.796,123.271 190.187,123.027 189.777,122.538C189.367,122.05 189.162,121.357 189.162,120.458L189.162,113.906L187.238,113.906L187.238,112.509L189.162,112.509L189.162,109.95L190.968,109.95Z" style="fill:rgb(19,39,76);fill-rule:nonzero;"/>
            <path d="M202.951,118.183L201.818,119.365L201.818,123.075L200.011,123.075L200.011,108.075L201.818,108.075L201.818,117.148L202.785,115.986L206.076,112.509L208.273,112.509L204.162,116.923L208.752,123.075L206.632,123.075L202.951,118.183Z" style="fill:rgb(19,39,76);fill-rule:nonzero;"/>
            <path d="M212.101,123.075L210.295,123.075L210.295,112.509L212.101,112.509L212.101,123.075ZM210.148,109.706C210.148,109.413 210.238,109.166 210.417,108.964C210.596,108.762 210.861,108.661 211.212,108.661C211.564,108.661 211.831,108.762 212.013,108.964C212.196,109.166 212.287,109.413 212.287,109.706C212.287,109.999 212.196,110.243 212.013,110.439C211.831,110.634 211.564,110.732 211.212,110.732C210.861,110.732 210.596,110.634 210.417,110.439C210.238,110.243 210.148,109.999 210.148,109.706Z" style="fill:rgb(19,39,76);fill-rule:nonzero;"/>
            <path d="M216.701,112.509L216.759,113.837C217.567,112.822 218.621,112.314 219.923,112.314C222.156,112.314 223.283,113.574 223.302,116.093L223.302,123.075L221.496,123.075L221.496,116.083C221.489,115.322 221.315,114.758 220.973,114.394C220.631,114.029 220.099,113.847 219.377,113.847C218.791,113.847 218.276,114.003 217.834,114.316C217.391,114.628 217.046,115.038 216.798,115.546L216.798,123.075L214.992,123.075L214.992,112.509L216.701,112.509Z" style="fill:rgb(19,39,76);fill-rule:nonzero;"/>
            <path d="M225.587,117.704C225.587,116.083 225.972,114.78 226.74,113.793C227.508,112.807 228.514,112.314 229.757,112.314C230.994,112.314 231.974,112.737 232.697,113.583L232.697,108.075L234.503,108.075L234.503,123.075L232.843,123.075L232.755,121.943C232.033,122.828 231.027,123.271 229.738,123.271C228.514,123.271 227.516,122.769 226.745,121.767C225.973,120.764 225.587,119.456 225.587,117.841L225.587,117.704ZM227.394,117.909C227.394,119.107 227.642,120.045 228.136,120.722C228.631,121.399 229.315,121.738 230.187,121.738C231.333,121.738 232.17,121.223 232.697,120.195L232.697,115.341C232.156,114.345 231.326,113.847 230.207,113.847C229.321,113.847 228.631,114.189 228.136,114.872C227.642,115.556 227.394,116.568 227.394,117.909Z" style="fill:rgb(19,39,76);fill-rule:nonzero;"/>
            <path d="M241.779,117.695C241.779,116.659 241.982,115.728 242.389,114.902C242.796,114.075 243.363,113.437 244.088,112.988C244.814,112.538 245.643,112.314 246.574,112.314C248.013,112.314 249.176,112.812 250.065,113.808C250.954,114.804 251.398,116.129 251.398,117.783L251.398,117.909C251.398,118.938 251.201,119.861 250.807,120.678C250.413,121.495 249.85,122.131 249.118,122.587C248.385,123.043 247.544,123.271 246.593,123.271C245.161,123.271 244.001,122.773 243.112,121.777C242.223,120.781 241.779,119.462 241.779,117.822L241.779,117.695ZM243.595,117.909C243.595,119.081 243.867,120.022 244.411,120.732C244.954,121.441 245.682,121.796 246.593,121.796C247.511,121.796 248.24,121.436 248.781,120.717C249.321,119.998 249.591,118.99 249.591,117.695C249.591,116.536 249.316,115.597 248.766,114.877C248.216,114.158 247.485,113.798 246.574,113.798C245.682,113.798 244.962,114.153 244.416,114.863C243.869,115.572 243.595,116.588 243.595,117.909Z" style="fill:rgb(19,39,76);fill-rule:nonzero;"/>
            <path d="M254.552,123.075L254.552,113.906L252.882,113.906L252.882,112.509L254.552,112.509L254.552,111.425C254.552,110.292 254.855,109.417 255.461,108.798C256.066,108.18 256.922,107.87 258.029,107.87C258.446,107.87 258.859,107.925 259.269,108.035L259.171,109.491C258.865,109.433 258.54,109.404 258.195,109.404C257.609,109.404 257.156,109.575 256.837,109.918C256.518,110.261 256.359,110.752 256.359,111.392L256.359,112.509L258.615,112.509L258.615,113.906L256.359,113.906L256.359,123.075L254.552,123.075Z" style="fill:rgb(19,39,76);fill-rule:nonzero;"/>
            <path d="M269.796,121.796C270.441,121.796 271.004,121.601 271.486,121.21C271.968,120.82 272.235,120.331 272.287,119.745L273.996,119.745C273.963,120.351 273.755,120.927 273.371,121.474C272.987,122.021 272.474,122.457 271.833,122.783C271.191,123.108 270.513,123.271 269.796,123.271C268.358,123.271 267.213,122.791 266.364,121.83C265.514,120.87 265.089,119.557 265.089,117.89L265.089,117.587C265.089,116.559 265.278,115.644 265.656,114.843C266.033,114.042 266.575,113.421 267.282,112.978C267.988,112.535 268.823,112.314 269.787,112.314C270.972,112.314 271.956,112.669 272.741,113.378C273.525,114.088 273.944,115.009 273.996,116.142L272.287,116.142C272.235,115.458 271.976,114.897 271.51,114.457C271.045,114.018 270.47,113.798 269.787,113.798C268.869,113.798 268.157,114.129 267.653,114.789C267.148,115.45 266.896,116.406 266.896,117.656L266.896,117.997C266.896,119.215 267.147,120.152 267.648,120.81C268.149,121.467 268.865,121.796 269.796,121.796Z" style="fill:rgb(19,39,76);fill-rule:nonzero;"/>
            <path d="M277.834,113.788C278.634,112.805 279.676,112.314 280.959,112.314C283.192,112.314 284.318,113.574 284.337,116.093L284.337,123.075L282.531,123.075L282.531,116.083C282.524,115.322 282.35,114.758 282.008,114.394C281.667,114.029 281.134,113.847 280.412,113.847C279.826,113.847 279.311,114.003 278.869,114.316C278.426,114.628 278.081,115.038 277.834,115.546L277.834,123.075L276.027,123.075L276.027,108.075L277.834,108.075L277.834,113.788Z" style="fill:rgb(19,39,76);fill-rule:nonzero;"/>
            <path d="M293.566,123.075C293.462,122.867 293.377,122.496 293.312,121.962C292.472,122.835 291.47,123.271 290.304,123.271C289.263,123.271 288.408,122.976 287.741,122.387C287.073,121.798 286.74,121.051 286.74,120.146C286.74,119.046 287.158,118.191 287.995,117.582C288.831,116.974 290.008,116.669 291.525,116.669L293.283,116.669L293.283,115.839C293.283,115.208 293.094,114.705 292.716,114.33C292.339,113.956 291.782,113.769 291.046,113.769C290.402,113.769 289.862,113.932 289.425,114.257C288.989,114.583 288.771,114.977 288.771,115.439L286.955,115.439C286.955,114.911 287.142,114.402 287.516,113.91C287.891,113.419 288.398,113.03 289.04,112.743C289.681,112.457 290.386,112.314 291.154,112.314C292.371,112.314 293.325,112.618 294.015,113.227C294.705,113.836 295.063,114.674 295.089,115.741L295.089,120.605C295.089,121.575 295.213,122.346 295.461,122.919L295.461,123.075L293.566,123.075ZM290.568,121.699C291.134,121.699 291.671,121.552 292.179,121.259C292.687,120.966 293.055,120.585 293.283,120.116L293.283,117.949L291.867,117.949C289.653,117.949 288.546,118.596 288.546,119.892C288.546,120.458 288.735,120.901 289.113,121.22C289.49,121.539 289.975,121.699 290.568,121.699Z" style="fill:rgb(19,39,76);fill-rule:nonzero;"/>
            <path d="M299.63,112.509L299.689,113.837C300.496,112.822 301.551,112.314 302.853,112.314C305.086,112.314 306.212,113.574 306.232,116.093L306.232,123.075L304.425,123.075L304.425,116.083C304.419,115.322 304.245,114.758 303.903,114.394C303.561,114.029 303.029,113.847 302.306,113.847C301.72,113.847 301.206,114.003 300.763,114.316C300.321,114.628 299.975,115.038 299.728,115.546L299.728,123.075L297.921,123.075L297.921,112.509L299.63,112.509Z" style="fill:rgb(19,39,76);fill-rule:nonzero;"/>
            <path d="M308.527,117.704C308.527,116.057 308.908,114.747 309.67,113.774C310.431,112.8 311.44,112.314 312.697,112.314C313.986,112.314 314.992,112.769 315.714,113.681L315.802,112.509L317.453,112.509L317.453,122.822C317.453,124.189 317.047,125.266 316.237,126.054C315.426,126.842 314.337,127.236 312.97,127.236C312.209,127.236 311.463,127.073 310.734,126.747C310.005,126.422 309.448,125.976 309.064,125.409L310.002,124.325C310.776,125.283 311.724,125.761 312.843,125.761C313.722,125.761 314.407,125.514 314.899,125.019C315.391,124.524 315.636,123.827 315.636,122.929L315.636,122.021C314.914,122.854 313.927,123.271 312.677,123.271C311.44,123.271 310.439,122.773 309.674,121.777C308.909,120.781 308.527,119.423 308.527,117.704ZM310.343,117.909C310.343,119.101 310.587,120.037 311.076,120.717C311.564,121.397 312.248,121.738 313.127,121.738C314.266,121.738 315.102,121.22 315.636,120.185L315.636,115.361C315.083,114.352 314.253,113.847 313.146,113.847C312.267,113.847 311.58,114.189 311.086,114.872C310.591,115.556 310.343,116.568 310.343,117.909Z" style="fill:rgb(19,39,76);fill-rule:nonzero;"/>
            <path d="M324.562,123.271C323.13,123.271 321.964,122.8 321.066,121.86C320.168,120.919 319.718,119.661 319.718,118.085L319.718,117.753C319.718,116.705 319.919,115.769 320.319,114.946C320.719,114.122 321.279,113.477 321.999,113.012C322.718,112.546 323.498,112.314 324.337,112.314C325.711,112.314 326.779,112.766 327.541,113.671C328.302,114.576 328.683,115.872 328.683,117.558L328.683,118.31L321.525,118.31C321.551,119.352 321.855,120.193 322.438,120.834C323.021,121.476 323.761,121.796 324.66,121.796C325.298,121.796 325.838,121.666 326.281,121.406C326.724,121.145 327.111,120.8 327.443,120.37L328.546,121.23C327.661,122.59 326.333,123.271 324.562,123.271ZM324.337,113.798C323.608,113.798 322.996,114.063 322.502,114.594C322.007,115.125 321.701,115.868 321.584,116.825L326.877,116.825L326.877,116.689C326.824,115.771 326.577,115.06 326.134,114.555C325.692,114.05 325.093,113.798 324.337,113.798Z" style="fill:rgb(19,39,76);fill-rule:nonzero;"/>
            <path d="M335.285,117.704C335.285,116.083 335.669,114.78 336.437,113.793C337.205,112.807 338.211,112.314 339.455,112.314C340.692,112.314 341.671,112.737 342.394,113.583L342.394,108.075L344.201,108.075L344.201,123.075L342.541,123.075L342.453,121.943C341.73,122.828 340.724,123.271 339.435,123.271C338.211,123.271 337.213,122.769 336.442,121.767C335.67,120.764 335.285,119.456 335.285,117.841L335.285,117.704ZM337.091,117.909C337.091,119.107 337.339,120.045 337.834,120.722C338.328,121.399 339.012,121.738 339.884,121.738C341.03,121.738 341.867,121.223 342.394,120.195L342.394,115.341C341.854,114.345 341.024,113.847 339.904,113.847C339.018,113.847 338.328,114.189 337.834,114.872C337.339,115.556 337.091,116.568 337.091,117.909Z" style="fill:rgb(19,39,76);fill-rule:nonzero;"/>
            <path d="M346.525,117.695C346.525,116.659 346.728,115.728 347.135,114.902C347.542,114.075 348.109,113.437 348.835,112.988C349.56,112.538 350.389,112.314 351.32,112.314C352.759,112.314 353.922,112.812 354.811,113.808C355.7,114.804 356.144,116.129 356.144,117.783L356.144,117.909C356.144,118.938 355.947,119.861 355.553,120.678C355.159,121.495 354.596,122.131 353.864,122.587C353.131,123.043 352.29,123.271 351.339,123.271C349.907,123.271 348.747,122.773 347.858,121.777C346.969,120.781 346.525,119.462 346.525,117.822L346.525,117.695ZM348.341,117.909C348.341,119.081 348.613,120.022 349.157,120.732C349.7,121.441 350.428,121.796 351.339,121.796C352.257,121.796 352.987,121.436 353.527,120.717C354.067,119.998 354.337,118.99 354.337,117.695C354.337,116.536 354.062,115.597 353.512,114.877C352.962,114.158 352.231,113.798 351.32,113.798C350.428,113.798 349.709,114.153 349.162,114.863C348.615,115.572 348.341,116.588 348.341,117.909Z" style="fill:rgb(19,39,76);fill-rule:nonzero;"/>
            <path d="M362.795,123.271C361.362,123.271 360.197,122.8 359.298,121.86C358.4,120.919 357.951,119.661 357.951,118.085L357.951,117.753C357.951,116.705 358.151,115.769 358.551,114.946C358.952,114.122 359.512,113.477 360.231,113.012C360.95,112.546 361.73,112.314 362.57,112.314C363.944,112.314 365.011,112.766 365.773,113.671C366.535,114.576 366.916,115.872 366.916,117.558L366.916,118.31L359.757,118.31C359.783,119.352 360.088,120.193 360.67,120.834C361.253,121.476 361.994,121.796 362.892,121.796C363.53,121.796 364.071,121.666 364.513,121.406C364.956,121.145 365.343,120.8 365.675,120.37L366.779,121.23C365.893,122.59 364.565,123.271 362.795,123.271ZM362.57,113.798C361.841,113.798 361.229,114.063 360.734,114.594C360.239,115.125 359.933,115.868 359.816,116.825L365.109,116.825L365.109,116.689C365.057,115.771 364.809,115.06 364.367,114.555C363.924,114.05 363.325,113.798 362.57,113.798Z" style="fill:rgb(19,39,76);fill-rule:nonzero;"/>
            <path d="M375.158,120.273C375.158,119.784 374.974,119.405 374.606,119.135C374.238,118.865 373.597,118.632 372.682,118.437C371.767,118.241 371.042,118.007 370.504,117.734C369.967,117.46 369.57,117.135 369.313,116.757C369.056,116.38 368.927,115.93 368.927,115.409C368.927,114.544 369.294,113.811 370.026,113.212C370.758,112.613 371.694,112.314 372.834,112.314C374.031,112.314 375.003,112.623 375.749,113.241C376.494,113.86 376.867,114.651 376.867,115.615L375.05,115.615C375.05,115.12 374.84,114.693 374.42,114.335C374.001,113.977 373.472,113.798 372.834,113.798C372.176,113.798 371.662,113.941 371.291,114.228C370.92,114.514 370.734,114.889 370.734,115.351C370.734,115.787 370.906,116.116 371.252,116.337C371.597,116.559 372.22,116.77 373.122,116.972C374.023,117.174 374.754,117.415 375.314,117.695C375.874,117.975 376.289,118.311 376.559,118.705C376.829,119.099 376.964,119.579 376.964,120.146C376.964,121.09 376.587,121.847 375.832,122.416C375.076,122.986 374.097,123.271 372.892,123.271C372.046,123.271 371.297,123.121 370.646,122.822C369.995,122.522 369.486,122.104 369.118,121.567C368.75,121.03 368.566,120.449 368.566,119.824L370.373,119.824C370.405,120.429 370.648,120.909 371.1,121.264C371.553,121.619 372.15,121.796 372.892,121.796C373.576,121.796 374.124,121.658 374.538,121.381C374.951,121.104 375.158,120.735 375.158,120.273Z" style="fill:rgb(19,39,76);fill-rule:nonzero;"/>
            <path d="M386.72,109.95L386.72,112.509L388.693,112.509L388.693,113.906L386.72,113.906L386.72,120.467C386.72,120.89 386.808,121.208 386.984,121.42C387.16,121.632 387.459,121.738 387.882,121.738C388.091,121.738 388.377,121.699 388.742,121.62L388.742,123.077C388.267,123.206 387.804,123.271 387.355,123.271C386.548,123.271 385.939,123.027 385.529,122.538C385.119,122.05 384.914,121.357 384.914,120.458L384.914,113.906L382.99,113.906L382.99,112.509L384.914,112.509L384.914,109.95L386.72,109.95Z" style="fill:rgb(19,39,76);fill-rule:nonzero;"/>
            <path d="M392.609,113.788C393.41,112.805 394.451,112.314 395.734,112.314C397.967,112.314 399.093,113.574 399.113,116.093L399.113,123.075L397.306,123.075L397.306,116.083C397.3,115.322 397.126,114.758 396.784,114.394C396.442,114.029 395.91,113.847 395.187,113.847C394.601,113.847 394.087,114.003 393.644,114.316C393.201,114.628 392.856,115.038 392.609,115.546L392.609,123.075L390.802,123.075L390.802,108.075L392.609,108.075L392.609,113.788Z" style="fill:rgb(19,39,76);fill-rule:nonzero;"/>
            <path d="M403.781,123.075L401.974,123.075L401.974,112.509L403.781,112.509L403.781,123.075ZM401.828,109.706C401.828,109.413 401.917,109.166 402.096,108.964C402.275,108.762 402.541,108.661 402.892,108.661C403.244,108.661 403.511,108.762 403.693,108.964C403.875,109.166 403.966,109.413 403.966,109.706C403.966,109.999 403.875,110.243 403.693,110.439C403.511,110.634 403.244,110.732 402.892,110.732C402.541,110.732 402.275,110.634 402.096,110.439C401.917,110.243 401.828,109.999 401.828,109.706Z" style="fill:rgb(19,39,76);fill-rule:nonzero;"/>
            <path d="M412.824,120.273C412.824,119.784 412.64,119.405 412.272,119.135C411.904,118.865 411.263,118.632 410.348,118.437C409.433,118.241 408.708,118.007 408.17,117.734C407.633,117.46 407.236,117.135 406.979,116.757C406.722,116.38 406.593,115.93 406.593,115.409C406.593,114.544 406.96,113.811 407.692,113.212C408.424,112.613 409.36,112.314 410.5,112.314C411.697,112.314 412.669,112.623 413.415,113.241C414.16,113.86 414.533,114.651 414.533,115.615L412.716,115.615C412.716,115.12 412.506,114.693 412.086,114.335C411.667,113.977 411.138,113.798 410.5,113.798C409.842,113.798 409.328,113.941 408.957,114.228C408.586,114.514 408.4,114.889 408.4,115.351C408.4,115.787 408.572,116.116 408.918,116.337C409.263,116.559 409.886,116.77 410.788,116.972C411.689,117.174 412.42,117.415 412.98,117.695C413.54,117.975 413.955,118.311 414.225,118.705C414.495,119.099 414.63,119.579 414.63,120.146C414.63,121.09 414.253,121.847 413.498,122.416C412.742,122.986 411.763,123.271 410.558,123.271C409.712,123.271 408.963,123.121 408.312,122.822C407.661,122.522 407.152,122.104 406.784,121.567C406.416,121.03 406.232,120.449 406.232,119.824L408.039,119.824C408.071,120.429 408.314,120.909 408.766,121.264C409.219,121.619 409.816,121.796 410.558,121.796C411.242,121.796 411.79,121.658 412.204,121.381C412.617,121.104 412.824,120.735 412.824,120.273Z" style="fill:rgb(19,39,76);fill-rule:nonzero;"/>
            <path d="M424.093,117.509L424.093,123.075L422.218,123.075L422.218,108.857L427.462,108.857C429.018,108.857 430.238,109.254 431.12,110.048C432.002,110.842 432.443,111.894 432.443,113.202C432.443,114.583 432.012,115.645 431.149,116.391C430.286,117.136 429.051,117.509 427.443,117.509L424.093,117.509ZM424.093,115.976L427.462,115.976C428.465,115.976 429.233,115.739 429.767,115.267C430.301,114.794 430.568,114.111 430.568,113.217C430.568,112.369 430.301,111.691 429.767,111.182C429.233,110.674 428.501,110.409 427.57,110.39L424.093,110.39L424.093,115.976Z" style="fill:rgb(19,39,76);fill-rule:nonzero;"/>
            <path d="M440.05,117.324L436.711,117.324L436.711,123.075L434.826,123.075L434.826,108.857L439.533,108.857C441.134,108.857 442.366,109.221 443.229,109.95C444.092,110.68 444.523,111.741 444.523,113.134C444.523,114.019 444.284,114.791 443.805,115.449C443.327,116.106 442.661,116.598 441.808,116.923L445.148,122.958L445.148,123.075L443.136,123.075L440.05,117.324ZM436.711,115.79L439.591,115.79C440.522,115.79 441.263,115.549 441.813,115.066C442.363,114.584 442.638,113.938 442.638,113.129C442.638,112.249 442.376,111.574 441.852,111.104C441.328,110.634 440.571,110.396 439.582,110.39L436.711,110.39L436.711,115.79Z" style="fill:rgb(19,39,76);fill-rule:nonzero;"/>
            <path d="M453.781,123.075L451.974,123.075L451.974,112.509L453.781,112.509L453.781,123.075ZM451.828,109.706C451.828,109.413 451.917,109.166 452.096,108.964C452.275,108.762 452.541,108.661 452.892,108.661C453.244,108.661 453.511,108.762 453.693,108.964C453.875,109.166 453.966,109.413 453.966,109.706C453.966,109.999 453.875,110.243 453.693,110.439C453.511,110.634 453.244,110.732 452.892,110.732C452.541,110.732 452.275,110.634 452.096,110.439C451.917,110.243 451.828,109.999 451.828,109.706Z" style="fill:rgb(19,39,76);fill-rule:nonzero;"/>
            <path d="M458.38,112.509L458.439,113.837C459.246,112.822 460.301,112.314 461.603,112.314C463.836,112.314 464.962,113.574 464.982,116.093L464.982,123.075L463.175,123.075L463.175,116.083C463.169,115.322 462.995,114.758 462.653,114.394C462.311,114.029 461.779,113.847 461.056,113.847C460.47,113.847 459.956,114.003 459.513,114.316C459.071,114.628 458.725,115.038 458.478,115.546L458.478,123.075L456.671,123.075L456.671,112.509L458.38,112.509Z" style="fill:rgb(19,39,76);fill-rule:nonzero;"/>
            <path d="M470.158,109.95L470.158,112.509L472.13,112.509L472.13,113.906L470.158,113.906L470.158,120.467C470.158,120.89 470.246,121.208 470.421,121.42C470.597,121.632 470.897,121.738 471.32,121.738C471.528,121.738 471.815,121.699 472.179,121.62L472.179,123.077C471.704,123.206 471.242,123.271 470.793,123.271C469.985,123.271 469.377,123.027 468.966,122.538C468.556,122.05 468.351,121.357 468.351,120.458L468.351,113.906L466.427,113.906L466.427,112.509L468.351,112.509L468.351,109.95L470.158,109.95Z" style="fill:rgb(19,39,76);fill-rule:nonzero;"/>
            <path d="M479.347,114.13C479.074,114.085 478.778,114.062 478.459,114.062C477.274,114.062 476.47,114.566 476.046,115.575L476.046,123.075L474.24,123.075L474.24,112.509L475.998,112.509L476.027,113.73C476.619,112.786 477.459,112.314 478.546,112.314C478.898,112.314 479.165,112.359 479.347,112.45L479.347,114.13Z" style="fill:rgb(19,39,76);fill-rule:nonzero;"/>
            <path d="M480.334,117.695C480.334,116.659 480.537,115.728 480.944,114.902C481.351,114.075 481.917,113.437 482.643,112.988C483.369,112.538 484.197,112.314 485.128,112.314C486.567,112.314 487.731,112.812 488.62,113.808C489.508,114.804 489.953,116.129 489.953,117.783L489.953,117.909C489.953,118.938 489.756,119.861 489.362,120.678C488.968,121.495 488.405,122.131 487.672,122.587C486.94,123.043 486.099,123.271 485.148,123.271C483.716,123.271 482.555,122.773 481.667,121.777C480.778,120.781 480.334,119.462 480.334,117.822L480.334,117.695ZM482.15,117.909C482.15,119.081 482.422,120.022 482.965,120.732C483.509,121.441 484.237,121.796 485.148,121.796C486.066,121.796 486.795,121.436 487.336,120.717C487.876,119.998 488.146,118.99 488.146,117.695C488.146,116.536 487.871,115.597 487.321,114.877C486.771,114.158 486.04,113.798 485.128,113.798C484.237,113.798 483.517,114.153 482.97,114.863C482.423,115.572 482.15,116.588 482.15,117.909Z" style="fill:rgb(19,39,76);fill-rule:nonzero;"/>
            <path d="M491.779,117.704C491.779,116.083 492.163,114.78 492.931,113.793C493.699,112.807 494.705,112.314 495.949,112.314C497.186,112.314 498.166,112.737 498.888,113.583L498.888,108.075L500.695,108.075L500.695,123.075L499.035,123.075L498.947,121.943C498.224,122.828 497.218,123.271 495.929,123.271C494.705,123.271 493.708,122.769 492.936,121.767C492.165,120.764 491.779,119.456 491.779,117.841L491.779,117.704ZM493.586,117.909C493.586,119.107 493.833,120.045 494.328,120.722C494.822,121.399 495.506,121.738 496.378,121.738C497.524,121.738 498.361,121.223 498.888,120.195L498.888,115.341C498.348,114.345 497.518,113.847 496.398,113.847C495.513,113.847 494.822,114.189 494.328,114.872C493.833,115.556 493.586,116.568 493.586,117.909Z" style="fill:rgb(19,39,76);fill-rule:nonzero;"/>
            <path d="M510.021,122.031C509.318,122.857 508.286,123.271 506.925,123.271C505.799,123.271 504.941,122.944 504.352,122.289C503.763,121.635 503.465,120.667 503.459,119.384L503.459,112.509L505.265,112.509L505.265,119.335C505.265,120.937 505.916,121.738 507.218,121.738C508.599,121.738 509.517,121.223 509.972,120.195L509.972,112.509L511.779,112.509L511.779,123.075L510.06,123.075L510.021,122.031Z" style="fill:rgb(19,39,76);fill-rule:nonzero;"/>
            <path d="M518.761,121.796C519.406,121.796 519.969,121.601 520.451,121.21C520.933,120.82 521.199,120.331 521.252,119.745L522.961,119.745C522.928,120.351 522.72,120.927 522.336,121.474C521.951,122.021 521.439,122.457 520.797,122.783C520.156,123.108 519.477,123.271 518.761,123.271C517.322,123.271 516.178,122.791 515.329,121.83C514.479,120.87 514.054,119.557 514.054,117.89L514.054,117.587C514.054,116.559 514.243,115.644 514.621,114.843C514.998,114.042 515.54,113.421 516.247,112.978C516.953,112.535 517.788,112.314 518.752,112.314C519.936,112.314 520.921,112.669 521.706,113.378C522.49,114.088 522.908,115.009 522.961,116.142L521.252,116.142C521.199,115.458 520.941,114.897 520.475,114.457C520.01,114.018 519.435,113.798 518.752,113.798C517.834,113.798 517.122,114.129 516.618,114.789C516.113,115.45 515.861,116.406 515.861,117.656L515.861,117.997C515.861,119.215 516.112,120.152 516.613,120.81C517.114,121.467 517.83,121.796 518.761,121.796Z" style="fill:rgb(19,39,76);fill-rule:nonzero;"/>
            <path d="M529.377,123.271C527.944,123.271 526.779,122.8 525.88,121.86C524.982,120.919 524.533,119.661 524.533,118.085L524.533,117.753C524.533,116.705 524.733,115.769 525.133,114.946C525.534,114.122 526.094,113.477 526.813,113.012C527.532,112.546 528.312,112.314 529.152,112.314C530.526,112.314 531.593,112.766 532.355,113.671C533.117,114.576 533.498,115.872 533.498,117.558L533.498,118.31L526.339,118.31C526.365,119.352 526.67,120.193 527.253,120.834C527.835,121.476 528.576,121.796 529.474,121.796C530.112,121.796 530.653,121.666 531.095,121.406C531.538,121.145 531.925,120.8 532.257,120.37L533.361,121.23C532.475,122.59 531.147,123.271 529.377,123.271ZM529.152,113.798C528.423,113.798 527.811,114.063 527.316,114.594C526.821,115.125 526.515,115.868 526.398,116.825L531.691,116.825L531.691,116.689C531.639,115.771 531.392,115.06 530.949,114.555C530.506,114.05 529.907,113.798 529.152,113.798Z" style="fill:rgb(19,39,76);fill-rule:nonzero;"/>
            <path d="M537.707,119.055C537.72,118.282 537.808,117.671 537.97,117.222C538.133,116.774 538.465,116.276 538.966,115.73L540.246,114.414C540.793,113.797 541.066,113.134 541.066,112.426C541.066,111.744 540.887,111.21 540.529,110.823C540.171,110.437 539.65,110.243 538.966,110.243C538.302,110.243 537.768,110.419 537.365,110.771C536.961,111.122 536.759,111.594 536.759,112.187L534.953,112.187C534.966,111.132 535.342,110.281 536.081,109.633C536.82,108.985 537.781,108.661 538.966,108.661C540.197,108.661 541.156,108.991 541.842,109.651C542.529,110.311 542.873,111.216 542.873,112.367C542.873,113.504 542.345,114.625 541.291,115.73L540.226,116.783C539.751,117.31 539.513,118.067 539.513,119.055L537.707,119.055ZM537.628,122.158C537.628,121.862 537.718,121.614 537.897,121.413C538.076,121.213 538.341,121.113 538.693,121.113C539.045,121.113 539.311,121.213 539.494,121.413C539.676,121.614 539.767,121.862 539.767,122.158C539.767,122.453 539.676,122.698 539.494,122.892C539.311,123.086 539.045,123.183 538.693,123.183C538.341,123.183 538.076,123.086 537.897,122.892C537.718,122.698 537.628,122.453 537.628,122.158Z" style="fill:rgb(19,39,76);fill-rule:nonzero;"/>
        </g>
        <g transform="matrix(1,0,0,1,-40.7572,-59.5031)">
            <path d="M157.706,130.766L156.4,130.766L156.4,142.196L157.706,142.196L157.706,143.235L155.129,143.235L155.129,129.727L157.706,129.727L157.706,130.766Z" style="fill:rgb(19,39,76);fill-rule:nonzero;"/>
            <path d="M167.304,140.993L164.843,138.477L162.327,140.993L159.866,138.532L162.327,136.016L159.921,133.61L162.382,131.149L164.843,133.555L167.249,131.149L169.71,133.61L167.304,136.016L169.765,138.532L167.304,140.993Z" style="fill:rgb(19,39,76);fill-rule:nonzero;"/>
            <path d="M171.904,129.727L174.488,129.727L174.488,143.235L171.904,143.235L171.904,142.196L173.224,142.196L173.224,130.766L171.904,130.766L171.904,129.727Z" style="fill:rgb(19,39,76);fill-rule:nonzero;"/>
            <path d="M180.176,141.102L180.176,131.149L183.43,131.149C184.51,131.149 185.322,131.372 185.867,131.819C186.411,132.266 186.684,132.926 186.684,133.801C186.684,134.266 186.551,134.678 186.287,135.035C186.023,135.393 185.663,135.67 185.207,135.866C185.745,136.016 186.17,136.302 186.482,136.724C186.794,137.145 186.95,137.648 186.95,138.231C186.95,139.124 186.661,139.826 186.082,140.337C185.503,140.847 184.685,141.102 183.628,141.102L180.176,141.102ZM181.488,136.447L181.488,140.029L183.655,140.029C184.266,140.029 184.748,139.871 185.101,139.554C185.454,139.237 185.631,138.801 185.631,138.245C185.631,137.046 184.979,136.447 183.676,136.447L181.488,136.447ZM181.488,135.394L183.471,135.394C184.045,135.394 184.504,135.25 184.848,134.963C185.192,134.675 185.364,134.284 185.364,133.791C185.364,133.243 185.205,132.845 184.886,132.596C184.567,132.347 184.081,132.222 183.43,132.222L181.488,132.222L181.488,135.394Z" style="fill:rgb(19,39,76);fill-rule:nonzero;"/>
            <path d="M193.26,140.371C192.768,140.95 192.045,141.239 191.093,141.239C190.304,141.239 189.704,141.01 189.291,140.552C188.879,140.094 188.671,139.416 188.666,138.518L188.666,133.706L189.931,133.706L189.931,138.484C189.931,139.605 190.386,140.166 191.298,140.166C192.264,140.166 192.907,139.806 193.226,139.086L193.226,133.706L194.49,133.706L194.49,141.102L193.287,141.102L193.26,140.371Z" style="fill:rgb(19,39,76);fill-rule:nonzero;"/>
            <path d="M196.11,137.342C196.11,136.189 196.377,135.272 196.91,134.591C197.443,133.91 198.15,133.569 199.029,133.569C199.932,133.569 200.636,133.888 201.142,134.526L201.203,133.706L202.358,133.706L202.358,140.924C202.358,141.881 202.075,142.636 201.507,143.187C200.94,143.739 200.178,144.014 199.221,144.014C198.687,144.014 198.166,143.9 197.655,143.673C197.145,143.445 196.755,143.132 196.486,142.736L197.143,141.977C197.685,142.647 198.348,142.982 199.132,142.982C199.747,142.982 200.227,142.809 200.571,142.463C200.915,142.116 201.087,141.629 201.087,141L201.087,140.364C200.581,140.947 199.891,141.239 199.016,141.239C198.15,141.239 197.449,140.89 196.914,140.193C196.378,139.496 196.11,138.546 196.11,137.342ZM197.382,137.486C197.382,138.32 197.553,138.975 197.894,139.451C198.236,139.928 198.715,140.166 199.33,140.166C200.128,140.166 200.713,139.803 201.087,139.079L201.087,135.702C200.699,134.995 200.118,134.642 199.344,134.642C198.728,134.642 198.248,134.881 197.901,135.36C197.555,135.839 197.382,136.547 197.382,137.486Z" style="fill:rgb(19,39,76);fill-rule:nonzero;"/>
            <path d="M213.419,136.707L209.242,136.707L209.242,141.102L207.93,141.102L207.93,131.149L214.096,131.149L214.096,132.222L209.242,132.222L209.242,135.633L213.419,135.633L213.419,136.707Z" style="fill:rgb(19,39,76);fill-rule:nonzero;"/>
            <path d="M216.844,141.102L215.579,141.102L215.579,133.706L216.844,133.706L216.844,141.102ZM215.476,131.744C215.476,131.539 215.539,131.366 215.664,131.224C215.79,131.083 215.976,131.012 216.222,131.012C216.468,131.012 216.655,131.083 216.782,131.224C216.91,131.366 216.974,131.539 216.974,131.744C216.974,131.949 216.91,132.12 216.782,132.256C216.655,132.393 216.468,132.462 216.222,132.462C215.976,132.462 215.79,132.393 215.664,132.256C215.539,132.12 215.476,131.949 215.476,131.744Z" style="fill:rgb(19,39,76);fill-rule:nonzero;"/>
            <path d="M221.349,136.406L222.989,133.706L224.466,133.706L222.046,137.363L224.541,141.102L223.078,141.102L221.369,138.334L219.66,141.102L218.19,141.102L220.685,137.363L218.266,133.706L219.728,133.706L221.349,136.406Z" style="fill:rgb(19,39,76);fill-rule:nonzero;"/>
        </g>
        <g transform="matrix(1,0,0,1,-40.7572,-20.8158)">
            <path d="M157.706,130.766L156.4,130.766L156.4,142.196L157.706,142.196L157.706,143.235L155.129,143.235L155.129,129.727L157.706,129.727L157.706,130.766Z" style="fill:rgb(19,39,76);fill-rule:nonzero;"/>
            <path d="M159.429,136.016C159.465,135.87 159.556,135.67 159.702,135.415C159.884,135.159 160.048,134.941 160.194,134.758C160.559,134.467 160.905,134.321 161.233,134.321C161.707,134.321 161.944,134.54 161.944,134.977C162.017,135.561 162.145,136.235 162.327,137.001C162.436,137.365 162.601,137.548 162.819,137.548C162.965,137.548 163.093,137.456 163.202,137.274C163.676,136.837 164.168,136.363 164.679,135.852C165.481,135.087 166.028,134.521 166.319,134.157C166.684,133.719 167.176,133.209 167.796,132.626C168.416,132.079 168.89,131.696 169.218,131.477C169.509,131.295 169.765,131.222 169.983,131.258C170.202,131.295 170.293,131.459 170.257,131.751C170.22,132.042 170.22,132.334 170.257,132.626C170.293,132.844 170.293,132.972 170.257,133.008C169.528,133.883 168.944,134.521 168.507,134.923C167.449,136.162 166.739,136.928 166.374,137.219C164.989,138.568 163.785,139.735 162.765,140.719C162.4,141.048 162.054,141.23 161.726,141.266C161.288,141.303 160.869,141.139 160.468,140.774C159.994,140.373 159.739,139.899 159.702,139.352C159.666,138.732 159.611,138.277 159.538,137.985C159.429,137.475 159.392,136.818 159.429,136.016Z" style="fill:rgb(19,39,76);fill-rule:nonzero;"/>
            <path d="M171.904,129.727L174.488,129.727L174.488,143.235L171.904,143.235L171.904,142.196L173.224,142.196L173.224,130.766L171.904,130.766L171.904,129.727Z" style="fill:rgb(19,39,76);fill-rule:nonzero;"/>
            <path d="M187.497,137.944C187.374,138.997 186.985,139.809 186.331,140.381C185.677,140.953 184.808,141.239 183.724,141.239C182.548,141.239 181.606,140.817 180.897,139.974C180.188,139.131 179.834,138.003 179.834,136.59L179.834,135.633C179.834,134.708 179.999,133.895 180.33,133.193C180.66,132.491 181.128,131.952 181.734,131.576C182.34,131.2 183.042,131.012 183.84,131.012C184.897,131.012 185.745,131.307 186.383,131.898C187.021,132.488 187.392,133.305 187.497,134.348L186.178,134.348C186.064,133.553 185.816,132.977 185.436,132.62C185.055,132.264 184.523,132.086 183.84,132.086C183.001,132.086 182.344,132.396 181.868,133.016C181.391,133.636 181.153,134.519 181.153,135.664L181.153,136.628C181.153,137.71 181.379,138.569 181.83,139.208C182.281,139.846 182.912,140.166 183.724,140.166C184.453,140.166 185.012,140 185.402,139.67C185.791,139.34 186.05,138.764 186.178,137.944L187.497,137.944Z" style="fill:rgb(19,39,76);fill-rule:nonzero;"/>
            <path d="M188.755,137.336C188.755,136.611 188.897,135.959 189.182,135.381C189.467,134.802 189.863,134.355 190.372,134.041C190.88,133.726 191.46,133.569 192.111,133.569C193.118,133.569 193.933,133.918 194.555,134.615C195.177,135.312 195.488,136.24 195.488,137.397L195.488,137.486C195.488,138.206 195.35,138.852 195.075,139.424C194.799,139.996 194.405,140.441 193.892,140.76C193.379,141.079 192.79,141.239 192.125,141.239C191.122,141.239 190.31,140.89 189.688,140.193C189.066,139.496 188.755,138.573 188.755,137.424L188.755,137.336ZM190.026,137.486C190.026,138.306 190.217,138.965 190.597,139.462C190.978,139.958 191.487,140.207 192.125,140.207C192.768,140.207 193.278,139.955 193.656,139.451C194.034,138.948 194.224,138.242 194.224,137.336C194.224,136.524 194.031,135.867 193.646,135.363C193.261,134.86 192.749,134.608 192.111,134.608C191.487,134.608 190.983,134.856 190.601,135.353C190.218,135.85 190.026,136.561 190.026,137.486Z" style="fill:rgb(19,39,76);fill-rule:nonzero;"/>
            <path d="M196.767,137.342C196.767,136.208 197.035,135.295 197.573,134.605C198.111,133.914 198.815,133.569 199.685,133.569C200.551,133.569 201.237,133.865 201.743,134.458L201.743,130.602L203.008,130.602L203.008,141.102L201.846,141.102L201.784,140.309C201.278,140.929 200.574,141.239 199.672,141.239C198.815,141.239 198.117,140.888 197.577,140.186C197.037,139.484 196.767,138.568 196.767,137.438L196.767,137.342ZM198.031,137.486C198.031,138.325 198.204,138.981 198.551,139.455C198.897,139.929 199.376,140.166 199.986,140.166C200.788,140.166 201.374,139.806 201.743,139.086L201.743,135.688C201.365,134.991 200.784,134.642 200,134.642C199.38,134.642 198.897,134.881 198.551,135.36C198.204,135.839 198.031,136.547 198.031,137.486Z" style="fill:rgb(19,39,76);fill-rule:nonzero;"/>
            <path d="M208.039,141.239C207.036,141.239 206.221,140.91 205.592,140.251C204.963,139.593 204.648,138.712 204.648,137.609L204.648,137.377C204.648,136.643 204.789,135.988 205.069,135.411C205.349,134.835 205.741,134.384 206.245,134.058C206.748,133.732 207.294,133.569 207.882,133.569C208.843,133.569 209.591,133.886 210.124,134.519C210.657,135.153 210.924,136.06 210.924,137.24L210.924,137.766L205.913,137.766C205.931,138.495 206.144,139.084 206.552,139.533C206.96,139.982 207.478,140.207 208.107,140.207C208.554,140.207 208.932,140.116 209.242,139.933C209.552,139.751 209.823,139.509 210.056,139.209L210.828,139.81C210.208,140.763 209.279,141.239 208.039,141.239ZM207.882,134.608C207.371,134.608 206.943,134.794 206.597,135.165C206.25,135.537 206.036,136.057 205.954,136.727L209.659,136.727L209.659,136.631C209.623,135.989 209.449,135.491 209.14,135.138C208.83,134.785 208.41,134.608 207.882,134.608Z" style="fill:rgb(19,39,76);fill-rule:nonzero;"/>
            <path d="M218.983,136.666C217.858,136.342 217.039,135.944 216.526,135.473C216.013,135.001 215.757,134.419 215.757,133.726C215.757,132.942 216.07,132.294 216.697,131.781C217.323,131.269 218.138,131.012 219.141,131.012C219.824,131.012 220.434,131.145 220.969,131.409C221.505,131.673 221.919,132.038 222.213,132.503C222.507,132.967 222.654,133.476 222.654,134.027L221.335,134.027C221.335,133.423 221.143,132.949 220.761,132.604C220.378,132.258 219.838,132.086 219.141,132.086C218.493,132.086 217.989,132.228 217.626,132.514C217.264,132.799 217.083,133.195 217.083,133.702C217.083,134.108 217.255,134.452 217.599,134.732C217.943,135.013 218.529,135.27 219.356,135.503C220.183,135.736 220.83,135.992 221.297,136.273C221.764,136.553 222.111,136.88 222.336,137.254C222.562,137.627 222.675,138.067 222.675,138.573C222.675,139.38 222.36,140.026 221.731,140.511C221.102,140.996 220.262,141.239 219.209,141.239C218.525,141.239 217.887,141.108 217.295,140.846C216.702,140.584 216.246,140.225 215.924,139.769C215.603,139.313 215.442,138.796 215.442,138.217L216.762,138.217C216.762,138.819 216.984,139.294 217.428,139.643C217.872,139.991 218.466,140.166 219.209,140.166C219.902,140.166 220.433,140.024 220.802,139.742C221.171,139.459 221.355,139.074 221.355,138.587C221.355,138.099 221.184,137.722 220.843,137.455C220.501,137.189 219.881,136.925 218.983,136.666Z" style="fill:rgb(19,39,76);fill-rule:nonzero;"/>
            <path d="M225.874,131.915L225.874,133.706L227.255,133.706L227.255,134.683L225.874,134.683L225.874,139.276C225.874,139.573 225.935,139.795 226.059,139.943C226.182,140.092 226.391,140.166 226.687,140.166C226.833,140.166 227.034,140.138 227.289,140.084L227.289,141.103C226.956,141.194 226.633,141.239 226.318,141.239C225.753,141.239 225.327,141.068 225.04,140.726C224.753,140.384 224.609,139.899 224.609,139.27L224.609,134.683L223.263,134.683L223.263,133.706L224.609,133.706L224.609,131.915L225.874,131.915Z" style="fill:rgb(19,39,76);fill-rule:nonzero;"/>
            <path d="M231.151,139.25L232.874,133.706L234.227,133.706L231.254,142.244C230.794,143.474 230.062,144.089 229.059,144.089L228.82,144.069L228.349,143.98L228.349,142.955L228.69,142.982C229.119,142.982 229.453,142.895 229.692,142.722C229.931,142.549 230.128,142.232 230.283,141.772L230.563,141.02L227.925,133.706L229.306,133.706L231.151,139.25Z" style="fill:rgb(19,39,76);fill-rule:nonzero;"/>
            <rect x="235.465" y="130.602" width="1.265" height="10.5" style="fill:rgb(19,39,76);fill-rule:nonzero;"/>
            <path d="M241.822,141.239C240.82,141.239 240.004,140.91 239.375,140.251C238.746,139.593 238.432,138.712 238.432,137.609L238.432,137.377C238.432,136.643 238.572,135.988 238.852,135.411C239.132,134.835 239.524,134.384 240.028,134.058C240.531,133.732 241.077,133.569 241.665,133.569C242.627,133.569 243.374,133.886 243.907,134.519C244.44,135.153 244.707,136.06 244.707,137.24L244.707,137.766L239.696,137.766C239.714,138.495 239.927,139.084 240.335,139.533C240.743,139.982 241.262,140.207 241.891,140.207C242.337,140.207 242.715,140.116 243.025,139.933C243.335,139.751 243.606,139.509 243.839,139.209L244.611,139.81C243.991,140.763 243.062,141.239 241.822,141.239ZM241.665,134.608C241.155,134.608 240.726,134.794 240.38,135.165C240.033,135.537 239.819,136.057 239.737,136.727L243.442,136.727L243.442,136.631C243.406,135.989 243.233,135.491 242.923,135.138C242.613,134.785 242.194,134.608 241.665,134.608Z" style="fill:rgb(19,39,76);fill-rule:nonzero;"/>
            <path d="M256.841,131.149L256.841,137.917C256.836,138.855 256.541,139.623 255.955,140.22C255.37,140.817 254.576,141.152 253.573,141.225L253.225,141.239C252.135,141.239 251.267,140.945 250.62,140.357C249.973,139.769 249.645,138.96 249.636,137.93L249.636,131.149L250.934,131.149L250.934,137.889C250.934,138.609 251.133,139.169 251.529,139.568C251.926,139.966 252.491,140.166 253.225,140.166C253.967,140.166 254.536,139.967 254.93,139.571C255.324,139.174 255.521,138.616 255.521,137.896L255.521,131.149L256.841,131.149Z" style="fill:rgb(19,39,76);fill-rule:nonzero;"/>
            <path d="M264.962,137.486C264.962,138.612 264.704,139.519 264.189,140.207C263.674,140.895 262.977,141.239 262.098,141.239C261.2,141.239 260.493,140.954 259.978,140.384L259.978,143.946L258.714,143.946L258.714,133.706L259.869,133.706L259.931,134.526C260.446,133.888 261.161,133.569 262.077,133.569C262.966,133.569 263.669,133.904 264.186,134.574C264.703,135.244 264.962,136.176 264.962,137.37L264.962,137.486ZM263.697,137.342C263.697,136.508 263.519,135.85 263.164,135.367C262.809,134.884 262.321,134.642 261.701,134.642C260.935,134.642 260.361,134.982 259.978,135.661L259.978,139.195C260.357,139.869 260.935,140.207 261.715,140.207C262.321,140.207 262.803,139.966 263.161,139.485C263.518,139.005 263.697,138.29 263.697,137.342Z" style="fill:rgb(19,39,76);fill-rule:nonzero;"/>
            <path d="M266.261,137.342C266.261,136.208 266.53,135.295 267.067,134.605C267.605,133.914 268.309,133.569 269.18,133.569C270.046,133.569 270.731,133.865 271.237,134.458L271.237,130.602L272.502,130.602L272.502,141.102L271.34,141.102L271.278,140.309C270.772,140.929 270.068,141.239 269.166,141.239C268.309,141.239 267.611,140.888 267.071,140.186C266.531,139.484 266.261,138.568 266.261,137.438L266.261,137.342ZM267.525,137.486C267.525,138.325 267.698,138.981 268.045,139.455C268.391,139.929 268.87,140.166 269.48,140.166C270.282,140.166 270.868,139.806 271.237,139.086L271.237,135.688C270.859,134.991 270.278,134.642 269.494,134.642C268.874,134.642 268.391,134.881 268.045,135.36C267.698,135.839 267.525,136.547 267.525,137.486Z" style="fill:rgb(19,39,76);fill-rule:nonzero;"/>
            <path d="M279.03,141.102C278.957,140.956 278.898,140.697 278.852,140.323C278.265,140.934 277.563,141.239 276.747,141.239C276.018,141.239 275.42,141.033 274.953,140.62C274.485,140.208 274.252,139.685 274.252,139.051C274.252,138.281 274.545,137.683 275.13,137.257C275.716,136.831 276.54,136.618 277.601,136.618L278.832,136.618L278.832,136.037C278.832,135.595 278.7,135.243 278.435,134.981C278.171,134.719 277.782,134.588 277.267,134.588C276.815,134.588 276.437,134.701 276.132,134.929C275.826,135.157 275.674,135.433 275.674,135.756L274.402,135.756C274.402,135.387 274.533,135.031 274.795,134.687C275.057,134.343 275.413,134.07 275.862,133.87C276.311,133.669 276.804,133.569 277.342,133.569C278.194,133.569 278.862,133.782 279.345,134.208C279.828,134.634 280.078,135.221 280.097,135.968L280.097,139.373C280.097,140.052 280.183,140.592 280.356,140.993L280.356,141.102L279.03,141.102ZM276.932,140.138C277.328,140.138 277.704,140.036 278.059,139.831C278.415,139.626 278.672,139.359 278.832,139.031L278.832,137.513L277.841,137.513C276.291,137.513 275.517,137.967 275.517,138.874C275.517,139.27 275.649,139.58 275.913,139.803C276.177,140.027 276.517,140.138 276.932,140.138Z" style="fill:rgb(19,39,76);fill-rule:nonzero;"/>
            <path d="M283.795,131.915L283.795,133.706L285.176,133.706L285.176,134.683L283.795,134.683L283.795,139.276C283.795,139.573 283.856,139.795 283.979,139.943C284.102,140.092 284.312,140.166 284.608,140.166C284.754,140.166 284.955,140.138 285.21,140.084L285.21,141.103C284.877,141.194 284.554,141.239 284.239,141.239C283.674,141.239 283.248,141.068 282.961,140.726C282.674,140.384 282.53,139.899 282.53,139.27L282.53,134.683L281.184,134.683L281.184,133.706L282.53,133.706L282.53,131.915L283.795,131.915Z" style="fill:rgb(19,39,76);fill-rule:nonzero;"/>
            <path d="M289.722,141.239C288.719,141.239 287.903,140.91 287.274,140.251C286.645,139.593 286.331,138.712 286.331,137.609L286.331,137.377C286.331,136.643 286.471,135.988 286.751,135.411C287.032,134.835 287.424,134.384 287.927,134.058C288.431,133.732 288.976,133.569 289.564,133.569C290.526,133.569 291.273,133.886 291.807,134.519C292.34,135.153 292.606,136.06 292.606,137.24L292.606,137.766L287.596,137.766C287.614,138.495 287.827,139.084 288.235,139.533C288.643,139.982 289.161,140.207 289.79,140.207C290.237,140.207 290.615,140.116 290.925,139.933C291.235,139.751 291.506,139.509 291.738,139.209L292.511,139.81C291.891,140.763 290.961,141.239 289.722,141.239ZM289.564,134.608C289.054,134.608 288.626,134.794 288.279,135.165C287.933,135.537 287.719,136.057 287.637,136.727L291.342,136.727L291.342,136.631C291.305,135.989 291.132,135.491 290.822,135.138C290.512,134.785 290.093,134.608 289.564,134.608Z" style="fill:rgb(19,39,76);fill-rule:nonzero;"/>
        </g>
        <g transform="matrix(1,0,0,1,-40.7572,-2.25698)">
            <path d="M157.706,130.766L156.4,130.766L156.4,142.196L157.706,142.196L157.706,143.235L155.129,143.235L155.129,129.727L157.706,129.727L157.706,130.766Z" style="fill:rgb(19,39,76);fill-rule:nonzero;"/>
            <path d="M167.304,140.993L164.843,138.477L162.327,140.993L159.866,138.532L162.327,136.016L159.921,133.61L162.382,131.149L164.843,133.555L167.249,131.149L169.71,133.61L167.304,136.016L169.765,138.532L167.304,140.993Z" style="fill:rgb(19,39,76);fill-rule:nonzero;"/>
            <path d="M171.904,129.727L174.488,129.727L174.488,143.235L171.904,143.235L171.904,142.196L173.224,142.196L173.224,130.766L171.904,130.766L171.904,129.727Z" style="fill:rgb(19,39,76);fill-rule:nonzero;"/>
            <path d="M183.826,137.076L181.488,137.076L181.488,141.102L180.169,141.102L180.169,131.149L183.464,131.149C184.585,131.149 185.447,131.404 186.051,131.915C186.655,132.425 186.957,133.168 186.957,134.143C186.957,134.763 186.789,135.303 186.455,135.763C186.12,136.224 185.654,136.568 185.057,136.796L187.394,141.02L187.394,141.102L185.986,141.102L183.826,137.076ZM181.488,136.003L183.505,136.003C184.157,136.003 184.675,135.834 185.06,135.496C185.445,135.158 185.638,134.706 185.638,134.14C185.638,133.523 185.454,133.051 185.087,132.722C184.72,132.394 184.191,132.227 183.498,132.222L181.488,132.222L181.488,136.003Z" style="fill:rgb(19,39,76);fill-rule:nonzero;"/>
            <path d="M191.667,141.239C190.664,141.239 189.849,140.91 189.22,140.251C188.591,139.593 188.276,138.712 188.276,137.609L188.276,137.377C188.276,136.643 188.416,135.988 188.697,135.411C188.977,134.835 189.369,134.384 189.872,134.058C190.376,133.732 190.922,133.569 191.51,133.569C192.471,133.569 193.219,133.886 193.752,134.519C194.285,135.153 194.552,136.06 194.552,137.24L194.552,137.766L189.541,137.766C189.559,138.495 189.772,139.084 190.18,139.533C190.588,139.982 191.106,140.207 191.735,140.207C192.182,140.207 192.56,140.116 192.87,139.933C193.18,139.751 193.451,139.509 193.684,139.209L194.456,139.81C193.836,140.763 192.907,141.239 191.667,141.239ZM191.51,134.608C190.999,134.608 190.571,134.794 190.225,135.165C189.878,135.537 189.664,136.057 189.582,136.727L193.287,136.727L193.287,136.631C193.251,135.989 193.077,135.491 192.768,135.138C192.458,134.785 192.038,134.608 191.51,134.608Z" style="fill:rgb(19,39,76);fill-rule:nonzero;"/>
            <path d="M196.637,141.102L196.637,134.683L195.468,134.683L195.468,133.706L196.637,133.706L196.637,132.947C196.637,132.154 196.849,131.541 197.272,131.108C197.696,130.675 198.296,130.459 199.07,130.459C199.362,130.459 199.651,130.497 199.938,130.574L199.87,131.593C199.656,131.552 199.428,131.532 199.186,131.532C198.776,131.532 198.46,131.652 198.236,131.892C198.013,132.132 197.901,132.476 197.901,132.924L197.901,133.706L199.48,133.706L199.48,134.683L197.901,134.683L197.901,141.102L196.637,141.102Z" style="fill:rgb(19,39,76);fill-rule:nonzero;"/>
            <path d="M205.441,141.102C205.368,140.956 205.309,140.697 205.264,140.323C204.676,140.934 203.974,141.239 203.158,141.239C202.429,141.239 201.831,141.033 201.364,140.62C200.897,140.208 200.663,139.685 200.663,139.051C200.663,138.281 200.956,137.683 201.541,137.257C202.127,136.831 202.951,136.618 204.013,136.618L205.243,136.618L205.243,136.037C205.243,135.595 205.111,135.243 204.847,134.981C204.582,134.719 204.193,134.588 203.678,134.588C203.226,134.588 202.848,134.701 202.543,134.929C202.238,135.157 202.085,135.433 202.085,135.756L200.813,135.756C200.813,135.387 200.944,135.031 201.206,134.687C201.469,134.343 201.824,134.07 202.273,133.87C202.722,133.669 203.215,133.569 203.753,133.569C204.605,133.569 205.273,133.782 205.756,134.208C206.239,134.634 206.49,135.221 206.508,135.968L206.508,139.373C206.508,140.052 206.594,140.592 206.768,140.993L206.768,141.102L205.441,141.102ZM203.343,140.138C203.739,140.138 204.115,140.036 204.471,139.831C204.826,139.626 205.084,139.359 205.243,139.031L205.243,137.513L204.252,137.513C202.702,137.513 201.928,137.967 201.928,138.874C201.928,139.27 202.06,139.58 202.324,139.803C202.588,140.027 202.928,140.138 203.343,140.138Z" style="fill:rgb(19,39,76);fill-rule:nonzero;"/>
            <path d="M211.457,140.207C211.908,140.207 212.302,140.07 212.64,139.797C212.977,139.523 213.164,139.181 213.2,138.771L214.396,138.771C214.374,139.195 214.228,139.598 213.959,139.981C213.69,140.364 213.331,140.669 212.882,140.897C212.433,141.125 211.958,141.239 211.457,141.239C210.45,141.239 209.649,140.903 209.054,140.231C208.459,139.558 208.162,138.639 208.162,137.472L208.162,137.26C208.162,136.54 208.294,135.9 208.559,135.339C208.823,134.779 209.202,134.344 209.697,134.034C210.191,133.724 210.776,133.569 211.45,133.569C212.28,133.569 212.969,133.817 213.518,134.314C214.067,134.811 214.36,135.456 214.396,136.249L213.2,136.249C213.164,135.77 212.983,135.377 212.657,135.069C212.331,134.762 211.929,134.608 211.45,134.608C210.808,134.608 210.31,134.839 209.956,135.302C209.603,135.764 209.427,136.433 209.427,137.308L209.427,137.548C209.427,138.4 209.602,139.056 209.953,139.516C210.304,139.977 210.805,140.207 211.457,140.207Z" style="fill:rgb(19,39,76);fill-rule:nonzero;"/>
            <path d="M217.534,131.915L217.534,133.706L218.915,133.706L218.915,134.683L217.534,134.683L217.534,139.276C217.534,139.573 217.596,139.795 217.719,139.943C217.842,140.092 218.051,140.166 218.348,140.166C218.493,140.166 218.694,140.138 218.949,140.084L218.949,141.103C218.616,141.194 218.293,141.239 217.978,141.239C217.413,141.239 216.987,141.068 216.7,140.726C216.413,140.384 216.269,139.899 216.269,139.27L216.269,134.683L214.923,134.683L214.923,133.706L216.269,133.706L216.269,131.915L217.534,131.915Z" style="fill:rgb(19,39,76);fill-rule:nonzero;"/>
            <path d="M219.92,137.336C219.92,136.611 220.062,135.959 220.347,135.381C220.632,134.802 221.028,134.355 221.537,134.041C222.045,133.726 222.625,133.569 223.276,133.569C224.283,133.569 225.098,133.918 225.72,134.615C226.342,135.312 226.653,136.24 226.653,137.397L226.653,137.486C226.653,138.206 226.515,138.852 226.24,139.424C225.964,139.996 225.57,140.441 225.057,140.76C224.544,141.079 223.955,141.239 223.29,141.239C222.287,141.239 221.475,140.89 220.853,140.193C220.231,139.496 219.92,138.573 219.92,137.424L219.92,137.336ZM221.191,137.486C221.191,138.306 221.382,138.965 221.762,139.462C222.143,139.958 222.652,140.207 223.29,140.207C223.933,140.207 224.443,139.955 224.821,139.451C225.199,138.948 225.389,138.242 225.389,137.336C225.389,136.524 225.196,135.867 224.811,135.363C224.426,134.86 223.914,134.608 223.276,134.608C222.652,134.608 222.148,134.856 221.766,135.353C221.383,135.85 221.191,136.561 221.191,137.486Z" style="fill:rgb(19,39,76);fill-rule:nonzero;"/>
            <path d="M231.814,134.84C231.623,134.809 231.416,134.793 231.192,134.793C230.363,134.793 229.8,135.146 229.504,135.852L229.504,141.102L228.239,141.102L228.239,133.706L229.47,133.706L229.49,134.56C229.905,133.899 230.493,133.569 231.254,133.569C231.5,133.569 231.687,133.601 231.814,133.665L231.814,134.84Z" style="fill:rgb(19,39,76);fill-rule:nonzero;"/>
        </g>
        <g transform="matrix(1,0,0,1,-40.7572,16.6786)">
            <path d="M157.706,130.766L156.4,130.766L156.4,142.196L157.706,142.196L157.706,143.235L155.129,143.235L155.129,129.727L157.706,129.727L157.706,130.766Z" style="fill:rgb(19,39,76);fill-rule:nonzero;"/>
            <path d="M159.429,136.016C159.465,135.87 159.556,135.67 159.702,135.415C159.884,135.159 160.048,134.941 160.194,134.758C160.559,134.467 160.905,134.321 161.233,134.321C161.707,134.321 161.944,134.54 161.944,134.977C162.017,135.561 162.145,136.235 162.327,137.001C162.436,137.365 162.601,137.548 162.819,137.548C162.965,137.548 163.093,137.456 163.202,137.274C163.676,136.837 164.168,136.363 164.679,135.852C165.481,135.087 166.028,134.521 166.319,134.157C166.684,133.719 167.176,133.209 167.796,132.626C168.416,132.079 168.89,131.696 169.218,131.477C169.509,131.295 169.765,131.222 169.983,131.258C170.202,131.295 170.293,131.459 170.257,131.751C170.22,132.042 170.22,132.334 170.257,132.626C170.293,132.844 170.293,132.972 170.257,133.008C169.528,133.883 168.944,134.521 168.507,134.923C167.449,136.162 166.739,136.928 166.374,137.219C164.989,138.568 163.785,139.735 162.765,140.719C162.4,141.048 162.054,141.23 161.726,141.266C161.288,141.303 160.869,141.139 160.468,140.774C159.994,140.373 159.739,139.899 159.702,139.352C159.666,138.732 159.611,138.277 159.538,137.985C159.429,137.475 159.392,136.818 159.429,136.016Z" style="fill:rgb(19,39,76);fill-rule:nonzero;"/>
            <path d="M171.904,129.727L174.488,129.727L174.488,143.235L171.904,143.235L171.904,142.196L173.224,142.196L173.224,130.766L171.904,130.766L171.904,129.727Z" style="fill:rgb(19,39,76);fill-rule:nonzero;"/>
            <path d="M180.176,141.102L180.176,131.149L183.43,131.149C184.51,131.149 185.322,131.372 185.867,131.819C186.411,132.266 186.684,132.926 186.684,133.801C186.684,134.266 186.551,134.678 186.287,135.035C186.023,135.393 185.663,135.67 185.207,135.866C185.745,136.016 186.17,136.302 186.482,136.724C186.794,137.145 186.95,137.648 186.95,138.231C186.95,139.124 186.661,139.826 186.082,140.337C185.503,140.847 184.685,141.102 183.628,141.102L180.176,141.102ZM181.488,136.447L181.488,140.029L183.655,140.029C184.266,140.029 184.748,139.871 185.101,139.554C185.454,139.237 185.631,138.801 185.631,138.245C185.631,137.046 184.979,136.447 183.676,136.447L181.488,136.447ZM181.488,135.394L183.471,135.394C184.045,135.394 184.504,135.25 184.848,134.963C185.192,134.675 185.364,134.284 185.364,133.791C185.364,133.243 185.205,132.845 184.886,132.596C184.567,132.347 184.081,132.222 183.43,132.222L181.488,132.222L181.488,135.394Z" style="fill:rgb(19,39,76);fill-rule:nonzero;"/>
            <path d="M193.26,140.371C192.768,140.95 192.045,141.239 191.093,141.239C190.304,141.239 189.704,141.01 189.291,140.552C188.879,140.094 188.671,139.416 188.666,138.518L188.666,133.706L189.931,133.706L189.931,138.484C189.931,139.605 190.386,140.166 191.298,140.166C192.264,140.166 192.907,139.806 193.226,139.086L193.226,133.706L194.49,133.706L194.49,141.102L193.287,141.102L193.26,140.371Z" style="fill:rgb(19,39,76);fill-rule:nonzero;"/>
            <path d="M197.785,141.102L196.52,141.102L196.52,133.706L197.785,133.706L197.785,141.102ZM196.418,131.744C196.418,131.539 196.481,131.366 196.606,131.224C196.731,131.083 196.917,131.012 197.163,131.012C197.409,131.012 197.596,131.083 197.724,131.224C197.851,131.366 197.915,131.539 197.915,131.744C197.915,131.949 197.851,132.12 197.724,132.256C197.596,132.393 197.409,132.462 197.163,132.462C196.917,132.462 196.731,132.393 196.606,132.256C196.481,132.12 196.418,131.949 196.418,131.744Z" style="fill:rgb(19,39,76);fill-rule:nonzero;"/>
            <rect x="199.918" y="130.602" width="1.265" height="10.5" style="fill:rgb(19,39,76);fill-rule:nonzero;"/>
            <path d="M202.898,137.342C202.898,136.208 203.167,135.295 203.705,134.605C204.243,133.914 204.947,133.569 205.817,133.569C206.683,133.569 207.369,133.865 207.875,134.458L207.875,130.602L209.14,130.602L209.14,141.102L207.977,141.102L207.916,140.309C207.41,140.929 206.706,141.239 205.804,141.239C204.947,141.239 204.248,140.888 203.708,140.186C203.168,139.484 202.898,138.568 202.898,137.438L202.898,137.342ZM204.163,137.486C204.163,138.325 204.336,138.981 204.683,139.455C205.029,139.929 205.507,140.166 206.118,140.166C206.92,140.166 207.506,139.806 207.875,139.086L207.875,135.688C207.497,134.991 206.916,134.642 206.132,134.642C205.512,134.642 205.029,134.881 204.683,135.36C204.336,135.839 204.163,136.547 204.163,137.486Z" style="fill:rgb(19,39,76);fill-rule:nonzero;"/>
            <rect x="210.397" y="136.358" width="3.336" height="1.032" style="fill:rgb(19,39,76);fill-rule:nonzero;"/>
            <path d="M218.539,134.84C218.348,134.809 218.14,134.793 217.917,134.793C217.087,134.793 216.525,135.146 216.228,135.852L216.228,141.102L214.964,141.102L214.964,133.706L216.194,133.706L216.215,134.56C216.629,133.899 217.217,133.569 217.978,133.569C218.225,133.569 218.411,133.601 218.539,133.665L218.539,134.84Z" style="fill:rgb(19,39,76);fill-rule:nonzero;"/>
            <path d="M222.641,141.239C221.638,141.239 220.822,140.91 220.193,140.251C219.564,139.593 219.25,138.712 219.25,137.609L219.25,137.377C219.25,136.643 219.39,135.988 219.67,135.411C219.951,134.835 220.343,134.384 220.846,134.058C221.35,133.732 221.895,133.569 222.483,133.569C223.445,133.569 224.192,133.886 224.726,134.519C225.259,135.153 225.525,136.06 225.525,137.24L225.525,137.766L220.515,137.766C220.533,138.495 220.746,139.084 221.154,139.533C221.562,139.982 222.08,140.207 222.709,140.207C223.156,140.207 223.534,140.116 223.844,139.933C224.154,139.751 224.425,139.509 224.657,139.209L225.43,139.81C224.81,140.763 223.88,141.239 222.641,141.239ZM222.483,134.608C221.973,134.608 221.545,134.794 221.198,135.165C220.852,135.537 220.638,136.057 220.556,136.727L224.261,136.727L224.261,136.631C224.224,135.989 224.051,135.491 223.741,135.138C223.431,134.785 223.012,134.608 222.483,134.608Z" style="fill:rgb(19,39,76);fill-rule:nonzero;"/>
            <rect x="227.098" y="130.602" width="1.265" height="10.5" style="fill:rgb(19,39,76);fill-rule:nonzero;"/>
            <path d="M234.952,141.102C234.879,140.956 234.82,140.697 234.774,140.323C234.186,140.934 233.485,141.239 232.669,141.239C231.94,141.239 231.342,141.033 230.874,140.62C230.407,140.208 230.174,139.685 230.174,139.051C230.174,138.281 230.467,137.683 231.052,137.257C231.638,136.831 232.462,136.618 233.523,136.618L234.754,136.618L234.754,136.037C234.754,135.595 234.622,135.243 234.357,134.981C234.093,134.719 233.703,134.588 233.188,134.588C232.737,134.588 232.359,134.701 232.054,134.929C231.748,135.157 231.596,135.433 231.596,135.756L230.324,135.756C230.324,135.387 230.455,135.031 230.717,134.687C230.979,134.343 231.335,134.07 231.784,133.87C232.233,133.669 232.726,133.569 233.264,133.569C234.116,133.569 234.783,133.782 235.267,134.208C235.75,134.634 236,135.221 236.018,135.968L236.018,139.373C236.018,140.052 236.105,140.592 236.278,140.993L236.278,141.102L234.952,141.102ZM232.853,140.138C233.25,140.138 233.626,140.036 233.981,139.831C234.337,139.626 234.594,139.359 234.754,139.031L234.754,137.513L233.763,137.513C232.213,137.513 231.438,137.967 231.438,138.874C231.438,139.27 231.571,139.58 231.835,139.803C232.099,140.027 232.439,140.138 232.853,140.138Z" style="fill:rgb(19,39,76);fill-rule:nonzero;"/>
            <path d="M239.717,131.915L239.717,133.706L241.098,133.706L241.098,134.683L239.717,134.683L239.717,139.276C239.717,139.573 239.778,139.795 239.901,139.943C240.024,140.092 240.234,140.166 240.53,140.166C240.676,140.166 240.877,140.138 241.132,140.084L241.132,141.103C240.799,141.194 240.476,141.239 240.161,141.239C239.596,141.239 239.17,141.068 238.883,140.726C238.596,140.384 238.452,139.899 238.452,139.27L238.452,134.683L237.105,134.683L237.105,133.706L238.452,133.706L238.452,131.915L239.717,131.915Z" style="fill:rgb(19,39,76);fill-rule:nonzero;"/>
            <path d="M245.643,141.239C244.641,141.239 243.825,140.91 243.196,140.251C242.567,139.593 242.253,138.712 242.253,137.609L242.253,137.377C242.253,136.643 242.393,135.988 242.673,135.411C242.954,134.835 243.345,134.384 243.849,134.058C244.353,133.732 244.898,133.569 245.486,133.569C246.448,133.569 247.195,133.886 247.728,134.519C248.262,135.153 248.528,136.06 248.528,137.24L248.528,137.766L243.518,137.766C243.536,138.495 243.749,139.084 244.157,139.533C244.565,139.982 245.083,140.207 245.712,140.207C246.158,140.207 246.537,140.116 246.847,139.933C247.157,139.751 247.428,139.509 247.66,139.209L248.433,139.81C247.813,140.763 246.883,141.239 245.643,141.239ZM245.486,134.608C244.976,134.608 244.547,134.794 244.201,135.165C243.855,135.537 243.641,136.057 243.559,136.727L247.264,136.727L247.264,136.631C247.227,135.989 247.054,135.491 246.744,135.138C246.434,134.785 246.015,134.608 245.486,134.608Z" style="fill:rgb(19,39,76);fill-rule:nonzero;"/>
            <path d="M249.684,137.342C249.684,136.208 249.952,135.295 250.49,134.605C251.028,133.914 251.732,133.569 252.602,133.569C253.468,133.569 254.154,133.865 254.66,134.458L254.66,130.602L255.925,130.602L255.925,141.102L254.763,141.102L254.701,140.309C254.195,140.929 253.491,141.239 252.589,141.239C251.732,141.239 251.034,140.888 250.494,140.186C249.954,139.484 249.684,138.568 249.684,137.438L249.684,137.342ZM250.948,137.486C250.948,138.325 251.121,138.981 251.468,139.455C251.814,139.929 252.293,140.166 252.903,140.166C253.705,140.166 254.291,139.806 254.66,139.086L254.66,135.688C254.282,134.991 253.701,134.642 252.917,134.642C252.297,134.642 251.814,134.881 251.468,135.36C251.121,135.839 250.948,136.547 250.948,137.486Z" style="fill:rgb(19,39,76);fill-rule:nonzero;"/>
            <path d="M264.319,140.207C264.77,140.207 265.165,140.07 265.502,139.797C265.839,139.523 266.026,139.181 266.062,138.771L267.259,138.771C267.236,139.195 267.09,139.598 266.821,139.981C266.552,140.364 266.193,140.669 265.745,140.897C265.296,141.125 264.821,141.239 264.319,141.239C263.312,141.239 262.511,140.903 261.916,140.231C261.322,139.558 261.024,138.639 261.024,137.472L261.024,137.26C261.024,136.54 261.157,135.9 261.421,135.339C261.685,134.779 262.065,134.344 262.559,134.034C263.053,133.724 263.638,133.569 264.312,133.569C265.142,133.569 265.831,133.817 266.38,134.314C266.929,134.811 267.222,135.456 267.259,136.249L266.062,136.249C266.026,135.77 265.845,135.377 265.519,135.069C265.193,134.762 264.791,134.608 264.312,134.608C263.67,134.608 263.172,134.839 262.819,135.302C262.466,135.764 262.289,136.433 262.289,137.308L262.289,137.548C262.289,138.4 262.464,139.056 262.815,139.516C263.166,139.977 263.668,140.207 264.319,140.207Z" style="fill:rgb(19,39,76);fill-rule:nonzero;"/>
            <path d="M269.945,134.601C270.506,133.913 271.235,133.569 272.133,133.569C273.696,133.569 274.484,134.451 274.498,136.214L274.498,141.102L273.233,141.102L273.233,136.208C273.229,135.674 273.107,135.28 272.868,135.025C272.628,134.77 272.256,134.642 271.75,134.642C271.34,134.642 270.98,134.752 270.67,134.97C270.36,135.189 270.118,135.476 269.945,135.832L269.945,141.102L268.681,141.102L268.681,130.602L269.945,130.602L269.945,134.601Z" style="fill:rgb(19,39,76);fill-rule:nonzero;"/>
            <path d="M280.958,141.102C280.885,140.956 280.826,140.697 280.78,140.323C280.192,140.934 279.49,141.239 278.675,141.239C277.946,141.239 277.347,141.033 276.88,140.62C276.413,140.208 276.18,139.685 276.18,139.051C276.18,138.281 276.472,137.683 277.058,137.257C277.644,136.831 278.467,136.618 279.529,136.618L280.76,136.618L280.76,136.037C280.76,135.595 280.628,135.243 280.363,134.981C280.099,134.719 279.709,134.588 279.194,134.588C278.743,134.588 278.365,134.701 278.059,134.929C277.754,135.157 277.601,135.433 277.601,135.756L276.33,135.756C276.33,135.387 276.461,135.031 276.723,134.687C276.985,134.343 277.341,134.07 277.789,133.87C278.238,133.669 278.732,133.569 279.269,133.569C280.122,133.569 280.789,133.782 281.272,134.208C281.755,134.634 282.006,135.221 282.024,135.968L282.024,139.373C282.024,140.052 282.111,140.592 282.284,140.993L282.284,141.102L280.958,141.102ZM278.859,140.138C279.256,140.138 279.632,140.036 279.987,139.831C280.343,139.626 280.6,139.359 280.76,139.031L280.76,137.513L279.768,137.513C278.219,137.513 277.444,137.967 277.444,138.874C277.444,139.27 277.576,139.58 277.841,139.803C278.105,140.027 278.445,140.138 278.859,140.138Z" style="fill:rgb(19,39,76);fill-rule:nonzero;"/>
            <path d="M285.203,133.706L285.244,134.635C285.809,133.924 286.547,133.569 287.459,133.569C289.022,133.569 289.81,134.451 289.824,136.214L289.824,141.102L288.559,141.102L288.559,136.208C288.555,135.674 288.433,135.28 288.194,135.025C287.955,134.77 287.582,134.642 287.076,134.642C286.666,134.642 286.306,134.752 285.996,134.97C285.686,135.189 285.445,135.476 285.271,135.832L285.271,141.102L284.007,141.102L284.007,133.706L285.203,133.706Z" style="fill:rgb(19,39,76);fill-rule:nonzero;"/>
            <path d="M291.431,137.342C291.431,136.189 291.697,135.272 292.23,134.591C292.764,133.91 293.47,133.569 294.35,133.569C295.252,133.569 295.956,133.888 296.462,134.526L296.523,133.706L297.679,133.706L297.679,140.924C297.679,141.881 297.395,142.636 296.828,143.187C296.26,143.739 295.498,144.014 294.541,144.014C294.008,144.014 293.486,143.9 292.976,143.673C292.465,143.445 292.075,143.132 291.807,142.736L292.463,141.977C293.005,142.647 293.668,142.982 294.452,142.982C295.067,142.982 295.547,142.809 295.891,142.463C296.235,142.116 296.407,141.629 296.407,141L296.407,140.364C295.901,140.947 295.211,141.239 294.336,141.239C293.47,141.239 292.769,140.89 292.234,140.193C291.698,139.496 291.431,138.546 291.431,137.342ZM292.702,137.486C292.702,138.32 292.873,138.975 293.215,139.451C293.557,139.928 294.035,140.166 294.65,140.166C295.448,140.166 296.033,139.803 296.407,139.079L296.407,135.702C296.02,134.995 295.439,134.642 294.664,134.642C294.049,134.642 293.568,134.881 293.222,135.36C292.875,135.839 292.702,136.547 292.702,137.486Z" style="fill:rgb(19,39,76);fill-rule:nonzero;"/>
            <path d="M302.655,141.239C301.653,141.239 300.837,140.91 300.208,140.251C299.579,139.593 299.265,138.712 299.265,137.609L299.265,137.377C299.265,136.643 299.405,135.988 299.685,135.411C299.965,134.835 300.357,134.384 300.861,134.058C301.364,133.732 301.91,133.569 302.498,133.569C303.46,133.569 304.207,133.886 304.74,134.519C305.273,135.153 305.54,136.06 305.54,137.24L305.54,137.766L300.529,137.766C300.547,138.495 300.761,139.084 301.168,139.533C301.576,139.982 302.095,140.207 302.724,140.207C303.17,140.207 303.548,140.116 303.858,139.933C304.168,139.751 304.439,139.509 304.672,139.209L305.444,139.81C304.824,140.763 303.895,141.239 302.655,141.239ZM302.498,134.608C301.988,134.608 301.559,134.794 301.213,135.165C300.866,135.537 300.652,136.057 300.57,136.727L304.275,136.727L304.275,136.631C304.239,135.989 304.066,135.491 303.756,135.138C303.446,134.785 303.027,134.608 302.498,134.608Z" style="fill:rgb(19,39,76);fill-rule:nonzero;"/>
            <path d="M311.309,139.14C311.309,138.798 311.181,138.533 310.923,138.344C310.666,138.155 310.217,137.992 309.577,137.855C308.936,137.718 308.428,137.554 308.052,137.363C307.676,137.172 307.398,136.944 307.218,136.679C307.038,136.415 306.948,136.101 306.948,135.736C306.948,135.13 307.205,134.617 307.717,134.198C308.23,133.779 308.885,133.569 309.683,133.569C310.521,133.569 311.201,133.785 311.723,134.218C312.245,134.651 312.506,135.205 312.506,135.88L311.234,135.88C311.234,135.533 311.087,135.235 310.793,134.984C310.499,134.733 310.129,134.608 309.683,134.608C309.222,134.608 308.862,134.708 308.602,134.909C308.343,135.109 308.213,135.371 308.213,135.695C308.213,136 308.334,136.23 308.575,136.385C308.817,136.54 309.253,136.688 309.884,136.83C310.515,136.971 311.027,137.14 311.419,137.336C311.811,137.532 312.101,137.767 312.29,138.043C312.48,138.319 312.574,138.655 312.574,139.051C312.574,139.712 312.31,140.242 311.781,140.641C311.253,141.04 310.567,141.239 309.724,141.239C309.131,141.239 308.607,141.134 308.151,140.924C307.696,140.715 307.339,140.422 307.081,140.046C306.824,139.67 306.695,139.263 306.695,138.826L307.96,138.826C307.983,139.25 308.152,139.586 308.469,139.834C308.786,140.082 309.204,140.207 309.724,140.207C310.202,140.207 310.586,140.11 310.875,139.916C311.165,139.722 311.309,139.464 311.309,139.14Z" style="fill:rgb(19,39,76);fill-rule:nonzero;"/>
        </g>
        <g transform="matrix(1,0,0,1,-40.7572,35.4458)">
            <path d="M157.706,130.766L156.4,130.766L156.4,142.196L157.706,142.196L157.706,143.235L155.129,143.235L155.129,129.727L157.706,129.727L157.706,130.766Z" style="fill:rgb(19,39,76);fill-rule:nonzero;"/>
            <path d="M167.304,140.993L164.843,138.477L162.327,140.993L159.866,138.532L162.327,136.016L159.921,133.61L162.382,131.149L164.843,133.555L167.249,131.149L169.71,133.61L167.304,136.016L169.765,138.532L167.304,140.993Z" style="fill:rgb(19,39,76);fill-rule:nonzero;"/>
            <path d="M171.904,129.727L174.488,129.727L174.488,143.235L171.904,143.235L171.904,142.196L173.224,142.196L173.224,130.766L171.904,130.766L171.904,129.727Z" style="fill:rgb(19,39,76);fill-rule:nonzero;"/>
            <path d="M187.832,136.447C187.832,137.422 187.668,138.273 187.34,139C187.012,139.727 186.547,140.282 185.945,140.665C185.344,141.048 184.642,141.239 183.84,141.239C183.056,141.239 182.361,141.046 181.755,140.661C181.149,140.276 180.678,139.727 180.343,139.014C180.008,138.301 179.836,137.475 179.827,136.536L179.827,135.818C179.827,134.861 179.993,134.016 180.326,133.282C180.659,132.548 181.129,131.986 181.738,131.597C182.346,131.207 183.042,131.012 183.826,131.012C184.624,131.012 185.327,131.205 185.935,131.59C186.543,131.975 187.012,132.533 187.34,133.265C187.668,133.996 187.832,134.847 187.832,135.818L187.832,136.447ZM186.526,135.804C186.526,134.624 186.289,133.718 185.815,133.087C185.341,132.456 184.678,132.14 183.826,132.14C182.997,132.14 182.344,132.456 181.868,133.087C181.391,133.718 181.146,134.594 181.133,135.715L181.133,136.447C181.133,137.591 181.373,138.49 181.854,139.144C182.335,139.798 182.997,140.125 183.84,140.125C184.687,140.125 185.344,139.816 185.809,139.198C186.273,138.581 186.513,137.696 186.526,136.543L186.526,135.804Z" style="fill:rgb(19,39,76);fill-rule:nonzero;"/>
            <path d="M191.318,131.915L191.318,133.706L192.699,133.706L192.699,134.683L191.318,134.683L191.318,139.276C191.318,139.573 191.38,139.795 191.503,139.943C191.626,140.092 191.836,140.166 192.132,140.166C192.278,140.166 192.478,140.138 192.733,140.084L192.733,141.103C192.401,141.194 192.077,141.239 191.763,141.239C191.198,141.239 190.771,141.068 190.484,140.726C190.197,140.384 190.054,139.899 190.054,139.27L190.054,134.683L188.707,134.683L188.707,133.706L190.054,133.706L190.054,131.915L191.318,131.915Z" style="fill:rgb(19,39,76);fill-rule:nonzero;"/>
            <path d="M195.44,134.601C196.001,133.913 196.73,133.569 197.628,133.569C199.191,133.569 199.979,134.451 199.993,136.214L199.993,141.102L198.728,141.102L198.728,136.208C198.724,135.674 198.602,135.28 198.363,135.025C198.123,134.77 197.751,134.642 197.245,134.642C196.835,134.642 196.475,134.752 196.165,134.97C195.855,135.189 195.614,135.476 195.44,135.832L195.44,141.102L194.176,141.102L194.176,130.602L195.44,130.602L195.44,134.601Z" style="fill:rgb(19,39,76);fill-rule:nonzero;"/>
            <path d="M204.956,141.239C203.953,141.239 203.138,140.91 202.509,140.251C201.88,139.593 201.565,138.712 201.565,137.609L201.565,137.377C201.565,136.643 201.705,135.988 201.986,135.411C202.266,134.835 202.658,134.384 203.162,134.058C203.665,133.732 204.211,133.569 204.799,133.569C205.76,133.569 206.508,133.886 207.041,134.519C207.574,135.153 207.841,136.06 207.841,137.24L207.841,137.766L202.83,137.766C202.848,138.495 203.061,139.084 203.469,139.533C203.877,139.982 204.395,140.207 205.024,140.207C205.471,140.207 205.849,140.116 206.159,139.933C206.469,139.751 206.74,139.509 206.973,139.209L207.745,139.81C207.125,140.763 206.196,141.239 204.956,141.239ZM204.799,134.608C204.288,134.608 203.86,134.794 203.514,135.165C203.167,135.537 202.953,136.057 202.871,136.727L206.576,136.727L206.576,136.631C206.54,135.989 206.366,135.491 206.057,135.138C205.747,134.785 205.327,134.608 204.799,134.608Z" style="fill:rgb(19,39,76);fill-rule:nonzero;"/>
            <path d="M212.879,134.84C212.687,134.809 212.48,134.793 212.257,134.793C211.427,134.793 210.865,135.146 210.568,135.852L210.568,141.102L209.304,141.102L209.304,133.706L210.534,133.706L210.555,134.56C210.969,133.899 211.557,133.569 212.318,133.569C212.564,133.569 212.751,133.601 212.879,133.665L212.879,134.84Z" style="fill:rgb(19,39,76);fill-rule:nonzero;"/>
        </g>
        <g transform="matrix(1,0,0,1,-40.7572,-40.005)">
            <path d="M157.706,130.766L156.4,130.766L156.4,142.196L157.706,142.196L157.706,143.235L155.129,143.235L155.129,129.727L157.706,129.727L157.706,130.766Z" style="fill:rgb(19,39,76);fill-rule:nonzero;"/>
            <path d="M159.429,136.016C159.465,135.87 159.556,135.67 159.702,135.415C159.884,135.159 160.048,134.941 160.194,134.758C160.559,134.467 160.905,134.321 161.233,134.321C161.707,134.321 161.944,134.54 161.944,134.977C162.017,135.561 162.145,136.235 162.327,137.001C162.436,137.365 162.601,137.548 162.819,137.548C162.965,137.548 163.093,137.456 163.202,137.274C163.676,136.837 164.168,136.363 164.679,135.852C165.481,135.087 166.028,134.521 166.319,134.157C166.684,133.719 167.176,133.209 167.796,132.626C168.416,132.079 168.89,131.696 169.218,131.477C169.509,131.295 169.765,131.222 169.983,131.258C170.202,131.295 170.293,131.459 170.257,131.751C170.22,132.042 170.22,132.334 170.257,132.626C170.293,132.844 170.293,132.972 170.257,133.008C169.528,133.883 168.944,134.521 168.507,134.923C167.449,136.162 166.739,136.928 166.374,137.219C164.989,138.568 163.785,139.735 162.765,140.719C162.4,141.048 162.054,141.23 161.726,141.266C161.288,141.303 160.869,141.139 160.468,140.774C159.994,140.373 159.739,139.899 159.702,139.352C159.666,138.732 159.611,138.277 159.538,137.985C159.429,137.475 159.392,136.818 159.429,136.016Z" style="fill:rgb(19,39,76);fill-rule:nonzero;"/>
            <path d="M171.904,129.727L174.488,129.727L174.488,143.235L171.904,143.235L171.904,142.196L173.224,142.196L173.224,130.766L171.904,130.766L171.904,129.727Z" style="fill:rgb(19,39,76);fill-rule:nonzero;"/>
            <path d="M185.665,136.707L181.488,136.707L181.488,141.102L180.176,141.102L180.176,131.149L186.342,131.149L186.342,132.222L181.488,132.222L181.488,135.633L185.665,135.633L185.665,136.707Z" style="fill:rgb(19,39,76);fill-rule:nonzero;"/>
            <path d="M190.642,141.239C189.639,141.239 188.823,140.91 188.194,140.251C187.565,139.593 187.251,138.712 187.251,137.609L187.251,137.377C187.251,136.643 187.391,135.988 187.671,135.411C187.952,134.835 188.344,134.384 188.847,134.058C189.351,133.732 189.896,133.569 190.484,133.569C191.446,133.569 192.193,133.886 192.726,134.519C193.26,135.153 193.526,136.06 193.526,137.24L193.526,137.766L188.516,137.766C188.534,138.495 188.747,139.084 189.155,139.533C189.563,139.982 190.081,140.207 190.71,140.207C191.157,140.207 191.535,140.116 191.845,139.933C192.155,139.751 192.426,139.509 192.658,139.209L193.431,139.81C192.811,140.763 191.881,141.239 190.642,141.239ZM190.484,134.608C189.974,134.608 189.546,134.794 189.199,135.165C188.853,135.537 188.639,136.057 188.557,136.727L192.262,136.727L192.262,136.631C192.225,135.989 192.052,135.491 191.742,135.138C191.432,134.785 191.013,134.608 190.484,134.608Z" style="fill:rgb(19,39,76);fill-rule:nonzero;"/>
            <path d="M199.556,141.102C199.483,140.956 199.423,140.697 199.378,140.323C198.79,140.934 198.088,141.239 197.272,141.239C196.543,141.239 195.945,141.033 195.478,140.62C195.011,140.208 194.777,139.685 194.777,139.051C194.777,138.281 195.07,137.683 195.656,137.257C196.241,136.831 197.065,136.618 198.127,136.618L199.357,136.618L199.357,136.037C199.357,135.595 199.225,135.243 198.961,134.981C198.697,134.719 198.307,134.588 197.792,134.588C197.341,134.588 196.962,134.701 196.657,134.929C196.352,135.157 196.199,135.433 196.199,135.756L194.928,135.756C194.928,135.387 195.059,135.031 195.321,134.687C195.583,134.343 195.938,134.07 196.387,133.87C196.836,133.669 197.329,133.569 197.867,133.569C198.719,133.569 199.387,133.782 199.87,134.208C200.353,134.634 200.604,135.221 200.622,135.968L200.622,139.373C200.622,140.052 200.709,140.592 200.882,140.993L200.882,141.102L199.556,141.102ZM197.457,140.138C197.853,140.138 198.229,140.036 198.585,139.831C198.94,139.626 199.198,139.359 199.357,139.031L199.357,137.513L198.366,137.513C196.817,137.513 196.042,137.967 196.042,138.874C196.042,139.27 196.174,139.58 196.438,139.803C196.703,140.027 197.042,140.138 197.457,140.138Z" style="fill:rgb(19,39,76);fill-rule:nonzero;"/>
            <path d="M204.32,131.915L204.32,133.706L205.701,133.706L205.701,134.683L204.32,134.683L204.32,139.276C204.32,139.573 204.382,139.795 204.505,139.943C204.628,140.092 204.837,140.166 205.134,140.166C205.28,140.166 205.48,140.138 205.735,140.084L205.735,141.103C205.403,141.194 205.079,141.239 204.765,141.239C204.199,141.239 203.773,141.068 203.486,140.726C203.199,140.384 203.056,139.899 203.056,139.27L203.056,134.683L201.709,134.683L201.709,133.706L203.056,133.706L203.056,131.915L204.32,131.915Z" style="fill:rgb(19,39,76);fill-rule:nonzero;"/>
            <path d="M211.744,140.371C211.252,140.95 210.53,141.239 209.577,141.239C208.789,141.239 208.188,141.01 207.776,140.552C207.363,140.094 207.155,139.416 207.15,138.518L207.15,133.706L208.415,133.706L208.415,138.484C208.415,139.605 208.871,140.166 209.782,140.166C210.748,140.166 211.391,139.806 211.71,139.086L211.71,133.706L212.975,133.706L212.975,141.102L211.771,141.102L211.744,140.371Z" style="fill:rgb(19,39,76);fill-rule:nonzero;"/>
            <path d="M218.471,134.84C218.279,134.809 218.072,134.793 217.849,134.793C217.019,134.793 216.456,135.146 216.16,135.852L216.16,141.102L214.895,141.102L214.895,133.706L216.126,133.706L216.146,134.56C216.561,133.899 217.149,133.569 217.91,133.569C218.156,133.569 218.343,133.601 218.471,133.665L218.471,134.84Z" style="fill:rgb(19,39,76);fill-rule:nonzero;"/>
            <path d="M222.572,141.239C221.57,141.239 220.754,140.91 220.125,140.251C219.496,139.593 219.182,138.712 219.182,137.609L219.182,137.377C219.182,136.643 219.322,135.988 219.602,135.411C219.882,134.835 220.274,134.384 220.778,134.058C221.281,133.732 221.827,133.569 222.415,133.569C223.377,133.569 224.124,133.886 224.657,134.519C225.19,135.153 225.457,136.06 225.457,137.24L225.457,137.766L220.446,137.766C220.464,138.495 220.677,139.084 221.085,139.533C221.493,139.982 222.012,140.207 222.641,140.207C223.087,140.207 223.465,140.116 223.775,139.933C224.085,139.751 224.356,139.509 224.589,139.209L225.361,139.81C224.741,140.763 223.812,141.239 222.572,141.239ZM222.415,134.608C221.905,134.608 221.476,134.794 221.13,135.165C220.783,135.537 220.569,136.057 220.487,136.727L224.192,136.727L224.192,136.631C224.156,135.989 223.983,135.491 223.673,135.138C223.363,134.785 222.944,134.608 222.415,134.608Z" style="fill:rgb(19,39,76);fill-rule:nonzero;"/>
        </g>
    </g>
</svg>
