<?xml version="1.0" encoding="UTF-8" standalone="no"?><!DOCTYPE svg PUBLIC "-//W3C//DTD SVG 1.1//EN" "http://www.w3.org/Graphics/SVG/1.1/DTD/svg11.dtd"><svg width="100%" height="100%" viewBox="0 0 168 104" version="1.1" xmlns="http://www.w3.org/2000/svg" xmlns:xlink="http://www.w3.org/1999/xlink" xml:space="preserve" xmlns:serif="http://www.serif.com/" style="fill-rule:evenodd;clip-rule:evenodd;stroke-linejoin:round;stroke-miterlimit:1.41421;"><path d="M99.216,28.777l-6.231,12.582c2.047,1.897 3.492,4.395 4.064,7.225l4.696,0c0.542,-2.68 1.866,-5.088 3.762,-6.954l-6.291,-12.853Z" style="fill:none;"/><path d="M87.748,38.319l11.468,-23.178l11.439,23.328c0.451,-0.15 0.903,-0.27 1.354,-0.391l10.867,-32.058l-47.35,0l10.837,31.968c0.451,0.09 0.933,0.211 1.385,0.331Zm-3.944,20.499c4.184,0 7.586,-3.402 7.586,-7.586c0,-1.535 -0.452,-2.95 -1.234,-4.154c-0.241,-0.391 -0.542,-0.752 -0.843,-1.083l-0.03,-0.03c-0.301,-0.331 -0.662,-0.632 -1.024,-0.873l-0.03,-0.03c-0.09,-0.061 -0.21,-0.151 -0.331,-0.211c-0.03,0 -0.03,-0.03 -0.06,-0.03c-0.12,-0.06 -0.241,-0.151 -0.361,-0.211l-0.03,0c-0.121,-0.06 -0.271,-0.15 -0.392,-0.211l-0.03,0c-0.12,-0.06 -0.241,-0.12 -0.361,-0.15c-0.03,0 -0.06,-0.03 -0.09,-0.03c-0.091,-0.03 -0.211,-0.09 -0.301,-0.121c-0.03,0 -0.061,-0.03 -0.121,-0.03c-0.12,-0.03 -0.241,-0.09 -0.361,-0.12l-0.03,0c-0.151,-0.03 -0.271,-0.06 -0.421,-0.09c-0.031,0 -0.061,0 -0.121,-0.031c-0.12,-0.03 -0.211,-0.03 -0.331,-0.06c-0.06,0 -0.09,0 -0.151,-0.03c-0.09,0 -0.21,-0.03 -0.301,-0.03l-1.173,0c-0.121,0 -0.211,0.03 -0.332,0.03l-0.12,0c-0.12,0.03 -0.241,0.03 -0.361,0.06l-0.091,0c-0.15,0.03 -0.27,0.061 -0.421,0.091c-3.311,0.812 -5.779,3.823 -5.779,7.375c0.06,4.123 3.461,7.555 7.645,7.555Zm31.908,-15.171l-0.06,0c-0.121,0 -0.211,-0.03 -0.332,-0.03l-0.391,0c-0.15,0 -0.301,0 -0.482,0.03l-0.15,0c-0.12,0 -0.241,0.03 -0.361,0.03c-0.03,0 -0.091,0 -0.121,0.03l-0.451,0.09l-0.03,0c-0.151,0.03 -0.271,0.061 -0.422,0.091c-0.03,0 -0.09,0.03 -0.12,0.03c-0.121,0.03 -0.241,0.06 -0.361,0.12c-0.03,0 -0.061,0.03 -0.091,0.03c-0.15,0.061 -0.301,0.121 -0.421,0.181c-0.151,0.06 -0.271,0.12 -0.421,0.181c-0.031,0 -0.061,0.03 -0.091,0.03c-0.12,0.06 -0.241,0.12 -0.361,0.21c0,0 -0.03,0 -0.03,0.03c-0.271,0.151 -0.542,0.332 -0.783,0.542l-0.03,0.03c-0.391,0.301 -0.722,0.632 -1.053,0.994c-0.331,0.361 -0.602,0.782 -0.843,1.204c-0.632,1.114 -0.994,2.408 -0.994,3.762c0,4.184 3.402,7.586 7.586,7.586c4.184,0 7.586,-3.402 7.586,-7.586c0,-3.672 -2.649,-6.772 -6.111,-7.465c-0.181,-0.06 -0.421,-0.09 -0.662,-0.12Zm-63.364,15.171c4.185,0 7.586,-3.402 7.586,-7.586c0,-4.184 -3.401,-7.585 -7.586,-7.585c-4.184,0 -7.585,3.401 -7.585,7.585c0,4.184 3.401,7.586 7.585,7.586Z" style="fill:none;"/><path d="M114.959,64.688c-6.261,0 -11.529,-4.305 -13.034,-10.084l-5.057,0c-1.505,5.779 -6.772,10.084 -13.034,10.084c-0.722,0 -1.414,-0.061 -2.077,-0.151c-1.745,2.679 -3.822,5.148 -6.261,7.435c-4.304,4.064 -9.181,7.074 -14.448,8.97l-1.234,0.452l-1.144,-0.602c-6.322,-3.251 -9.572,-9.843 -8.429,-16.225c-0.722,-0.12 -1.414,-0.301 -2.077,-0.542c-0.12,0.211 -0.21,0.452 -0.331,0.693c-1.926,3.973 -3.943,8.067 -4.665,12.462c-0.783,4.696 -1.114,13.274 5.508,17.85c2.89,1.986 5.93,2.98 9.332,2.98c6.532,0 13.575,-3.492 21.04,-7.194c5.84,-2.89 11.86,-5.9 18.121,-7.435c2.378,-0.572 4.786,-0.934 7.104,-1.265c4.245,-0.602 8.278,-1.204 11.559,-3.1c3.492,-2.017 5.87,-5.388 6.532,-9.241c0.422,-2.348 0.181,-4.726 -0.602,-6.923c-1.987,1.143 -4.304,1.836 -6.803,1.836Z" style="fill:none;"/><path d="M128.414,51.202c0,-6.261 -4.304,-11.528 -10.083,-13.034l12.943,-38.168l-64.146,0l12.974,38.289c-5.599,1.625 -9.723,6.803 -9.723,12.943c0,4.516 2.258,8.519 5.689,10.987c-1.354,1.927 -2.92,3.703 -4.695,5.389c-3.342,3.13 -7.044,5.538 -11.048,7.134c-3.612,-2.439 -5.177,-6.743 -3.762,-10.596c5.508,-1.686 9.512,-6.833 9.512,-12.883c0,-7.436 -6.051,-13.456 -13.456,-13.456c-7.435,0 -13.485,6.051 -13.485,13.486c0,3.672 1.505,7.043 3.913,9.451c-0.211,0.422 -0.421,0.843 -0.632,1.295c-2.017,4.154 -4.304,8.85 -5.177,14.117c-1.746,10.536 1.113,18.994 8.007,23.78c3.883,2.679 8.157,4.034 12.763,4.034c7.916,0 15.953,-3.973 23.719,-7.826c5.539,-2.74 11.258,-5.599 16.887,-6.984c2.077,-0.512 4.244,-0.813 6.532,-1.144c4.636,-0.662 9.422,-1.354 13.726,-3.853c5.027,-2.92 8.459,-7.796 9.452,-13.395c0.753,-4.304 0,-8.639 -1.926,-12.432c1.294,-2.077 2.016,-4.515 2.016,-7.134Zm-5.869,0c0,4.184 -3.402,7.586 -7.586,7.586c-4.184,0 -7.585,-3.402 -7.585,-7.586c0,-1.354 0.361,-2.649 0.993,-3.762c0.241,-0.422 0.542,-0.843 0.843,-1.204c0.301,-0.362 0.662,-0.693 1.053,-0.994l0.03,-0.03c0.241,-0.18 0.512,-0.361 0.783,-0.542c0,0 0.03,0 0.03,-0.03c0.121,-0.06 0.241,-0.15 0.361,-0.21c0.031,0 0.061,-0.031 0.091,-0.031c0.12,-0.06 0.271,-0.12 0.421,-0.18c0.151,-0.06 0.301,-0.121 0.422,-0.181c0.03,0 0.06,-0.03 0.09,-0.03c0.12,-0.03 0.241,-0.09 0.361,-0.12c0.03,0 0.09,-0.03 0.121,-0.03c0.15,-0.031 0.27,-0.061 0.421,-0.091l0.03,0l0.452,-0.09c0.03,0 0.09,0 0.12,-0.03c0.12,0 0.241,-0.03 0.361,-0.03l0.151,0c0.15,0 0.301,-0.03 0.481,-0.03l0.392,0c0.12,0 0.21,0 0.331,0.03l0.06,0c0.241,0.03 0.482,0.06 0.722,0.12c3.432,0.723 6.051,3.793 6.051,7.465Zm-47.019,-45.182l47.35,0l-10.867,32.058c-0.451,0.09 -0.903,0.241 -1.354,0.391l-11.439,-23.328l-11.468,23.178c-0.452,-0.151 -0.934,-0.241 -1.415,-0.331l-10.807,-31.968Zm21.523,42.564c-0.572,-2.83 -2.017,-5.359 -4.064,-7.225l6.231,-12.582l6.291,12.853c-1.866,1.866 -3.22,4.244 -3.762,6.954l-4.696,0Zm-15.081,-4.757c0.151,-0.03 0.271,-0.06 0.422,-0.09l0.09,0c0.12,-0.03 0.241,-0.03 0.361,-0.06l0.121,0c0.12,0 0.21,-0.03 0.331,-0.03l1.174,0c0.12,0 0.21,0.03 0.301,0.03c0.06,0 0.09,0 0.15,0.03c0.12,0.03 0.211,0.03 0.331,0.06c0.03,0 0.06,0 0.121,0.03c0.15,0.03 0.301,0.061 0.421,0.091l0.03,0c0.121,0.03 0.241,0.06 0.361,0.12c0.03,0 0.061,0.03 0.121,0.03c0.09,0.03 0.21,0.06 0.301,0.121c0.03,0 0.06,0.03 0.09,0.03c0.12,0.06 0.241,0.09 0.361,0.15l0.03,0c0.151,0.06 0.271,0.121 0.392,0.211l0.03,0c0.12,0.06 0.241,0.15 0.361,0.211c0.03,0 0.03,0.03 0.06,0.03c0.121,0.06 0.211,0.15 0.331,0.21l0.03,0.031c0.362,0.27 0.693,0.571 1.024,0.872l0.03,0.031c0.301,0.331 0.602,0.692 0.843,1.083c0.782,1.204 1.234,2.619 1.234,4.154c0,4.184 -3.401,7.586 -7.586,7.586c-4.184,0 -7.585,-3.402 -7.585,-7.586c-0.03,-3.522 2.408,-6.502 5.719,-7.345Zm-29.62,-0.21c4.185,0 7.586,3.401 7.586,7.585c0,4.184 -3.401,7.586 -7.586,7.586c-4.184,0 -7.585,-3.402 -7.585,-7.586c0,-4.184 3.401,-7.585 7.585,-7.585Zm70.016,26.098c-0.662,3.853 -3.04,7.224 -6.532,9.241c-3.281,1.896 -7.314,2.498 -11.559,3.1c-2.318,0.331 -4.756,0.692 -7.104,1.264c-6.261,1.536 -12.281,4.546 -18.121,7.435c-7.465,3.703 -14.508,7.195 -21.04,7.195c-3.402,0 -6.442,-0.964 -9.332,-2.98c-6.622,-4.576 -6.291,-13.155 -5.508,-17.85c0.722,-4.395 2.739,-8.519 4.665,-12.462c0.121,-0.241 0.211,-0.452 0.331,-0.693c0.663,0.241 1.355,0.422 2.077,0.542c-1.143,6.382 2.107,12.974 8.429,16.225l1.144,0.602l1.234,-0.452c5.267,-1.866 10.144,-4.906 14.448,-8.97c2.439,-2.288 4.516,-4.756 6.261,-7.435c0.693,0.12 1.385,0.15 2.077,0.15c6.262,0 11.529,-4.304 13.034,-10.083l5.057,0c1.505,5.809 6.773,10.083 13.034,10.083c2.499,0 4.816,-0.692 6.803,-1.866c0.783,2.258 1.024,4.606 0.602,6.954Z" style="fill:#99425b;fill-rule:nonzero;"/></svg>