<?xml version="1.0" encoding="UTF-8" standalone="no"?><!DOCTYPE svg PUBLIC "-//W3C//DTD SVG 1.1//EN" "http://www.w3.org/Graphics/SVG/1.1/DTD/svg11.dtd"><svg width="100%" height="100%" viewBox="0 0 168 104" version="1.1" xmlns="http://www.w3.org/2000/svg" xmlns:xlink="http://www.w3.org/1999/xlink" xml:space="preserve" xmlns:serif="http://www.serif.com/" style="fill-rule:evenodd;clip-rule:evenodd;stroke-linejoin:round;stroke-miterlimit:1.41421;"><clipPath id="_clip1"><rect id="prettier-seeklogo.com" x="32" y="0" width="104" height="104"/></clipPath><g clip-path="url(#_clip1)"><g><path d="M116.19,21.841c0,-1.121 -0.91,-2.031 -2.031,-2.031l-5.842,0c-1.121,0 -2.031,0.91 -2.031,2.031l0,0.89c0,1.121 0.91,2.031 2.031,2.031l5.842,0c1.121,0 2.031,-0.91 2.031,-2.031l0,-0.89Z" style="fill:#56b3b4;"/><path d="M61.714,101.079c0,-1.121 -0.91,-2.031 -2.031,-2.031l-25.652,0c-1.121,0 -2.031,0.91 -2.031,2.031l0,0.89c0,1.121 0.91,2.031 2.031,2.031l25.652,0c1.121,0 2.031,-0.91 2.031,-2.031l0,-0.89Z" style="fill:#ea5e5e;"/><path d="M111.238,61.46c0,-1.121 -0.91,-2.031 -2.031,-2.031l-15.747,0c-1.121,0 -2.031,0.91 -2.031,2.031l0,0.89c0,1.121 0.91,2.031 2.031,2.031l15.747,0c1.121,0 2.031,-0.91 2.031,-2.031l0,-0.89Z" style="fill:#bf85bf;"/><path d="M86.476,61.46c0,-1.121 -0.91,-2.031 -2.031,-2.031l-20.699,0c-1.122,0 -2.032,0.91 -2.032,2.031l0,0.89c0,1.121 0.91,2.031 2.032,2.031l20.699,0c1.121,0 2.031,-0.91 2.031,-2.031l0,-0.89Z" style="fill:#ea5e5e;"/><path d="M56.762,61.46c0,-1.121 -0.91,-2.031 -2.031,-2.031l-20.7,0c-1.121,0 -2.031,0.91 -2.031,2.031l0,0.89c0,1.121 0.91,2.031 2.031,2.031l20.7,0c1.121,0 2.031,-0.91 2.031,-2.031l0,-0.89Z" style="fill:#56b3b4;"/><path d="M61.714,81.269c0,-1.121 -0.91,-2.031 -2.031,-2.031l-25.652,0c-1.121,0 -2.031,0.91 -2.031,2.031l0,0.89c0,1.121 0.91,2.031 2.031,2.031l25.652,0c1.121,0 2.031,-0.91 2.031,-2.031l0,-0.89Z" style="fill:#bf85bf;"/><path d="M61.714,41.65c0,-1.121 -0.91,-2.031 -2.031,-2.031l-25.652,0c-1.121,0 -2.031,0.91 -2.031,2.031l0,0.89c0,1.121 0.91,2.031 2.031,2.031l25.652,0c1.121,0 2.031,-0.91 2.031,-2.031l0,-0.89Z" style="fill:#bf85bf;"/><path d="M111.238,11.936c0,-1.121 -0.91,-2.031 -2.031,-2.031l-50.414,0c-1.121,0 -2.031,0.91 -2.031,2.031l0,0.89c0,1.121 0.91,2.031 2.031,2.031l50.414,0c1.121,0 2.031,-0.91 2.031,-2.031l0,-0.89Z" style="fill:#f7ba3e;"/><path d="M51.81,11.936c0,-1.121 -0.911,-2.031 -2.032,-2.031l-15.747,0c-1.121,0 -2.031,0.91 -2.031,2.031l0,0.89c0,1.121 0.91,2.031 2.031,2.031l15.747,0c1.121,0 2.032,-0.91 2.032,-2.031l0,-0.89Z" style="fill:#ea5e5e;"/><path d="M61.714,91.174c0,-1.121 -0.91,-2.031 -2.031,-2.031l-5.842,0c-1.121,0 -2.031,0.91 -2.031,2.031l0,0.89c0,1.121 0.91,2.031 2.031,2.031l5.842,0c1.121,0 2.031,-0.91 2.031,-2.031l0,-0.89Z" style="fill:#f7ba3e;"/><path d="M61.714,31.746c0,-1.122 -0.91,-2.032 -2.031,-2.032l-5.842,0c-1.121,0 -2.031,0.91 -2.031,2.032l0,0.889c0,1.121 0.91,2.032 2.031,2.032l5.842,0c1.121,0 2.031,-0.911 2.031,-2.032l0,-0.889Z" style="fill:#56b3b4;"/><path d="M46.857,91.174c0,-1.121 -0.91,-2.031 -2.031,-2.031l-10.795,0c-1.121,0 -2.031,0.91 -2.031,2.031l0,0.89c0,1.121 0.91,2.031 2.031,2.031l10.795,0c1.121,0 2.031,-0.91 2.031,-2.031l0,-0.89Z" style="fill:#56b3b4;"/><path d="M46.857,31.746c0,-1.122 -0.91,-2.032 -2.031,-2.032l-10.795,0c-1.121,0 -2.031,0.91 -2.031,2.032l0,0.889c0,1.121 0.91,2.032 2.031,2.032l10.795,0c1.121,0 2.031,-0.911 2.031,-2.032l0,-0.889Z" style="fill:#f7ba3e;"/><path d="M106.286,91.174c0,-1.121 -0.91,-2.031 -2.032,-2.031l-5.842,0c-1.121,0 -2.031,0.91 -2.031,2.031l0,0.89c0,1.121 0.91,2.031 2.031,2.031l5.842,0c1.122,0 2.032,-0.91 2.032,-2.031l0,-0.89Z" style="fill:#d0d4d8;fill-opacity:0.5;"/><path d="M91.429,91.174c0,-1.121 -0.911,-2.031 -2.032,-2.031l-20.699,0c-1.121,0 -2.031,0.91 -2.031,2.031l0,0.89c0,1.121 0.91,2.031 2.031,2.031l20.699,0c1.121,0 2.032,-0.91 2.032,-2.031l0,-0.89Z" style="fill:#d0d4d8;fill-opacity:0.5;"/><path d="M136,91.174c0,-1.121 -0.91,-2.031 -2.031,-2.031l-20.7,0c-1.121,0 -2.031,0.91 -2.031,2.031l0,0.89c0,1.121 0.91,2.031 2.031,2.031l20.7,0c1.121,0 2.031,-0.91 2.031,-2.031l0,-0.89Z" style="fill:#d0d4d8;fill-opacity:0.5;"/><path d="M116.19,51.555c0,-1.121 -0.91,-2.031 -2.031,-2.031l-40.509,0c-1.121,0 -2.031,0.91 -2.031,2.031l0,0.89c0,1.121 0.91,2.031 2.031,2.031l40.509,0c1.121,0 2.031,-0.91 2.031,-2.031l0,-0.89Z" style="fill:#56b3b4;"/><path d="M66.667,51.555c0,-1.121 -0.911,-2.031 -2.032,-2.031l-15.747,0c-1.121,0 -2.031,0.91 -2.031,2.031l0,0.89c0,1.121 0.91,2.031 2.031,2.031l15.747,0c1.121,0 2.032,-0.91 2.032,-2.031l0,-0.89Z" style="fill:#f7ba3e;"/><path d="M41.905,51.555c0,-1.121 -0.91,-2.031 -2.031,-2.031l-5.843,0c-1.121,0 -2.031,0.91 -2.031,2.031l0,0.89c0,1.121 0.91,2.031 2.031,2.031l5.843,0c1.121,0 2.031,-0.91 2.031,-2.031l0,-0.89Z" style="fill:#ea5e5e;"/><path d="M101.333,21.841c0,-1.121 -0.91,-2.031 -2.031,-2.031l-20.699,0c-1.121,0 -2.032,0.91 -2.032,2.031l0,0.89c0,1.121 0.911,2.031 2.032,2.031l20.699,0c1.121,0 2.031,-0.91 2.031,-2.031l0,-0.89Z" style="fill:#bf85bf;"/><path d="M71.619,21.841c0,-1.121 -0.91,-2.031 -2.031,-2.031l-35.557,0c-1.121,0 -2.031,0.91 -2.031,2.031l0,0.89c0,1.121 0.91,2.031 2.031,2.031l35.557,0c1.121,0 2.031,-0.91 2.031,-2.031l0,-0.89Z" style="fill:#56b3b4;"/><path d="M96.381,71.365c0,-1.121 -0.91,-2.032 -2.031,-2.032l-45.462,0c-1.121,0 -2.031,0.911 -2.031,2.032l0,0.889c0,1.122 0.91,2.032 2.031,2.032l45.462,0c1.121,0 2.031,-0.91 2.031,-2.032l0,-0.889Z" style="fill:#f7ba3e;"/><path d="M41.905,71.365c0,-1.121 -0.91,-2.032 -2.031,-2.032l-5.843,0c-1.121,0 -2.031,0.911 -2.031,2.032l0,0.889c0,1.122 0.91,2.032 2.031,2.032l5.843,0c1.121,0 2.031,-0.91 2.031,-2.032l0,-0.889Z" style="fill:#bf85bf;"/><path d="M121.143,31.746c0,-1.122 -0.91,-2.032 -2.031,-2.032l-25.652,0c-1.121,0 -2.031,0.91 -2.031,2.032l0,0.889c0,1.121 0.91,2.032 2.031,2.032l25.652,0c1.121,0 2.031,-0.911 2.031,-2.032l0,-0.889Z" style="fill:#ea5e5e;"/><path d="M121.143,41.65c0,-1.121 -0.91,-2.031 -2.031,-2.031l-25.652,0c-1.121,0 -2.031,0.91 -2.031,2.031l0,0.89c0,1.121 0.91,2.031 2.031,2.031l25.652,0c1.121,0 2.031,-0.91 2.031,-2.031l0,-0.89Z" style="fill:#f7ba3e;"/><path d="M96.381,2.031c0,-1.121 -0.91,-2.031 -2.031,-2.031l-60.319,0c-1.121,0 -2.031,0.91 -2.031,2.031l0,0.89c0,1.121 0.91,2.031 2.031,2.031l60.319,0c1.121,0 2.031,-0.91 2.031,-2.031l0,-0.89Z" style="fill:#56b3b4;"/><path d="M136,2.031c0,-1.121 -0.91,-2.031 -2.031,-2.031l-30.604,0c-1.121,0 -2.032,0.91 -2.032,2.031l0,0.89c0,1.121 0.911,2.031 2.032,2.031l30.604,0c1.121,0 2.031,-0.91 2.031,-2.031l0,-0.89Z" style="fill:#d0d4d8;fill-opacity:0.5;"/><path d="M116.19,71.365c0,-1.121 -0.91,-2.032 -2.031,-2.032l-10.794,0c-1.121,0 -2.032,0.911 -2.032,2.032l0,0.889c0,1.122 0.911,2.032 2.032,2.032l10.794,0c1.121,0 2.031,-0.91 2.031,-2.032l0,-0.889Z" style="fill:#d0d4d8;fill-opacity:0.5;"/><path d="M136,71.365c0,-1.121 -0.91,-2.032 -2.031,-2.032l-10.795,0c-1.121,0 -2.031,0.911 -2.031,2.032l0,0.889c0,1.122 0.91,2.032 2.031,2.032l10.795,0c1.121,0 2.031,-0.91 2.031,-2.032l0,-0.889Z" style="fill:#d0d4d8;fill-opacity:0.5;"/><path d="M136,61.46c0,-1.121 -0.91,-2.031 -2.031,-2.031l-15.747,0c-1.121,0 -2.032,0.91 -2.032,2.031l0,0.89c0,1.121 0.911,2.031 2.032,2.031l15.747,0c1.121,0 2.031,-0.91 2.031,-2.031l0,-0.89Z" style="fill:#d0d4d8;fill-opacity:0.5;"/><path d="M136,11.936c0,-1.121 -0.91,-2.031 -2.031,-2.031l-15.747,0c-1.121,0 -2.032,0.91 -2.032,2.031l0,0.89c0,1.121 0.911,2.031 2.032,2.031l15.747,0c1.121,0 2.031,-0.91 2.031,-2.031l0,-0.89Z" style="fill:#d0d4d8;fill-opacity:0.5;"/><path d="M136,51.555c0,-1.121 -0.91,-2.031 -2.031,-2.031l-10.795,0c-1.121,0 -2.031,0.91 -2.031,2.031l0,0.89c0,1.121 0.91,2.031 2.031,2.031l10.795,0c1.121,0 2.031,-0.91 2.031,-2.031l0,-0.89Z" style="fill:#d0d4d8;fill-opacity:0.5;"/><path d="M136,21.841c0,-1.121 -0.91,-2.031 -2.031,-2.031l-10.795,0c-1.121,0 -2.031,0.91 -2.031,2.031l0,0.89c0,1.121 0.91,2.031 2.031,2.031l10.795,0c1.121,0 2.031,-0.91 2.031,-2.031l0,-0.89Z" style="fill:#d0d4d8;fill-opacity:0.5;"/><path d="M136,31.746c0,-1.122 -0.91,-2.032 -2.031,-2.032l-5.843,0c-1.121,0 -2.031,0.91 -2.031,2.032l0,0.889c0,1.121 0.91,2.032 2.031,2.032l5.843,0c1.121,0 2.031,-0.911 2.031,-2.032l0,-0.889Z" style="fill:#d0d4d8;fill-opacity:0.5;"/><path d="M136,41.65c0,-1.121 -0.91,-2.031 -2.031,-2.031l-5.843,0c-1.121,0 -2.031,0.91 -2.031,2.031l0,0.89c0,1.121 0.91,2.031 2.031,2.031l5.843,0c1.121,0 2.031,-0.91 2.031,-2.031l0,-0.89Z" style="fill:#d0d4d8;fill-opacity:0.5;"/><path d="M136,81.269c0,-1.121 -0.91,-2.031 -2.031,-2.031l-45.462,0c-1.121,0 -2.031,0.91 -2.031,2.031l0,0.89c0,1.121 0.91,2.031 2.031,2.031l45.462,0c1.121,0 2.031,-0.91 2.031,-2.031l0,-0.89Z" style="fill:#d0d4d8;fill-opacity:0.5;"/><path d="M81.524,81.269c0,-1.121 -0.91,-2.031 -2.031,-2.031l-10.795,0c-1.121,0 -2.031,0.91 -2.031,2.031l0,0.89c0,1.121 0.91,2.031 2.031,2.031l10.795,0c1.121,0 2.031,-0.91 2.031,-2.031l0,-0.89Z" style="fill:#d0d4d8;fill-opacity:0.5;"/><path d="M136,101.079c0,-1.121 -0.91,-2.031 -2.031,-2.031l-25.652,0c-1.121,0 -2.031,0.91 -2.031,2.031l0,0.89c0,1.121 0.91,2.031 2.031,2.031l25.652,0c1.121,0 2.031,-0.91 2.031,-2.031l0,-0.89Z" style="fill:#d0d4d8;fill-opacity:0.5;"/><path d="M101.333,101.079c0,-1.121 -0.91,-2.031 -2.031,-2.031l-30.604,0c-1.121,0 -2.031,0.91 -2.031,2.031l0,0.89c0,1.121 0.91,2.031 2.031,2.031l30.604,0c1.121,0 2.031,-0.91 2.031,-2.031l0,-0.89Z" style="fill:#d0d4d8;fill-opacity:0.5;"/><path d="M86.476,31.746c0,-1.122 -0.91,-2.032 -2.031,-2.032l-15.747,0c-1.121,0 -2.031,0.91 -2.031,2.032l0,0.889c0,1.121 0.91,2.032 2.031,2.032l15.747,0c1.121,0 2.031,-0.911 2.031,-2.032l0,-0.889Z" style="fill:#d0d4d8;fill-opacity:0.5;"/><path d="M86.476,41.65c0,-1.121 -0.91,-2.031 -2.031,-2.031l-15.747,0c-1.121,0 -2.031,0.91 -2.031,2.031l0,0.89c0,1.121 0.91,2.031 2.031,2.031l15.747,0c1.121,0 2.031,-0.91 2.031,-2.031l0,-0.89Z" style="fill:#d0d4d8;fill-opacity:0.5;"/></g></g></svg>