<?xml version="1.0" encoding="UTF-8" standalone="no"?><!DOCTYPE svg PUBLIC "-//W3C//DTD SVG 1.1//EN" "http://www.w3.org/Graphics/SVG/1.1/DTD/svg11.dtd"><svg width="100%" height="100%" viewBox="0 0 168 104" version="1.1" xmlns="http://www.w3.org/2000/svg" xmlns:xlink="http://www.w3.org/1999/xlink" xml:space="preserve" xmlns:serif="http://www.serif.com/" style="fill-rule:evenodd;clip-rule:evenodd;stroke-linejoin:round;stroke-miterlimit:1.41421;"><path id="XMLID_15_" d="M124.126,34.295c0,-6.101 -1.598,-11.82 -4.412,-16.777c-7.462,-7.68 -23.694,-9.459 -27.725,-0.036c-4.14,9.659 6.954,20.408 11.802,19.555c6.173,-1.09 -1.09,-15.252 -1.09,-15.252c9.442,17.793 7.263,12.347 -9.804,28.687c-17.067,16.341 -34.498,50.821 -37.04,52.273c-0.109,0.073 -0.218,0.127 -0.345,0.182l66.944,0c1.18,0 1.942,-1.253 1.416,-2.306l-17.503,-34.643c-0.381,-0.744 -0.109,-1.67 0.617,-2.088c10.241,-5.883 17.14,-16.922 17.14,-29.595Z" style="fill:url(#_Linear1);fill-rule:nonzero;"/><path id="XMLID_10_" d="M124.126,34.295c0,-6.101 -1.598,-11.82 -4.412,-16.777c-7.462,-7.68 -23.694,-9.459 -27.725,-0.036c-4.14,9.659 6.954,20.408 11.802,19.555c6.173,-1.09 -1.09,-15.252 -1.09,-15.252c9.442,17.793 7.263,12.347 -9.804,28.687c-17.067,16.341 -34.498,50.821 -37.04,52.273c-0.109,0.073 -0.218,0.127 -0.345,0.182l66.944,0c1.18,0 1.942,-1.253 1.416,-2.306l-17.503,-34.643c-0.381,-0.744 -0.109,-1.67 0.617,-2.088c10.241,-5.883 17.14,-16.922 17.14,-29.595Z" style="fill:url(#_Linear2);fill-rule:nonzero;"/><path id="XMLID_3_" d="M55.857,102.745c2.542,-1.452 19.973,-35.95 37.04,-52.291c17.067,-16.341 19.246,-10.894 9.804,-28.687c0,0 -36.131,50.657 -49.204,75.713" style="fill:url(#_Linear3);fill-rule:nonzero;"/><path id="XMLID_12_" d="M60.941,57.354c24.403,-44.865 27.598,-49.386 40.308,-49.386c6.681,0 13.417,3.014 17.775,8.37c-5.937,-9.568 -16.45,-15.978 -28.488,-16.159l-41.451,0c-0.872,0 -1.58,0.708 -1.58,1.579l0,83.557c2.47,-6.373 6.664,-15.488 13.436,-27.961Z" style="fill:url(#_Linear4);fill-rule:nonzero;"/><path id="XMLID_6_" d="M92.897,50.454c-17.067,16.341 -34.498,50.839 -37.04,52.291c-2.542,1.453 -6.808,1.634 -9.078,-0.908c-2.415,-2.705 -6.173,-7.081 14.162,-44.483c24.403,-44.865 27.598,-49.386 40.308,-49.386c6.681,0 13.417,3.014 17.775,8.37c0.236,0.381 0.472,0.781 0.708,1.18c-7.462,-7.68 -23.694,-9.459 -27.725,-0.036c-4.14,9.659 6.954,20.408 11.802,19.555c6.173,-1.09 -1.09,-15.252 -1.09,-15.252c9.424,17.775 7.245,12.328 -9.822,28.669Z" style="fill:url(#_Linear5);fill-rule:nonzero;"/><path id="XMLID_13_" d="M62.938,59.351c24.403,-44.865 27.598,-49.386 40.308,-49.386c5.501,0 11.039,2.052 15.252,5.756c-4.358,-4.975 -10.822,-7.753 -17.249,-7.753c-12.71,0 -15.905,4.521 -40.308,49.386c-20.335,37.402 -16.577,41.778 -14.162,44.483c0.345,0.382 0.744,0.709 1.162,0.981c-2.124,-3.087 -3.068,-10.259 14.997,-43.467Z" style="fill:url(#_Linear6);fill-rule:nonzero;"/><defs><linearGradient id="_Linear1" x1="0" y1="0" x2="1" y2="0" gradientUnits="userSpaceOnUse" gradientTransform="matrix(27.9611,6.53637,-6.53637,27.9611,73.9174,55.3658)"><stop offset="0" style="stop-color:#ff6533;stop-opacity:1"/><stop offset="0.16" style="stop-color:#ff5633;stop-opacity:1"/><stop offset="0.43" style="stop-color:#ff4333;stop-opacity:1"/><stop offset="0.71" style="stop-color:#ff3733;stop-opacity:1"/><stop offset="1" style="stop-color:#f33;stop-opacity:1"/></linearGradient><linearGradient id="_Linear2" x1="0" y1="0" x2="1" y2="0" gradientUnits="userSpaceOnUse" gradientTransform="matrix(50.1122,38.8551,-38.8551,50.1122,69.5442,46.0971)"><stop offset="0" style="stop-color:#bf3338;stop-opacity:1"/><stop offset="1" style="stop-color:#f33;stop-opacity:1"/></linearGradient><linearGradient id="_Linear3" x1="0" y1="0" x2="1" y2="0" gradientUnits="userSpaceOnUse" gradientTransform="matrix(7.26263,7.62576,-7.62576,7.26263,71.179,53.7508)"><stop offset="0" style="stop-color:#ff6533;stop-opacity:1"/><stop offset="0.16" style="stop-color:#ff5633;stop-opacity:1"/><stop offset="0.43" style="stop-color:#ff4333;stop-opacity:1"/><stop offset="0.71" style="stop-color:#ff3733;stop-opacity:1"/><stop offset="1" style="stop-color:#f33;stop-opacity:1"/></linearGradient><linearGradient id="_Linear4" x1="0" y1="0" x2="1" y2="0" gradientUnits="userSpaceOnUse" gradientTransform="matrix(-2.17879,-31.2293,31.2293,-2.17879,84.3832,66.8782)"><stop offset="0" style="stop-color:#ff6533;stop-opacity:1"/><stop offset="0.16" style="stop-color:#ff5633;stop-opacity:1"/><stop offset="0.43" style="stop-color:#ff4333;stop-opacity:1"/><stop offset="0.71" style="stop-color:#ff3733;stop-opacity:1"/><stop offset="1" style="stop-color:#f33;stop-opacity:1"/></linearGradient><linearGradient id="_Linear5" x1="0" y1="0" x2="1" y2="0" gradientUnits="userSpaceOnUse" gradientTransform="matrix(10.3162,7.01503,-7.01503,10.3162,74.9444,53.2158)"><stop offset="0" style="stop-color:#fbb040;stop-opacity:1"/><stop offset="1" style="stop-color:#fb8840;stop-opacity:1"/></linearGradient><linearGradient id="_Linear6" x1="0" y1="0" x2="1" y2="0" gradientUnits="userSpaceOnUse" gradientTransform="matrix(-10.5308,115.839,-115.839,-10.5308,85.5131,13.5524)"><stop offset="0" style="stop-color:#fff;stop-opacity:0.3"/><stop offset="1" style="stop-color:#fff;stop-opacity:0"/></linearGradient></defs></svg>