<?xml version="1.0" encoding="UTF-8" standalone="no"?><!DOCTYPE svg PUBLIC "-//W3C//DTD SVG 1.1//EN" "http://www.w3.org/Graphics/SVG/1.1/DTD/svg11.dtd"><svg width="100%" height="100%" viewBox="0 0 168 104" version="1.1" xmlns="http://www.w3.org/2000/svg" xmlns:xlink="http://www.w3.org/1999/xlink" xml:space="preserve" xmlns:serif="http://www.serif.com/" style="fill-rule:evenodd;clip-rule:evenodd;stroke-linejoin:round;stroke-miterlimit:1.41421;"><clipPath id="_clip1"><rect id="sass" x="14.624" y="0" width="138.751" height="104"/></clipPath><g clip-path="url(#_clip1)"><path d="M134.024,59.776c-4.837,0.025 -9.042,1.19 -12.563,2.913c-1.291,-2.558 -2.583,-4.838 -2.811,-6.51c-0.254,-1.95 -0.557,-3.141 -0.254,-5.471c0.304,-2.33 1.672,-5.648 1.647,-5.901c-0.025,-0.254 -0.304,-1.444 -3.09,-1.469c-2.786,-0.026 -5.193,0.531 -5.471,1.266c-0.279,0.735 -0.811,2.406 -1.165,4.129c-0.482,2.532 -5.573,11.575 -8.486,16.311c-0.937,-1.849 -1.747,-3.47 -1.925,-4.761c-0.253,-1.951 -0.557,-3.141 -0.253,-5.472c0.304,-2.33 1.672,-5.648 1.647,-5.901c-0.026,-0.253 -0.304,-1.444 -3.091,-1.469c-2.786,-0.026 -5.192,0.532 -5.471,1.266c-0.278,0.735 -0.582,2.457 -1.165,4.129c-0.582,1.672 -7.345,16.768 -9.118,20.668c-0.912,2.001 -1.697,3.597 -2.254,4.686c0,0 -0.026,0.076 -0.102,0.203c-0.481,0.937 -0.759,1.443 -0.759,1.443l0,0.026c-0.38,0.684 -0.786,1.317 -0.988,1.317c-0.152,0 -0.431,-1.824 0.05,-4.306c1.013,-5.243 3.42,-13.399 3.394,-13.678c0,-0.152 0.456,-1.57 -1.57,-2.305c-1.976,-0.734 -2.685,0.482 -2.862,0.482c-0.177,0 -0.304,0.43 -0.304,0.43c0,0 2.204,-9.169 -4.205,-9.169c-4.002,0 -9.523,4.382 -12.259,8.333c-1.722,0.938 -5.395,2.939 -9.321,5.091c-1.494,0.836 -3.039,1.672 -4.483,2.457c-0.101,-0.101 -0.203,-0.228 -0.304,-0.329c-7.751,-8.282 -22.087,-14.133 -21.479,-25.253c0.228,-4.052 1.621,-14.69 27.533,-27.608c21.326,-10.512 38.297,-7.599 41.235,-1.14c4.204,9.22 -9.093,26.342 -31.129,28.824c-8.409,0.937 -12.817,-2.305 -13.931,-3.52c-1.165,-1.267 -1.342,-1.343 -1.773,-1.09c-0.709,0.38 -0.253,1.52 0,2.179c0.659,1.722 3.369,4.762 7.953,6.256c4.053,1.317 13.906,2.052 25.836,-2.558c13.348,-5.167 23.783,-19.529 20.719,-31.56c-3.065,-12.208 -23.328,-16.236 -42.502,-9.422c-11.398,4.052 -23.759,10.435 -32.649,18.743c-10.562,9.878 -12.234,18.465 -11.55,22.061c2.457,12.766 20.06,21.074 27.102,27.229c-0.355,0.202 -0.684,0.38 -0.963,0.532c-3.52,1.747 -16.945,8.764 -20.288,16.185c-3.799,8.409 0.608,14.437 3.521,15.248c9.042,2.507 18.338,-2.001 23.328,-9.448c4.989,-7.447 4.381,-17.122 2.077,-21.555c-0.026,-0.05 -0.051,-0.101 -0.102,-0.152c0.912,-0.532 1.849,-1.089 2.761,-1.621c1.798,-1.063 3.571,-2.051 5.091,-2.862c-0.861,2.356 -1.494,5.167 -1.798,9.22c-0.38,4.762 1.57,10.942 4.128,13.373c1.14,1.064 2.483,1.09 3.344,1.09c2.989,0 4.331,-2.483 5.825,-5.421c1.824,-3.596 3.47,-7.776 3.47,-7.776c0,0 -2.051,11.297 3.521,11.297c2.026,0 4.078,-2.634 4.99,-3.977l0,0.026c0,0 0.051,-0.076 0.152,-0.254c0.203,-0.329 0.329,-0.532 0.329,-0.532c0,0 0,-0.025 0,-0.05c0.811,-1.419 2.634,-4.635 5.345,-9.98c3.495,-6.889 6.864,-15.501 6.864,-15.501c0,0 0.304,2.102 1.342,5.598c0.608,2.051 1.874,4.306 2.888,6.484c-0.811,1.14 -1.318,1.773 -1.318,1.773l0.026,0.025c-0.659,0.861 -1.368,1.799 -2.153,2.71c-2.761,3.293 -6.054,7.067 -6.51,8.156c-0.532,1.292 -0.405,2.229 0.608,2.989c0.735,0.557 2.052,0.633 3.394,0.557c2.483,-0.177 4.23,-0.785 5.091,-1.165c1.343,-0.481 2.913,-1.216 4.382,-2.305c2.71,-2.001 4.357,-4.863 4.205,-8.637c-0.076,-2.077 -0.76,-4.154 -1.596,-6.104c0.253,-0.355 0.481,-0.709 0.735,-1.064c4.28,-6.256 7.598,-13.12 7.598,-13.12c0,0 0.304,2.102 1.343,5.597c0.506,1.773 1.545,3.698 2.457,5.573c-4.028,3.267 -6.51,7.067 -7.396,9.549c-1.596,4.61 -0.355,6.687 2.001,7.168c1.063,0.228 2.583,-0.279 3.698,-0.76c1.418,-0.456 3.09,-1.241 4.685,-2.406c2.711,-2.001 5.319,-4.787 5.167,-8.561c-0.076,-1.723 -0.531,-3.42 -1.165,-5.066c3.42,-1.419 7.827,-2.204 13.45,-1.545c12.056,1.418 14.437,8.941 13.981,12.107c-0.455,3.166 -2.988,4.888 -3.824,5.42c-0.836,0.532 -1.115,0.709 -1.039,1.089c0.102,0.558 0.507,0.532 1.216,0.431c0.988,-0.177 6.332,-2.558 6.56,-8.384c0.38,-7.447 -6.712,-15.577 -19.25,-15.501Zm-93.007,31.357c-4.002,4.357 -9.574,6.003 -11.98,4.61c-2.584,-1.495 -1.571,-7.928 3.343,-12.538c2.989,-2.811 6.839,-5.42 9.397,-7.016c0.582,-0.355 1.444,-0.861 2.482,-1.494c0.177,-0.102 0.279,-0.152 0.279,-0.152c0.202,-0.127 0.405,-0.254 0.608,-0.38c1.798,6.585 0.076,12.385 -4.129,16.97Zm29.128,-19.807c-1.393,3.394 -4.306,12.082 -6.079,11.6c-1.519,-0.405 -2.457,-6.99 -0.304,-13.5c1.089,-3.267 3.394,-7.168 4.737,-8.688c2.178,-2.431 4.584,-3.242 5.167,-2.254c0.734,1.292 -2.66,10.714 -3.521,12.842Zm24.037,11.499c-0.582,0.304 -1.14,0.507 -1.393,0.355c-0.177,-0.102 0.253,-0.507 0.253,-0.507c0,0 3.015,-3.242 4.205,-4.711c0.684,-0.861 1.494,-1.874 2.356,-3.014c0,0.101 0,0.228 0,0.329c0,3.875 -3.749,6.484 -5.421,7.548Zm18.541,-4.23c-0.431,-0.304 -0.355,-1.317 1.089,-4.483c0.557,-1.241 1.874,-3.318 4.129,-5.319c0.253,0.811 0.43,1.596 0.405,2.33c-0.025,4.889 -3.521,6.712 -5.623,7.472Z" style="fill:#cd6799;fill-rule:nonzero;"/></g></svg>