<?xml version="1.0" encoding="UTF-8" standalone="no"?><!DOCTYPE svg PUBLIC "-//W3C//DTD SVG 1.1//EN" "http://www.w3.org/Graphics/SVG/1.1/DTD/svg11.dtd"><svg width="100%" height="100%" viewBox="0 0 168 104" version="1.1" xmlns="http://www.w3.org/2000/svg" xmlns:xlink="http://www.w3.org/1999/xlink" xml:space="preserve" xmlns:serif="http://www.serif.com/" style="fill-rule:evenodd;clip-rule:evenodd;stroke-linejoin:round;stroke-miterlimit:1.41421;"><g id="Group"><path id="path0_fill" d="M4.282,72.424l-1.976,-40.518l-1.482,0l1.482,40.518l1.976,0Z" style="fill:#b57ee5;fill-rule:nonzero;"/><path id="path1_fill" d="M5.106,72.424l-1.977,-40.518l32.283,-2.306l0,44.306l-30.306,-1.482Z" style="fill:#f1618c;fill-rule:nonzero;"/><path id="path2_fill" d="M27.176,35.529l0.412,-5.517l3.871,-0.33l0,5.847l-1.947,-1.76l-2.336,1.76Z" style="fill:#fff;fill-rule:nonzero;"/><g id="torybook"><path id="path3_fill" d="M95.371,45.445l-5.399,0c0,1.014 0,2.029 0,3.007c0,3.877 -0.036,6.994 -0.036,6.994c0,1.92 -0.797,2.427 -1.812,2.427c-1.05,0 -1.594,-0.471 -1.594,-2.5c0,-2.971 0.217,-8.841 0.217,-8.841l-5.399,-0.145c0,-0.073 -0.181,4.493 -0.181,9.892c0,5.399 3.406,5.798 4.964,5.798c1.486,0 3.117,-0.58 3.986,-1.522c0,3.08 -0.978,4.094 -3.152,4.094c-1.377,0 -3.044,-0.688 -3.95,-1.449l0,4.964c1.522,0.906 3.225,1.305 4.928,1.305c3.624,0 7.175,-2.102 7.247,-8.153c0.109,-6.74 0.145,-13.48 0.181,-15.871Zm27.268,-0.037c-5.508,0 -7.864,4.421 -7.864,9.675c0,4.457 2.175,7.791 7.356,7.791c5.798,0 7.863,-4.348 7.863,-9.385c0,-4.674 -2.029,-8.081 -7.355,-8.081Zm1.92,8.769c0,2.356 -0.797,4.167 -2.428,4.167c-1.377,0 -1.92,-1.594 -1.92,-3.261c0,-2.681 0.942,-4.747 2.428,-4.747c1.521,0 1.92,1.993 1.92,3.841Z" style="fill:#6dabf5;fill-rule:nonzero;"/><path id="path4_fill" d="M41.618,62.91c2.79,0.036 5.471,-0.326 5.471,-0.326c0,-4.747 0,-9.204 0.037,-12.574c1.449,-0.145 2.645,-0.326 2.645,-0.326c0.072,-2.283 -0.109,-4.348 -0.109,-4.348l-2.464,0.145c0.073,-3.442 0.145,-5.218 0.145,-5.218l-5.798,0.362c0,0 0,2.138 0.037,5.399c-1.776,0.218 -3.08,0.58 -3.08,0.58c0.072,1.921 0.761,3.986 0.761,3.986l2.355,-0.109l0,12.429Z" style="fill:#f3ad38;fill-rule:nonzero;"/><path id="path5_fill" d="M74.328,47.655c0,-0.543 0.036,-1.123 0.072,-1.703l-5.036,-0.181c0,0 -0.471,7.392 -0.435,17.103c2.428,0.181 5.254,0.181 5.254,0.181c-0.036,0 0,-3.225 0.145,-8.08c0.072,-2.827 1.087,-3.696 2.609,-3.696c0.906,0 2.029,0.398 2.029,0.398l0.58,-5.037c-2.356,-0.797 -4.53,-0.108 -5.218,1.015Z" style="fill:#b57ee6;fill-rule:nonzero;"/><path id="path6_fill" d="M103.44,62.801c0,-0.797 0.072,-1.521 0.072,-1.811c0.616,0.906 1.812,1.703 3.297,1.703c4.168,0 5.979,-4.095 6.088,-8.95c0.072,-4.602 -1.667,-8.443 -5.508,-8.443c-1.413,0 -2.609,0.761 -3.261,1.558c0.326,-5.399 0.58,-8.842 0.58,-8.842l-5.472,-0.398c-0.326,3.768 -0.833,16.233 -0.761,25.328c3.153,0.073 4.965,-0.145 4.965,-0.145Zm0.326,-7.21c-0.073,-0.979 -0.254,-5.327 1.848,-5.327c1.485,0 1.848,1.812 1.775,3.624c-0.036,1.956 -0.435,4.167 -1.956,4.167c-1.051,0 -1.559,-0.761 -1.667,-2.464Z" style="fill:#f16161;fill-rule:nonzero;"/><path id="path7_fill" d="M166.091,46.604l-5.689,-0.761c0,0 -1.957,2.935 -4.711,6.305c0.435,-7.718 0.979,-12.9 0.979,-12.9l-5.907,-0.543c0,0 -0.652,13.407 -0.797,24.06c2.464,0.29 5.327,0.29 5.327,0.29l0.181,-6.377c2.681,3.043 5.689,6.196 5.689,6.196l6.269,-1.015c-3.624,-3.623 -6.088,-6.16 -7.284,-7.754c1.377,-1.848 3.841,-4.783 5.943,-7.501Z" style="fill:#b57ee5;fill-rule:nonzero;"/><path id="path8_fill" d="M58.979,45.408c-5.508,0 -7.863,4.421 -7.863,9.675c0,4.457 2.174,7.791 7.356,7.791c5.798,0 7.863,-4.348 7.863,-9.385c0,-4.674 -2.029,-8.081 -7.356,-8.081Zm1.921,8.769c0,2.356 -0.798,4.167 -2.428,4.167c-1.377,0 -1.921,-1.594 -1.921,-3.261c0,-2.681 0.942,-4.747 2.428,-4.747c1.522,0 1.921,1.993 1.921,3.841Zm78.972,-8.769c-5.508,0 -7.864,4.421 -7.864,9.675c0,4.457 2.175,7.791 7.356,7.791c5.798,0 7.863,-4.348 7.863,-9.385c0,-4.674 -2.029,-8.081 -7.355,-8.081Zm1.92,8.769c0,2.356 -0.797,4.167 -2.428,4.167c-1.377,0 -1.92,-1.594 -1.92,-3.261c0,-2.681 0.942,-4.747 2.428,-4.747c1.521,0 1.92,1.993 1.92,3.841Z" style="fill:#a2e05e;fill-rule:nonzero;"/></g><path id="path9_fill" d="M22.011,46.94l6.365,-0.158c0.158,-6.166 -3.044,-9.21 -8.618,-9.21c-5.574,0 -8.696,3.162 -8.696,7.906c0,8.261 10.673,8.419 10.673,12.926c0,1.265 -0.593,2.016 -1.898,2.016c-1.7,0 -2.372,-1.107 -2.293,-4.19l-6.68,0c-0.514,7.629 3.953,9.368 9.052,9.368c4.941,0 8.815,-2.293 8.815,-7.273c0,-8.855 -10.831,-8.618 -10.831,-13.005c0,-1.779 1.265,-2.016 2.016,-2.016c0.791,0 2.214,0.316 2.095,3.636Z" style="fill:#fff;fill-rule:nonzero;"/></g></svg>