<?xml version="1.0" encoding="UTF-8" standalone="no"?><!DOCTYPE svg PUBLIC "-//W3C//DTD SVG 1.1//EN" "http://www.w3.org/Graphics/SVG/1.1/DTD/svg11.dtd"><svg width="100%" height="100%" viewBox="0 0 168 104" version="1.1" xmlns="http://www.w3.org/2000/svg" xmlns:xlink="http://www.w3.org/1999/xlink" xml:space="preserve" xmlns:serif="http://www.serif.com/" style="fill-rule:evenodd;clip-rule:evenodd;stroke-linejoin:round;stroke-miterlimit:1.41421;"><path d="M84,0l45.959,26l0,52l-45.959,26l-45.959,-26l0,-52l45.959,-26Z" style="fill:#fff;fill-rule:nonzero;"/><path d="M121.752,76.206l-36.235,20.497l0,-15.964l22.576,-12.42l13.659,7.887Zm2.479,-2.245l0,-42.865l-13.26,7.653l0,27.551l13.26,7.661Zm-78.13,2.245l36.235,20.497l0,-15.964l-22.577,-12.42l-13.658,7.887Zm-2.479,-2.245l0,-42.865l13.26,7.653l0,27.551l-13.26,7.661Zm1.551,-45.638l37.163,-21.026l0,15.436l-23.807,13.095l-0.182,0.104l-13.174,-7.609Zm77.506,0l-37.162,-21.026l0,15.436l23.807,13.095l0.182,0.104l13.173,-7.609Z" style="fill:#8ed6fb;fill-rule:nonzero;"/><path d="M82.336,77.107l-22.273,-12.246l0,-24.266l22.273,12.861l0,23.651m3.181,0l22.273,-12.246l0,-24.266l-22.273,12.861l0,23.651m-23.946,-39.32l22.36,-12.298l22.36,12.298l-22.36,12.913l-22.36,-12.913" style="fill:#1c78c0;fill-rule:nonzero;"/></svg>